<ttFont>
    <TTGlyph name="A" xMin="-37" yMin="-2" xMax="587" yMax="702">
      <contour>
        <pt x="319" y="702" on="1"/>
        <pt x="371" y="702" on="1"/>
        <pt x="421" y="702" on="0"/>
        <pt x="426" y="681" on="1"/>
        <pt x="584" y="38" on="1"/>
        <pt x="587" y="29" on="0"/>
        <pt x="587" y="21" on="1"/>
        <pt x="587" y="-2" on="0"/>
        <pt x="533" y="-2" on="1"/>
        <pt x="489" y="-2" on="1"/>
        <pt x="440" y="-2" on="0"/>
        <pt x="435" y="19" on="1"/>
        <pt x="406" y="141" on="1"/>
        <pt x="164" y="141" on="1"/>
        <pt x="109" y="19" on="1"/>
        <pt x="99" y="-2" on="0"/>
        <pt x="61" y="-2" on="1"/>
        <pt x="21" y="-2" on="1"/>
        <pt x="-37" y="-2" on="0"/>
        <pt x="-37" y="18" on="1"/>
        <pt x="-37" y="26" on="0"/>
        <pt x="-31" y="38" on="1"/>
        <pt x="260" y="681" on="1"/>
        <pt x="269" y="702" on="0"/>
      </contour>
      <contour>
        <pt x="301" y="451" on="1"/>
        <pt x="221" y="273" on="1"/>
        <pt x="375" y="273" on="1"/>
        <pt x="335" y="451" on="1"/>
        <pt x="327" y="515" on="1"/>
        <pt x="323" y="515" on="1"/>
        <pt x="309" y="468" on="0"/>
      </contour>
    </TTGlyph>
    <TTGlyph name="AE" xMin="-35" yMin="-2" xMax="898" yMax="700">
      <contour>
        <pt x="406" y="700" on="1"/>
        <pt x="872" y="700" on="1"/>
        <pt x="898" y="700" on="0"/>
        <pt x="898" y="660" on="1"/>
        <pt x="898" y="569" on="0"/>
        <pt x="860" y="569" on="1"/>
        <pt x="540" y="569" on="1"/>
        <pt x="552" y="424" on="1"/>
        <pt x="816" y="424" on="1"/>
        <pt x="842" y="424" on="0"/>
        <pt x="842" y="384" on="1"/>
        <pt x="842" y="293" on="0"/>
        <pt x="804" y="293" on="1"/>
        <pt x="565" y="293" on="1"/>
        <pt x="579" y="131" on="1"/>
        <pt x="813" y="131" on="1"/>
        <pt x="839" y="131" on="0"/>
        <pt x="839" y="91" on="1"/>
        <pt x="839" y="0" on="0"/>
        <pt x="801" y="0" on="1"/>
        <pt x="467" y="0" on="1"/>
        <pt x="451" y="0" on="0"/>
        <pt x="437" y="14" on="0"/>
        <pt x="435" y="30" on="1"/>
        <pt x="426" y="141" on="1"/>
        <pt x="183" y="141" on="1"/>
        <pt x="110" y="19" on="1"/>
        <pt x="96" y="-2" on="0"/>
        <pt x="62" y="-2" on="1"/>
        <pt x="25" y="-2" on="1"/>
        <pt x="-35" y="-2" on="0"/>
        <pt x="-35" y="20" on="1"/>
        <pt x="-35" y="27" on="0"/>
        <pt x="-27" y="38" on="1"/>
        <pt x="360" y="673" on="1"/>
        <pt x="377" y="700" on="0"/>
      </contour>
      <contour>
        <pt x="370" y="455" on="1"/>
        <pt x="262" y="273" on="1"/>
        <pt x="416" y="273" on="1"/>
        <pt x="402" y="454" on="1"/>
        <pt x="410" y="537" on="1"/>
        <pt x="406" y="537" on="1"/>
      </contour>
    </TTGlyph>
    <TTGlyph name="Aacute" xMin="-37" yMin="-2" xMax="587" yMax="934">
      <contour>
        <pt x="319" y="702" on="1"/>
        <pt x="371" y="702" on="1"/>
        <pt x="421" y="702" on="0"/>
        <pt x="426" y="681" on="1"/>
        <pt x="584" y="38" on="1"/>
        <pt x="587" y="29" on="0"/>
        <pt x="587" y="21" on="1"/>
        <pt x="587" y="-2" on="0"/>
        <pt x="533" y="-2" on="1"/>
        <pt x="489" y="-2" on="1"/>
        <pt x="440" y="-2" on="0"/>
        <pt x="435" y="19" on="1"/>
        <pt x="406" y="141" on="1"/>
        <pt x="164" y="141" on="1"/>
        <pt x="109" y="19" on="1"/>
        <pt x="99" y="-2" on="0"/>
        <pt x="61" y="-2" on="1"/>
        <pt x="21" y="-2" on="1"/>
        <pt x="-37" y="-2" on="0"/>
        <pt x="-37" y="18" on="1"/>
        <pt x="-37" y="26" on="0"/>
        <pt x="-31" y="38" on="1"/>
        <pt x="260" y="681" on="1"/>
        <pt x="269" y="702" on="0"/>
      </contour>
      <contour>
        <pt x="301" y="451" on="1"/>
        <pt x="221" y="273" on="1"/>
        <pt x="375" y="273" on="1"/>
        <pt x="335" y="451" on="1"/>
        <pt x="327" y="515" on="1"/>
        <pt x="323" y="515" on="1"/>
        <pt x="309" y="468" on="0"/>
      </contour>
      <contour>
        <pt x="298" y="775" on="1"/>
        <pt x="269" y="775" on="0"/>
        <pt x="269" y="788" on="1"/>
        <pt x="269" y="794" on="0"/>
        <pt x="286" y="819" on="0"/>
        <pt x="301" y="841" on="0"/>
        <pt x="331" y="884" on="0"/>
        <pt x="364" y="934" on="0"/>
        <pt x="492" y="934" on="0"/>
        <pt x="492" y="921" on="1"/>
        <pt x="492" y="914" on="0"/>
        <pt x="483" y="903" on="0"/>
        <pt x="411" y="834" on="0"/>
        <pt x="351" y="775" on="0"/>
      </contour>
    </TTGlyph>
    <TTGlyph name="Acircumflex" xMin="-37" yMin="-2" xMax="587" yMax="908">
      <contour>
        <pt x="319" y="702" on="1"/>
        <pt x="371" y="702" on="1"/>
        <pt x="421" y="702" on="0"/>
        <pt x="426" y="681" on="1"/>
        <pt x="584" y="38" on="1"/>
        <pt x="587" y="29" on="0"/>
        <pt x="587" y="21" on="1"/>
        <pt x="587" y="-2" on="0"/>
        <pt x="533" y="-2" on="1"/>
        <pt x="489" y="-2" on="1"/>
        <pt x="440" y="-2" on="0"/>
        <pt x="435" y="19" on="1"/>
        <pt x="406" y="141" on="1"/>
        <pt x="164" y="141" on="1"/>
        <pt x="109" y="19" on="1"/>
        <pt x="99" y="-2" on="0"/>
        <pt x="61" y="-2" on="1"/>
        <pt x="21" y="-2" on="1"/>
        <pt x="-37" y="-2" on="0"/>
        <pt x="-37" y="18" on="1"/>
        <pt x="-37" y="26" on="0"/>
        <pt x="-31" y="38" on="1"/>
        <pt x="260" y="681" on="1"/>
        <pt x="269" y="702" on="0"/>
      </contour>
      <contour>
        <pt x="301" y="451" on="1"/>
        <pt x="221" y="273" on="1"/>
        <pt x="375" y="273" on="1"/>
        <pt x="335" y="451" on="1"/>
        <pt x="327" y="515" on="1"/>
        <pt x="323" y="515" on="1"/>
        <pt x="309" y="468" on="0"/>
      </contour>
      <contour>
        <pt x="353" y="908" on="1"/>
        <pt x="364" y="908" on="1"/>
        <pt x="412" y="908" on="0"/>
        <pt x="423" y="889" on="1"/>
        <pt x="477" y="787" on="1"/>
        <pt x="480" y="779" on="0"/>
        <pt x="480" y="775" on="1"/>
        <pt x="480" y="762" on="0"/>
        <pt x="461" y="762" on="1"/>
        <pt x="439" y="762" on="1"/>
        <pt x="390" y="762" on="0"/>
        <pt x="375" y="786" on="1"/>
        <pt x="350" y="826" on="1"/>
        <pt x="319" y="787" on="1"/>
        <pt x="300" y="762" on="0"/>
        <pt x="250" y="762" on="1"/>
        <pt x="226" y="762" on="1"/>
        <pt x="207" y="762" on="0"/>
        <pt x="207" y="772" on="1"/>
        <pt x="207" y="779" on="0"/>
        <pt x="214" y="787" on="1"/>
        <pt x="290" y="889" on="1"/>
        <pt x="304" y="908" on="0"/>
      </contour>
    </TTGlyph>
    <TTGlyph name="Adieresis" xMin="-37" yMin="-2" xMax="587" yMax="882">
      <contour>
        <pt x="319" y="702" on="1"/>
        <pt x="371" y="702" on="1"/>
        <pt x="421" y="702" on="0"/>
        <pt x="426" y="681" on="1"/>
        <pt x="584" y="38" on="1"/>
        <pt x="587" y="29" on="0"/>
        <pt x="587" y="21" on="1"/>
        <pt x="587" y="-2" on="0"/>
        <pt x="533" y="-2" on="1"/>
        <pt x="489" y="-2" on="1"/>
        <pt x="440" y="-2" on="0"/>
        <pt x="435" y="19" on="1"/>
        <pt x="406" y="141" on="1"/>
        <pt x="164" y="141" on="1"/>
        <pt x="109" y="19" on="1"/>
        <pt x="99" y="-2" on="0"/>
        <pt x="61" y="-2" on="1"/>
        <pt x="21" y="-2" on="1"/>
        <pt x="-37" y="-2" on="0"/>
        <pt x="-37" y="18" on="1"/>
        <pt x="-37" y="26" on="0"/>
        <pt x="-31" y="38" on="1"/>
        <pt x="260" y="681" on="1"/>
        <pt x="269" y="702" on="0"/>
      </contour>
      <contour>
        <pt x="301" y="451" on="1"/>
        <pt x="221" y="273" on="1"/>
        <pt x="375" y="273" on="1"/>
        <pt x="335" y="451" on="1"/>
        <pt x="327" y="515" on="1"/>
        <pt x="323" y="515" on="1"/>
        <pt x="309" y="468" on="0"/>
      </contour>
      <contour>
        <pt x="385" y="850" on="1"/>
        <pt x="388" y="882" on="0"/>
        <pt x="505" y="882" on="0"/>
        <pt x="505" y="850" on="1"/>
        <pt x="498" y="790" on="1"/>
        <pt x="493" y="758" on="0"/>
        <pt x="378" y="758" on="0"/>
        <pt x="378" y="790" on="1"/>
      </contour>
      <contour>
        <pt x="205" y="850" on="1"/>
        <pt x="208" y="882" on="0"/>
        <pt x="325" y="882" on="0"/>
        <pt x="325" y="850" on="1"/>
        <pt x="318" y="790" on="1"/>
        <pt x="313" y="758" on="0"/>
        <pt x="198" y="758" on="0"/>
        <pt x="198" y="790" on="1"/>
      </contour>
    </TTGlyph>
    <TTGlyph name="Agrave" xMin="-37" yMin="-2" xMax="587" yMax="934">
      <contour>
        <pt x="319" y="702" on="1"/>
        <pt x="371" y="702" on="1"/>
        <pt x="421" y="702" on="0"/>
        <pt x="426" y="681" on="1"/>
        <pt x="584" y="38" on="1"/>
        <pt x="587" y="29" on="0"/>
        <pt x="587" y="21" on="1"/>
        <pt x="587" y="-2" on="0"/>
        <pt x="533" y="-2" on="1"/>
        <pt x="489" y="-2" on="1"/>
        <pt x="440" y="-2" on="0"/>
        <pt x="435" y="19" on="1"/>
        <pt x="406" y="141" on="1"/>
        <pt x="164" y="141" on="1"/>
        <pt x="109" y="19" on="1"/>
        <pt x="99" y="-2" on="0"/>
        <pt x="61" y="-2" on="1"/>
        <pt x="21" y="-2" on="1"/>
        <pt x="-37" y="-2" on="0"/>
        <pt x="-37" y="18" on="1"/>
        <pt x="-37" y="26" on="0"/>
        <pt x="-31" y="38" on="1"/>
        <pt x="260" y="681" on="1"/>
        <pt x="269" y="702" on="0"/>
      </contour>
      <contour>
        <pt x="301" y="451" on="1"/>
        <pt x="221" y="273" on="1"/>
        <pt x="375" y="273" on="1"/>
        <pt x="335" y="451" on="1"/>
        <pt x="327" y="515" on="1"/>
        <pt x="323" y="515" on="1"/>
        <pt x="309" y="468" on="0"/>
      </contour>
      <contour>
        <pt x="437" y="791" on="1"/>
        <pt x="437" y="775" on="0"/>
        <pt x="353" y="775" on="0"/>
        <pt x="309" y="829" on="0"/>
        <pt x="252" y="896" on="0"/>
        <pt x="240" y="913" on="0"/>
        <pt x="240" y="918" on="1"/>
        <pt x="240" y="934" on="0"/>
        <pt x="371" y="934" on="0"/>
        <pt x="384" y="907" on="1"/>
        <pt x="394" y="886" on="0"/>
        <pt x="413" y="846" on="0"/>
        <pt x="424" y="824" on="0"/>
        <pt x="428" y="814" on="1"/>
        <pt x="437" y="795" on="0"/>
      </contour>
    </TTGlyph>
    <TTGlyph name="Aring" xMin="-37" yMin="-2" xMax="587" yMax="929">
      <contour>
        <pt x="319" y="702" on="1"/>
        <pt x="371" y="702" on="1"/>
        <pt x="421" y="702" on="0"/>
        <pt x="426" y="681" on="1"/>
        <pt x="584" y="38" on="1"/>
        <pt x="587" y="29" on="0"/>
        <pt x="587" y="21" on="1"/>
        <pt x="587" y="-2" on="0"/>
        <pt x="533" y="-2" on="1"/>
        <pt x="489" y="-2" on="1"/>
        <pt x="440" y="-2" on="0"/>
        <pt x="435" y="19" on="1"/>
        <pt x="406" y="141" on="1"/>
        <pt x="164" y="141" on="1"/>
        <pt x="109" y="19" on="1"/>
        <pt x="99" y="-2" on="0"/>
        <pt x="61" y="-2" on="1"/>
        <pt x="21" y="-2" on="1"/>
        <pt x="-37" y="-2" on="0"/>
        <pt x="-37" y="18" on="1"/>
        <pt x="-37" y="26" on="0"/>
        <pt x="-31" y="38" on="1"/>
        <pt x="260" y="681" on="1"/>
        <pt x="269" y="702" on="0"/>
      </contour>
      <contour>
        <pt x="301" y="451" on="1"/>
        <pt x="221" y="273" on="1"/>
        <pt x="375" y="273" on="1"/>
        <pt x="335" y="451" on="1"/>
        <pt x="327" y="515" on="1"/>
        <pt x="323" y="515" on="1"/>
        <pt x="309" y="468" on="0"/>
      </contour>
      <contour>
        <pt x="451" y="793" on="0"/>
        <pt x="392" y="730" on="0"/>
        <pt x="302" y="730" on="0"/>
        <pt x="251" y="780" on="0"/>
        <pt x="251" y="866" on="0"/>
        <pt x="312" y="929" on="0"/>
        <pt x="401" y="929" on="0"/>
        <pt x="451" y="878" on="0"/>
      </contour>
      <contour>
        <pt x="315" y="810" on="0"/>
        <pt x="334" y="792" on="0"/>
        <pt x="364" y="792" on="0"/>
        <pt x="388" y="815" on="0"/>
        <pt x="388" y="845" on="0"/>
        <pt x="369" y="865" on="0"/>
        <pt x="339" y="865" on="0"/>
        <pt x="315" y="840" on="0"/>
      </contour>
    </TTGlyph>
    <TTGlyph name="Atilde" xMin="-37" yMin="-2" xMax="587" yMax="887">
      <contour>
        <pt x="319" y="702" on="1"/>
        <pt x="371" y="702" on="1"/>
        <pt x="421" y="702" on="0"/>
        <pt x="426" y="681" on="1"/>
        <pt x="584" y="38" on="1"/>
        <pt x="587" y="29" on="0"/>
        <pt x="587" y="21" on="1"/>
        <pt x="587" y="-2" on="0"/>
        <pt x="533" y="-2" on="1"/>
        <pt x="489" y="-2" on="1"/>
        <pt x="440" y="-2" on="0"/>
        <pt x="435" y="19" on="1"/>
        <pt x="406" y="141" on="1"/>
        <pt x="164" y="141" on="1"/>
        <pt x="109" y="19" on="1"/>
        <pt x="99" y="-2" on="0"/>
        <pt x="61" y="-2" on="1"/>
        <pt x="21" y="-2" on="1"/>
        <pt x="-37" y="-2" on="0"/>
        <pt x="-37" y="18" on="1"/>
        <pt x="-37" y="26" on="0"/>
        <pt x="-31" y="38" on="1"/>
        <pt x="260" y="681" on="1"/>
        <pt x="269" y="702" on="0"/>
      </contour>
      <contour>
        <pt x="301" y="451" on="1"/>
        <pt x="221" y="273" on="1"/>
        <pt x="375" y="273" on="1"/>
        <pt x="335" y="451" on="1"/>
        <pt x="327" y="515" on="1"/>
        <pt x="323" y="515" on="1"/>
        <pt x="309" y="468" on="0"/>
      </contour>
      <contour>
        <pt x="271" y="794" on="0"/>
        <pt x="239" y="783" on="0"/>
        <pt x="219" y="783" on="0"/>
        <pt x="192" y="811" on="0"/>
        <pt x="192" y="849" on="0"/>
        <pt x="260" y="887" on="0"/>
        <pt x="328" y="887" on="0"/>
        <pt x="404" y="870" on="0"/>
        <pt x="431" y="870" on="0"/>
        <pt x="465" y="881" on="0"/>
        <pt x="486" y="881" on="0"/>
        <pt x="512" y="852" on="0"/>
        <pt x="512" y="814" on="0"/>
        <pt x="444" y="775" on="0"/>
        <pt x="375" y="775" on="0"/>
        <pt x="298" y="794" on="0"/>
      </contour>
    </TTGlyph>
    <TTGlyph name="B" xMin="40" yMin="0" xMax="566" yMax="700">
      <contour>
        <pt x="149" y="700" on="1"/>
        <pt x="347" y="700" on="1"/>
        <pt x="460" y="700" on="0"/>
        <pt x="566" y="618" on="0"/>
        <pt x="566" y="488" on="0"/>
        <pt x="496" y="393" on="0"/>
        <pt x="441" y="371" on="1"/>
        <pt x="441" y="367" on="1"/>
        <pt x="495" y="356" on="0"/>
        <pt x="560" y="273" on="0"/>
        <pt x="560" y="220" on="1"/>
        <pt x="560" y="115" on="0"/>
        <pt x="416" y="0" on="0"/>
        <pt x="288" y="0" on="1"/>
        <pt x="76" y="0" on="1"/>
        <pt x="56" y="0" on="0"/>
        <pt x="40" y="14" on="0"/>
        <pt x="40" y="36" on="0"/>
        <pt x="73" y="349" on="0"/>
        <pt x="105" y="660" on="1"/>
        <pt x="109" y="700" on="0"/>
      </contour>
      <contour>
        <pt x="303" y="421" on="1"/>
        <pt x="350" y="421" on="0"/>
        <pt x="404" y="470" on="0"/>
        <pt x="404" y="507" on="1"/>
        <pt x="404" y="570" on="0"/>
        <pt x="321" y="570" on="1"/>
        <pt x="250" y="570" on="1"/>
        <pt x="234" y="421" on="1"/>
      </contour>
      <contour>
        <pt x="301" y="131" on="1"/>
        <pt x="347" y="131" on="0"/>
        <pt x="402" y="178" on="0"/>
        <pt x="402" y="221" on="1"/>
        <pt x="402" y="290" on="0"/>
        <pt x="302" y="290" on="1"/>
        <pt x="220" y="290" on="1"/>
        <pt x="203" y="131" on="1"/>
      </contour>
    </TTGlyph>
    <TTGlyph name="C" xMin="42" yMin="-8" xMax="619" yMax="708">
      <contour>
        <pt x="164" y="639" on="0"/>
        <pt x="314" y="708" on="0"/>
        <pt x="488" y="708" on="0"/>
        <pt x="619" y="669" on="0"/>
        <pt x="619" y="640" on="1"/>
        <pt x="619" y="619" on="0"/>
        <pt x="562" y="544" on="0"/>
        <pt x="544" y="544" on="1"/>
        <pt x="541" y="544" on="0"/>
        <pt x="524" y="552" on="1"/>
        <pt x="475" y="576" on="0"/>
        <pt x="400" y="576" on="1"/>
        <pt x="303" y="576" on="0"/>
        <pt x="201" y="436" on="0"/>
        <pt x="201" y="298" on="1"/>
        <pt x="201" y="123" on="0"/>
        <pt x="351" y="123" on="1"/>
        <pt x="401" y="123" on="0"/>
        <pt x="494" y="150" on="0"/>
        <pt x="549" y="178" on="0"/>
        <pt x="552" y="178" on="1"/>
        <pt x="564" y="178" on="0"/>
        <pt x="564" y="163" on="1"/>
        <pt x="564" y="121" on="0"/>
        <pt x="554" y="68" on="1"/>
        <pt x="546" y="28" on="0"/>
        <pt x="398" y="-8" on="0"/>
        <pt x="337" y="-8" on="1"/>
        <pt x="187" y="-8" on="0"/>
        <pt x="42" y="131" on="0"/>
        <pt x="42" y="276" on="1"/>
        <pt x="42" y="458" on="0"/>
        <pt x="122" y="578" on="1"/>
      </contour>
    </TTGlyph>
    <TTGlyph name="Ccedilla" xMin="42" yMin="-211" xMax="619" yMax="708">
      <contour>
        <pt x="222" y="-186" on="1"/>
        <pt x="211" y="-175" on="0"/>
        <pt x="211" y="-159" on="1"/>
        <pt x="211" y="-111" on="0"/>
        <pt x="225" y="-111" on="1"/>
        <pt x="227" y="-111" on="0"/>
        <pt x="287" y="-138" on="0"/>
        <pt x="337" y="-138" on="0"/>
        <pt x="339" y="-121" on="1"/>
        <pt x="339" y="-109" on="0"/>
        <pt x="291" y="-85" on="0"/>
        <pt x="291" y="-73" on="1"/>
        <pt x="291" y="-65" on="0"/>
        <pt x="316" y="-8" on="1"/>
        <pt x="176" y="-3" on="0"/>
        <pt x="42" y="136" on="0"/>
        <pt x="42" y="276" on="1"/>
        <pt x="42" y="458" on="0"/>
        <pt x="122" y="578" on="1"/>
        <pt x="164" y="639" on="0"/>
        <pt x="314" y="708" on="0"/>
        <pt x="488" y="708" on="0"/>
        <pt x="619" y="669" on="0"/>
        <pt x="619" y="640" on="1"/>
        <pt x="619" y="619" on="0"/>
        <pt x="562" y="544" on="0"/>
        <pt x="544" y="544" on="1"/>
        <pt x="541" y="544" on="0"/>
        <pt x="524" y="552" on="1"/>
        <pt x="475" y="576" on="0"/>
        <pt x="400" y="576" on="1"/>
        <pt x="303" y="576" on="0"/>
        <pt x="201" y="436" on="0"/>
        <pt x="201" y="298" on="1"/>
        <pt x="201" y="123" on="0"/>
        <pt x="351" y="123" on="1"/>
        <pt x="401" y="123" on="0"/>
        <pt x="494" y="150" on="0"/>
        <pt x="549" y="178" on="0"/>
        <pt x="552" y="178" on="1"/>
        <pt x="564" y="178" on="0"/>
        <pt x="564" y="163" on="1"/>
        <pt x="564" y="121" on="0"/>
        <pt x="554" y="68" on="1"/>
        <pt x="547" y="36" on="0"/>
        <pt x="447" y="1" on="0"/>
        <pt x="384" y="-5" on="1"/>
        <pt x="373" y="-35" on="1"/>
        <pt x="443" y="-52" on="0"/>
        <pt x="443" y="-159" on="0"/>
        <pt x="375" y="-211" on="0"/>
        <pt x="247" y="-211" on="0"/>
      </contour>
    </TTGlyph>
    <TTGlyph name="D" xMin="40" yMin="0" xMax="660" yMax="700">
      <contour>
        <pt x="149" y="700" on="1"/>
        <pt x="373" y="700" on="1"/>
        <pt x="513" y="700" on="0"/>
        <pt x="660" y="551" on="0"/>
        <pt x="660" y="411" on="1"/>
        <pt x="660" y="215" on="0"/>
        <pt x="467" y="0" on="0"/>
        <pt x="300" y="0" on="1"/>
        <pt x="76" y="0" on="1"/>
        <pt x="56" y="0" on="0"/>
        <pt x="40" y="15" on="0"/>
        <pt x="40" y="33" on="1"/>
        <pt x="105" y="660" on="1"/>
        <pt x="109" y="700" on="0"/>
      </contour>
      <contour>
        <pt x="313" y="131" on="1"/>
        <pt x="400" y="131" on="0"/>
        <pt x="501" y="270" on="0"/>
        <pt x="501" y="397" on="1"/>
        <pt x="501" y="569" on="0"/>
        <pt x="360" y="569" on="1"/>
        <pt x="251" y="569" on="1"/>
        <pt x="204" y="131" on="1"/>
      </contour>
    </TTGlyph>
    <TTGlyph name="Delta" xMin="20" yMin="0" xMax="673" yMax="710">
      <contour>
        <pt x="384" y="710" on="1"/>
        <pt x="445" y="710" on="1"/>
        <pt x="474" y="710" on="0"/>
        <pt x="483" y="683" on="1"/>
        <pt x="668" y="130" on="1"/>
        <pt x="673" y="113" on="0"/>
        <pt x="673" y="91" on="0"/>
        <pt x="667" y="35" on="1"/>
        <pt x="664" y="0" on="0"/>
        <pt x="628" y="0" on="1"/>
        <pt x="51" y="0" on="1"/>
        <pt x="20" y="0" on="0"/>
        <pt x="20" y="27" on="1"/>
        <pt x="20" y="28" on="0"/>
        <pt x="21" y="34" on="0"/>
        <pt x="23" y="63" on="0"/>
        <pt x="26" y="106" on="0"/>
        <pt x="39" y="130" on="1"/>
        <pt x="340" y="683" on="1"/>
        <pt x="354" y="710" on="0"/>
      </contour>
      <contour>
        <pt x="182" y="130" on="1"/>
        <pt x="524" y="130" on="1"/>
        <pt x="398" y="513" on="1"/>
        <pt x="388" y="513" on="1"/>
      </contour>
    </TTGlyph>
    <TTGlyph name="E" xMin="40" yMin="0" xMax="541" yMax="700">
      <contour>
        <pt x="149" y="700" on="1"/>
        <pt x="515" y="700" on="1"/>
        <pt x="541" y="700" on="0"/>
        <pt x="541" y="660" on="1"/>
        <pt x="541" y="569" on="0"/>
        <pt x="503" y="569" on="1"/>
        <pt x="251" y="569" on="1"/>
        <pt x="235" y="424" on="1"/>
        <pt x="459" y="424" on="1"/>
        <pt x="485" y="424" on="0"/>
        <pt x="485" y="384" on="1"/>
        <pt x="485" y="293" on="0"/>
        <pt x="447" y="293" on="1"/>
        <pt x="222" y="293" on="1"/>
        <pt x="204" y="131" on="1"/>
        <pt x="456" y="131" on="1"/>
        <pt x="482" y="131" on="0"/>
        <pt x="482" y="91" on="1"/>
        <pt x="482" y="0" on="0"/>
        <pt x="444" y="0" on="1"/>
        <pt x="76" y="0" on="1"/>
        <pt x="56" y="0" on="0"/>
        <pt x="40" y="14" on="0"/>
        <pt x="40" y="32" on="1"/>
        <pt x="105" y="660" on="1"/>
        <pt x="109" y="700" on="0"/>
      </contour>
    </TTGlyph>
    <TTGlyph name="Eacute" xMin="40" yMin="0" xMax="541" yMax="934">
      <contour>
        <pt x="149" y="700" on="1"/>
        <pt x="515" y="700" on="1"/>
        <pt x="541" y="700" on="0"/>
        <pt x="541" y="660" on="1"/>
        <pt x="541" y="569" on="0"/>
        <pt x="503" y="569" on="1"/>
        <pt x="251" y="569" on="1"/>
        <pt x="235" y="424" on="1"/>
        <pt x="459" y="424" on="1"/>
        <pt x="485" y="424" on="0"/>
        <pt x="485" y="384" on="1"/>
        <pt x="485" y="293" on="0"/>
        <pt x="447" y="293" on="1"/>
        <pt x="222" y="293" on="1"/>
        <pt x="204" y="131" on="1"/>
        <pt x="456" y="131" on="1"/>
        <pt x="482" y="131" on="0"/>
        <pt x="482" y="91" on="1"/>
        <pt x="482" y="0" on="0"/>
        <pt x="444" y="0" on="1"/>
        <pt x="76" y="0" on="1"/>
        <pt x="56" y="0" on="0"/>
        <pt x="40" y="14" on="0"/>
        <pt x="40" y="32" on="1"/>
        <pt x="105" y="660" on="1"/>
        <pt x="109" y="700" on="0"/>
      </contour>
      <contour>
        <pt x="292" y="775" on="1"/>
        <pt x="263" y="775" on="0"/>
        <pt x="263" y="788" on="1"/>
        <pt x="263" y="794" on="0"/>
        <pt x="280" y="819" on="0"/>
        <pt x="295" y="841" on="0"/>
        <pt x="325" y="884" on="0"/>
        <pt x="358" y="934" on="0"/>
        <pt x="486" y="934" on="0"/>
        <pt x="486" y="921" on="1"/>
        <pt x="486" y="914" on="0"/>
        <pt x="477" y="903" on="0"/>
        <pt x="405" y="834" on="0"/>
        <pt x="345" y="775" on="0"/>
      </contour>
    </TTGlyph>
    <TTGlyph name="Ecircumflex" xMin="40" yMin="0" xMax="541" yMax="908">
      <contour>
        <pt x="149" y="700" on="1"/>
        <pt x="515" y="700" on="1"/>
        <pt x="541" y="700" on="0"/>
        <pt x="541" y="660" on="1"/>
        <pt x="541" y="569" on="0"/>
        <pt x="503" y="569" on="1"/>
        <pt x="251" y="569" on="1"/>
        <pt x="235" y="424" on="1"/>
        <pt x="459" y="424" on="1"/>
        <pt x="485" y="424" on="0"/>
        <pt x="485" y="384" on="1"/>
        <pt x="485" y="293" on="0"/>
        <pt x="447" y="293" on="1"/>
        <pt x="222" y="293" on="1"/>
        <pt x="204" y="131" on="1"/>
        <pt x="456" y="131" on="1"/>
        <pt x="482" y="131" on="0"/>
        <pt x="482" y="91" on="1"/>
        <pt x="482" y="0" on="0"/>
        <pt x="444" y="0" on="1"/>
        <pt x="76" y="0" on="1"/>
        <pt x="56" y="0" on="0"/>
        <pt x="40" y="14" on="0"/>
        <pt x="40" y="32" on="1"/>
        <pt x="105" y="660" on="1"/>
        <pt x="109" y="700" on="0"/>
      </contour>
      <contour>
        <pt x="347" y="908" on="1"/>
        <pt x="358" y="908" on="1"/>
        <pt x="406" y="908" on="0"/>
        <pt x="417" y="889" on="1"/>
        <pt x="471" y="787" on="1"/>
        <pt x="474" y="779" on="0"/>
        <pt x="474" y="775" on="1"/>
        <pt x="474" y="762" on="0"/>
        <pt x="455" y="762" on="1"/>
        <pt x="433" y="762" on="1"/>
        <pt x="384" y="762" on="0"/>
        <pt x="369" y="786" on="1"/>
        <pt x="344" y="826" on="1"/>
        <pt x="313" y="787" on="1"/>
        <pt x="294" y="762" on="0"/>
        <pt x="244" y="762" on="1"/>
        <pt x="220" y="762" on="1"/>
        <pt x="201" y="762" on="0"/>
        <pt x="201" y="772" on="1"/>
        <pt x="201" y="779" on="0"/>
        <pt x="208" y="787" on="1"/>
        <pt x="284" y="889" on="1"/>
        <pt x="298" y="908" on="0"/>
      </contour>
    </TTGlyph>
    <TTGlyph name="Edieresis" xMin="40" yMin="0" xMax="541" yMax="882">
      <contour>
        <pt x="149" y="700" on="1"/>
        <pt x="515" y="700" on="1"/>
        <pt x="541" y="700" on="0"/>
        <pt x="541" y="660" on="1"/>
        <pt x="541" y="569" on="0"/>
        <pt x="503" y="569" on="1"/>
        <pt x="251" y="569" on="1"/>
        <pt x="235" y="424" on="1"/>
        <pt x="459" y="424" on="1"/>
        <pt x="485" y="424" on="0"/>
        <pt x="485" y="384" on="1"/>
        <pt x="485" y="293" on="0"/>
        <pt x="447" y="293" on="1"/>
        <pt x="222" y="293" on="1"/>
        <pt x="204" y="131" on="1"/>
        <pt x="456" y="131" on="1"/>
        <pt x="482" y="131" on="0"/>
        <pt x="482" y="91" on="1"/>
        <pt x="482" y="0" on="0"/>
        <pt x="444" y="0" on="1"/>
        <pt x="76" y="0" on="1"/>
        <pt x="56" y="0" on="0"/>
        <pt x="40" y="14" on="0"/>
        <pt x="40" y="32" on="1"/>
        <pt x="105" y="660" on="1"/>
        <pt x="109" y="700" on="0"/>
      </contour>
      <contour>
        <pt x="379" y="850" on="1"/>
        <pt x="382" y="882" on="0"/>
        <pt x="499" y="882" on="0"/>
        <pt x="499" y="850" on="1"/>
        <pt x="492" y="790" on="1"/>
        <pt x="487" y="758" on="0"/>
        <pt x="372" y="758" on="0"/>
        <pt x="372" y="790" on="1"/>
      </contour>
      <contour>
        <pt x="199" y="850" on="1"/>
        <pt x="202" y="882" on="0"/>
        <pt x="319" y="882" on="0"/>
        <pt x="319" y="850" on="1"/>
        <pt x="312" y="790" on="1"/>
        <pt x="307" y="758" on="0"/>
        <pt x="192" y="758" on="0"/>
        <pt x="192" y="790" on="1"/>
      </contour>
    </TTGlyph>
    <TTGlyph name="Egrave" xMin="40" yMin="0" xMax="541" yMax="934">
      <contour>
        <pt x="149" y="700" on="1"/>
        <pt x="515" y="700" on="1"/>
        <pt x="541" y="700" on="0"/>
        <pt x="541" y="660" on="1"/>
        <pt x="541" y="569" on="0"/>
        <pt x="503" y="569" on="1"/>
        <pt x="251" y="569" on="1"/>
        <pt x="235" y="424" on="1"/>
        <pt x="459" y="424" on="1"/>
        <pt x="485" y="424" on="0"/>
        <pt x="485" y="384" on="1"/>
        <pt x="485" y="293" on="0"/>
        <pt x="447" y="293" on="1"/>
        <pt x="222" y="293" on="1"/>
        <pt x="204" y="131" on="1"/>
        <pt x="456" y="131" on="1"/>
        <pt x="482" y="131" on="0"/>
        <pt x="482" y="91" on="1"/>
        <pt x="482" y="0" on="0"/>
        <pt x="444" y="0" on="1"/>
        <pt x="76" y="0" on="1"/>
        <pt x="56" y="0" on="0"/>
        <pt x="40" y="14" on="0"/>
        <pt x="40" y="32" on="1"/>
        <pt x="105" y="660" on="1"/>
        <pt x="109" y="700" on="0"/>
      </contour>
      <contour>
        <pt x="431" y="791" on="1"/>
        <pt x="431" y="775" on="0"/>
        <pt x="347" y="775" on="0"/>
        <pt x="303" y="829" on="0"/>
        <pt x="234" y="911" on="0"/>
        <pt x="234" y="918" on="1"/>
        <pt x="234" y="934" on="0"/>
        <pt x="365" y="934" on="0"/>
        <pt x="378" y="907" on="1"/>
        <pt x="388" y="886" on="0"/>
        <pt x="407" y="846" on="0"/>
        <pt x="418" y="824" on="0"/>
        <pt x="422" y="814" on="1"/>
        <pt x="431" y="795" on="0"/>
      </contour>
    </TTGlyph>
    <TTGlyph name="Eth" xMin="9" yMin="0" xMax="658" yMax="700">
      <contour>
        <pt x="35" y="290" on="1"/>
        <pt x="9" y="290" on="0"/>
        <pt x="9" y="330" on="1"/>
        <pt x="9" y="421" on="0"/>
        <pt x="47" y="421" on="1"/>
        <pt x="78" y="421" on="1"/>
        <pt x="103" y="660" on="1"/>
        <pt x="107" y="700" on="0"/>
        <pt x="147" y="700" on="1"/>
        <pt x="371" y="700" on="1"/>
        <pt x="511" y="700" on="0"/>
        <pt x="658" y="551" on="0"/>
        <pt x="658" y="411" on="1"/>
        <pt x="658" y="215" on="0"/>
        <pt x="465" y="0" on="0"/>
        <pt x="298" y="0" on="1"/>
        <pt x="74" y="0" on="1"/>
        <pt x="54" y="0" on="0"/>
        <pt x="38" y="15" on="0"/>
        <pt x="38" y="33" on="1"/>
        <pt x="64" y="290" on="1"/>
      </contour>
      <contour>
        <pt x="311" y="131" on="1"/>
        <pt x="398" y="131" on="0"/>
        <pt x="499" y="270" on="0"/>
        <pt x="499" y="397" on="1"/>
        <pt x="499" y="569" on="0"/>
        <pt x="358" y="569" on="1"/>
        <pt x="249" y="569" on="1"/>
        <pt x="233" y="421" on="1"/>
        <pt x="292" y="421" on="1"/>
        <pt x="318" y="421" on="0"/>
        <pt x="318" y="381" on="1"/>
        <pt x="318" y="290" on="0"/>
        <pt x="280" y="290" on="1"/>
        <pt x="219" y="290" on="1"/>
        <pt x="202" y="131" on="1"/>
      </contour>
    </TTGlyph>
    <TTGlyph name="Euro" xMin="-11" yMin="-8" xMax="590" yMax="708">
      <contour>
        <pt x="434" y="233" on="1"/>
        <pt x="216" y="233" on="1"/>
        <pt x="239" y="123" on="0"/>
        <pt x="350" y="123" on="1"/>
        <pt x="423" y="123" on="0"/>
        <pt x="488" y="152" on="1"/>
        <pt x="511" y="162" on="0"/>
        <pt x="513" y="162" on="1"/>
        <pt x="525" y="162" on="0"/>
        <pt x="525" y="147" on="1"/>
        <pt x="525" y="105" on="0"/>
        <pt x="515" y="52" on="1"/>
        <pt x="509" y="20" on="0"/>
        <pt x="387" y="-8" on="0"/>
        <pt x="336" y="-8" on="1"/>
        <pt x="202" y="-8" on="0"/>
        <pt x="62" y="110" on="0"/>
        <pt x="52" y="233" on="1"/>
        <pt x="12" y="233" on="1"/>
        <pt x="-11" y="233" on="0"/>
        <pt x="-11" y="256" on="1"/>
        <pt x="-11" y="308" on="0"/>
        <pt x="22" y="308" on="1"/>
        <pt x="51" y="308" on="1"/>
        <pt x="52" y="334" on="0"/>
        <pt x="58" y="384" on="1"/>
        <pt x="28" y="384" on="1"/>
        <pt x="5" y="384" on="0"/>
        <pt x="5" y="407" on="1"/>
        <pt x="5" y="459" on="0"/>
        <pt x="38" y="459" on="1"/>
        <pt x="74" y="459" on="1"/>
        <pt x="145" y="708" on="0"/>
        <pt x="416" y="708" on="1"/>
        <pt x="476" y="708" on="0"/>
        <pt x="590" y="671" on="0"/>
        <pt x="590" y="644" on="1"/>
        <pt x="590" y="623" on="0"/>
        <pt x="533" y="548" on="0"/>
        <pt x="515" y="548" on="1"/>
        <pt x="513" y="548" on="0"/>
        <pt x="498" y="555" on="1"/>
        <pt x="455" y="576" on="0"/>
        <pt x="399" y="576" on="1"/>
        <pt x="278" y="576" on="0"/>
        <pt x="234" y="459" on="1"/>
        <pt x="486" y="459" on="1"/>
        <pt x="495" y="459" on="0"/>
        <pt x="500" y="453" on="0"/>
        <pt x="500" y="425" on="0"/>
        <pt x="473" y="384" on="0"/>
        <pt x="450" y="384" on="1"/>
        <pt x="215" y="384" on="1"/>
        <pt x="210" y="346" on="0"/>
        <pt x="210" y="308" on="1"/>
        <pt x="470" y="308" on="1"/>
        <pt x="479" y="308" on="0"/>
        <pt x="484" y="302" on="0"/>
        <pt x="484" y="274" on="0"/>
        <pt x="457" y="233" on="0"/>
      </contour>
    </TTGlyph>
    <TTGlyph name="F" xMin="42" yMin="-2" xMax="513" yMax="700">
      <contour>
        <pt x="134" y="-2" on="1"/>
        <pt x="99" y="-2" on="1"/>
        <pt x="42" y="-2" on="0"/>
        <pt x="42" y="29" on="1"/>
        <pt x="108" y="660" on="1"/>
        <pt x="112" y="700" on="0"/>
        <pt x="152" y="700" on="1"/>
        <pt x="487" y="700" on="1"/>
        <pt x="513" y="700" on="0"/>
        <pt x="513" y="660" on="1"/>
        <pt x="513" y="569" on="0"/>
        <pt x="475" y="569" on="1"/>
        <pt x="254" y="569" on="1"/>
        <pt x="238" y="423" on="1"/>
        <pt x="451" y="423" on="1"/>
        <pt x="477" y="423" on="0"/>
        <pt x="477" y="383" on="1"/>
        <pt x="477" y="292" on="0"/>
        <pt x="439" y="292" on="1"/>
        <pt x="225" y="292" on="1"/>
        <pt x="197" y="30" on="1"/>
        <pt x="194" y="-2" on="0"/>
      </contour>
    </TTGlyph>
    <TTGlyph name="G" xMin="41" yMin="-8" xMax="619" yMax="708">
      <contour>
        <pt x="355" y="258" on="1"/>
        <pt x="329" y="258" on="0"/>
        <pt x="329" y="298" on="1"/>
        <pt x="329" y="389" on="0"/>
        <pt x="367" y="389" on="1"/>
        <pt x="571" y="389" on="1"/>
        <pt x="591" y="389" on="0"/>
        <pt x="608" y="375" on="0"/>
        <pt x="608" y="358" on="1"/>
        <pt x="577" y="71" on="1"/>
        <pt x="574" y="47" on="0"/>
        <pt x="520" y="13" on="0"/>
        <pt x="478" y="6" on="1"/>
        <pt x="404" y="-8" on="0"/>
        <pt x="336" y="-8" on="1"/>
        <pt x="186" y="-8" on="0"/>
        <pt x="41" y="131" on="0"/>
        <pt x="41" y="276" on="1"/>
        <pt x="41" y="491" on="0"/>
        <pt x="233" y="708" on="0"/>
        <pt x="416" y="708" on="1"/>
        <pt x="487" y="708" on="0"/>
        <pt x="619" y="669" on="0"/>
        <pt x="619" y="640" on="1"/>
        <pt x="619" y="619" on="0"/>
        <pt x="562" y="544" on="0"/>
        <pt x="544" y="544" on="1"/>
        <pt x="541" y="544" on="0"/>
        <pt x="524" y="552" on="1"/>
        <pt x="475" y="576" on="0"/>
        <pt x="399" y="576" on="1"/>
        <pt x="302" y="576" on="0"/>
        <pt x="200" y="436" on="0"/>
        <pt x="200" y="298" on="1"/>
        <pt x="200" y="123" on="0"/>
        <pt x="350" y="123" on="1"/>
        <pt x="390" y="123" on="0"/>
        <pt x="428" y="130" on="1"/>
        <pt x="442" y="258" on="1"/>
      </contour>
    </TTGlyph>
    <TTGlyph name="H" xMin="42" yMin="-2" xMax="689" yMax="702">
      <contour>
        <pt x="559" y="-2" on="1"/>
        <pt x="524" y="-2" on="1"/>
        <pt x="467" y="-2" on="0"/>
        <pt x="467" y="29" on="1"/>
        <pt x="494" y="291" on="1"/>
        <pt x="224" y="291" on="1"/>
        <pt x="197" y="30" on="1"/>
        <pt x="194" y="-2" on="0"/>
        <pt x="134" y="-2" on="1"/>
        <pt x="99" y="-2" on="1"/>
        <pt x="42" y="-2" on="0"/>
        <pt x="42" y="29" on="1"/>
        <pt x="109" y="670" on="1"/>
        <pt x="112" y="702" on="0"/>
        <pt x="172" y="702" on="1"/>
        <pt x="207" y="702" on="1"/>
        <pt x="264" y="702" on="0"/>
        <pt x="264" y="671" on="1"/>
        <pt x="238" y="423" on="1"/>
        <pt x="508" y="423" on="1"/>
        <pt x="534" y="670" on="1"/>
        <pt x="537" y="702" on="0"/>
        <pt x="597" y="702" on="1"/>
        <pt x="632" y="702" on="1"/>
        <pt x="689" y="702" on="0"/>
        <pt x="689" y="671" on="1"/>
        <pt x="622" y="30" on="1"/>
        <pt x="619" y="-2" on="0"/>
      </contour>
    </TTGlyph>
    <TTGlyph name="I" xMin="30" yMin="-2" xMax="252" yMax="702">
      <contour>
        <pt x="122" y="-2" on="1"/>
        <pt x="87" y="-2" on="1"/>
        <pt x="30" y="-2" on="0"/>
        <pt x="30" y="29" on="1"/>
        <pt x="97" y="670" on="1"/>
        <pt x="100" y="702" on="0"/>
        <pt x="160" y="702" on="1"/>
        <pt x="195" y="702" on="1"/>
        <pt x="252" y="702" on="0"/>
        <pt x="252" y="671" on="1"/>
        <pt x="185" y="30" on="1"/>
        <pt x="182" y="-2" on="0"/>
      </contour>
    </TTGlyph>
    <TTGlyph name="Iacute" xMin="30" yMin="-2" xMax="346" yMax="934">
      <contour>
        <pt x="122" y="-2" on="1"/>
        <pt x="87" y="-2" on="1"/>
        <pt x="30" y="-2" on="0"/>
        <pt x="30" y="29" on="1"/>
        <pt x="97" y="670" on="1"/>
        <pt x="100" y="702" on="0"/>
        <pt x="160" y="702" on="1"/>
        <pt x="195" y="702" on="1"/>
        <pt x="252" y="702" on="0"/>
        <pt x="252" y="671" on="1"/>
        <pt x="185" y="30" on="1"/>
        <pt x="182" y="-2" on="0"/>
      </contour>
      <contour>
        <pt x="152" y="775" on="1"/>
        <pt x="123" y="775" on="0"/>
        <pt x="123" y="788" on="1"/>
        <pt x="123" y="794" on="0"/>
        <pt x="140" y="819" on="0"/>
        <pt x="155" y="841" on="0"/>
        <pt x="185" y="884" on="0"/>
        <pt x="218" y="934" on="0"/>
        <pt x="346" y="934" on="0"/>
        <pt x="346" y="921" on="1"/>
        <pt x="346" y="914" on="0"/>
        <pt x="337" y="903" on="0"/>
        <pt x="265" y="834" on="0"/>
        <pt x="205" y="775" on="0"/>
      </contour>
    </TTGlyph>
    <TTGlyph name="Icircumflex" xMin="30" yMin="-2" xMax="334" yMax="908">
      <contour>
        <pt x="122" y="-2" on="1"/>
        <pt x="87" y="-2" on="1"/>
        <pt x="30" y="-2" on="0"/>
        <pt x="30" y="29" on="1"/>
        <pt x="97" y="670" on="1"/>
        <pt x="100" y="702" on="0"/>
        <pt x="160" y="702" on="1"/>
        <pt x="195" y="702" on="1"/>
        <pt x="252" y="702" on="0"/>
        <pt x="252" y="671" on="1"/>
        <pt x="185" y="30" on="1"/>
        <pt x="182" y="-2" on="0"/>
      </contour>
      <contour>
        <pt x="207" y="908" on="1"/>
        <pt x="218" y="908" on="1"/>
        <pt x="266" y="908" on="0"/>
        <pt x="277" y="889" on="1"/>
        <pt x="331" y="787" on="1"/>
        <pt x="334" y="779" on="0"/>
        <pt x="334" y="775" on="1"/>
        <pt x="334" y="762" on="0"/>
        <pt x="315" y="762" on="1"/>
        <pt x="293" y="762" on="1"/>
        <pt x="244" y="762" on="0"/>
        <pt x="229" y="786" on="1"/>
        <pt x="204" y="826" on="1"/>
        <pt x="173" y="787" on="1"/>
        <pt x="154" y="762" on="0"/>
        <pt x="104" y="762" on="1"/>
        <pt x="80" y="762" on="1"/>
        <pt x="61" y="762" on="0"/>
        <pt x="61" y="772" on="1"/>
        <pt x="61" y="779" on="0"/>
        <pt x="68" y="787" on="1"/>
        <pt x="144" y="889" on="1"/>
        <pt x="158" y="908" on="0"/>
      </contour>
    </TTGlyph>
    <TTGlyph name="Idieresis" xMin="30" yMin="-2" xMax="359" yMax="882">
      <contour>
        <pt x="122" y="-2" on="1"/>
        <pt x="87" y="-2" on="1"/>
        <pt x="30" y="-2" on="0"/>
        <pt x="30" y="29" on="1"/>
        <pt x="97" y="670" on="1"/>
        <pt x="100" y="702" on="0"/>
        <pt x="160" y="702" on="1"/>
        <pt x="195" y="702" on="1"/>
        <pt x="252" y="702" on="0"/>
        <pt x="252" y="671" on="1"/>
        <pt x="185" y="30" on="1"/>
        <pt x="182" y="-2" on="0"/>
      </contour>
      <contour>
        <pt x="239" y="850" on="1"/>
        <pt x="242" y="882" on="0"/>
        <pt x="359" y="882" on="0"/>
        <pt x="359" y="850" on="1"/>
        <pt x="352" y="790" on="1"/>
        <pt x="347" y="758" on="0"/>
        <pt x="232" y="758" on="0"/>
        <pt x="232" y="790" on="1"/>
      </contour>
      <contour>
        <pt x="59" y="850" on="1"/>
        <pt x="62" y="882" on="0"/>
        <pt x="179" y="882" on="0"/>
        <pt x="179" y="850" on="1"/>
        <pt x="172" y="790" on="1"/>
        <pt x="167" y="758" on="0"/>
        <pt x="52" y="758" on="0"/>
        <pt x="52" y="790" on="1"/>
      </contour>
    </TTGlyph>
    <TTGlyph name="Igrave" xMin="30" yMin="-2" xMax="291" yMax="934">
      <contour>
        <pt x="122" y="-2" on="1"/>
        <pt x="87" y="-2" on="1"/>
        <pt x="30" y="-2" on="0"/>
        <pt x="30" y="29" on="1"/>
        <pt x="97" y="670" on="1"/>
        <pt x="100" y="702" on="0"/>
        <pt x="160" y="702" on="1"/>
        <pt x="195" y="702" on="1"/>
        <pt x="252" y="702" on="0"/>
        <pt x="252" y="671" on="1"/>
        <pt x="185" y="30" on="1"/>
        <pt x="182" y="-2" on="0"/>
      </contour>
      <contour>
        <pt x="291" y="791" on="1"/>
        <pt x="291" y="775" on="0"/>
        <pt x="207" y="775" on="0"/>
        <pt x="163" y="829" on="0"/>
        <pt x="94" y="911" on="0"/>
        <pt x="94" y="918" on="1"/>
        <pt x="94" y="934" on="0"/>
        <pt x="225" y="934" on="0"/>
        <pt x="238" y="907" on="1"/>
        <pt x="248" y="886" on="0"/>
        <pt x="267" y="846" on="0"/>
        <pt x="278" y="824" on="0"/>
        <pt x="282" y="814" on="1"/>
        <pt x="291" y="795" on="0"/>
      </contour>
    </TTGlyph>
    <TTGlyph name="J" xMin="-17" yMin="-8" xMax="363" yMax="702">
      <contour>
        <pt x="271" y="702" on="1"/>
        <pt x="306" y="702" on="1"/>
        <pt x="363" y="702" on="0"/>
        <pt x="363" y="671" on="1"/>
        <pt x="313" y="202" on="1"/>
        <pt x="302" y="103" on="0"/>
        <pt x="187" y="-8" on="0"/>
        <pt x="-17" y="-8" on="0"/>
        <pt x="-17" y="35" on="1"/>
        <pt x="-17" y="132" on="0"/>
        <pt x="3" y="132" on="1"/>
        <pt x="5" y="132" on="0"/>
        <pt x="12" y="130" on="1"/>
        <pt x="30" y="123" on="0"/>
        <pt x="111" y="123" on="0"/>
        <pt x="155" y="172" on="0"/>
        <pt x="161" y="227" on="1"/>
        <pt x="208" y="670" on="1"/>
        <pt x="211" y="702" on="0"/>
      </contour>
    </TTGlyph>
    <TTGlyph name="K" xMin="35" yMin="-2" xMax="600" yMax="702">
      <contour>
        <pt x="165" y="702" on="1"/>
        <pt x="200" y="702" on="1"/>
        <pt x="257" y="702" on="0"/>
        <pt x="257" y="670" on="1"/>
        <pt x="229" y="402" on="1"/>
        <pt x="233" y="401" on="1"/>
        <pt x="436" y="683" on="1"/>
        <pt x="450" y="702" on="0"/>
        <pt x="498" y="702" on="1"/>
        <pt x="545" y="702" on="1"/>
        <pt x="600" y="702" on="0"/>
        <pt x="600" y="688" on="1"/>
        <pt x="600" y="679" on="0"/>
        <pt x="590" y="666" on="1"/>
        <pt x="366" y="370" on="1"/>
        <pt x="549" y="34" on="1"/>
        <pt x="555" y="22" on="0"/>
        <pt x="555" y="16" on="1"/>
        <pt x="555" y="-2" on="0"/>
        <pt x="498" y="-2" on="1"/>
        <pt x="440" y="-2" on="1"/>
        <pt x="390" y="-2" on="0"/>
        <pt x="381" y="17" on="1"/>
        <pt x="224" y="321" on="1"/>
        <pt x="220" y="320" on="1"/>
        <pt x="190" y="30" on="1"/>
        <pt x="187" y="-2" on="0"/>
        <pt x="127" y="-2" on="1"/>
        <pt x="92" y="-2" on="1"/>
        <pt x="35" y="-2" on="0"/>
        <pt x="35" y="30" on="1"/>
        <pt x="102" y="670" on="1"/>
        <pt x="105" y="702" on="0"/>
      </contour>
    </TTGlyph>
    <TTGlyph name="L" xMin="36" yMin="0" xMax="450" yMax="702">
      <contour>
        <pt x="166" y="702" on="1"/>
        <pt x="201" y="702" on="1"/>
        <pt x="258" y="702" on="0"/>
        <pt x="258" y="671" on="1"/>
        <pt x="201" y="131" on="1"/>
        <pt x="424" y="131" on="1"/>
        <pt x="450" y="131" on="0"/>
        <pt x="450" y="91" on="1"/>
        <pt x="450" y="0" on="0"/>
        <pt x="412" y="0" on="1"/>
        <pt x="72" y="0" on="1"/>
        <pt x="52" y="0" on="0"/>
        <pt x="36" y="14" on="0"/>
        <pt x="36" y="32" on="1"/>
        <pt x="103" y="670" on="1"/>
        <pt x="106" y="702" on="0"/>
      </contour>
    </TTGlyph>
    <TTGlyph name="Lslash" xMin="20" yMin="0" xMax="451" yMax="702">
      <contour>
        <pt x="29" y="283" on="1"/>
        <pt x="20" y="283" on="0"/>
        <pt x="20" y="303" on="1"/>
        <pt x="20" y="349" on="0"/>
        <pt x="53" y="369" on="1"/>
        <pt x="73" y="381" on="1"/>
        <pt x="104" y="670" on="1"/>
        <pt x="107" y="702" on="0"/>
        <pt x="167" y="702" on="1"/>
        <pt x="202" y="702" on="1"/>
        <pt x="259" y="702" on="0"/>
        <pt x="259" y="671" on="1"/>
        <pt x="238" y="475" on="1"/>
        <pt x="330" y="528" on="1"/>
        <pt x="340" y="534" on="0"/>
        <pt x="346" y="534" on="1"/>
        <pt x="355" y="534" on="0"/>
        <pt x="355" y="514" on="1"/>
        <pt x="355" y="466" on="0"/>
        <pt x="322" y="448" on="1"/>
        <pt x="230" y="395" on="1"/>
        <pt x="202" y="131" on="1"/>
        <pt x="425" y="131" on="1"/>
        <pt x="451" y="131" on="0"/>
        <pt x="451" y="91" on="1"/>
        <pt x="451" y="0" on="0"/>
        <pt x="413" y="0" on="1"/>
        <pt x="73" y="0" on="1"/>
        <pt x="53" y="0" on="0"/>
        <pt x="37" y="14" on="0"/>
        <pt x="37" y="32" on="1"/>
        <pt x="65" y="300" on="1"/>
        <pt x="45" y="289" on="1"/>
        <pt x="35" y="283" on="0"/>
      </contour>
    </TTGlyph>
    <TTGlyph name="M" xMin="41" yMin="-2" xMax="813" yMax="702">
      <contour>
        <pt x="171" y="702" on="1"/>
        <pt x="224" y="702" on="1"/>
        <pt x="273" y="702" on="0"/>
        <pt x="285" y="675" on="1"/>
        <pt x="428" y="362" on="1"/>
        <pt x="639" y="675" on="1"/>
        <pt x="657" y="702" on="0"/>
        <pt x="704" y="702" on="1"/>
        <pt x="756" y="702" on="1"/>
        <pt x="813" y="702" on="0"/>
        <pt x="813" y="670" on="1"/>
        <pt x="746" y="30" on="1"/>
        <pt x="743" y="-2" on="0"/>
        <pt x="683" y="-2" on="1"/>
        <pt x="654" y="-2" on="1"/>
        <pt x="597" y="-2" on="0"/>
        <pt x="597" y="30" on="1"/>
        <pt x="640" y="444" on="1"/>
        <pt x="636" y="445" on="1"/>
        <pt x="464" y="186" on="1"/>
        <pt x="448" y="167" on="0"/>
        <pt x="422" y="167" on="1"/>
        <pt x="393" y="167" on="1"/>
        <pt x="368" y="167" on="0"/>
        <pt x="355" y="186" on="1"/>
        <pt x="237" y="445" on="1"/>
        <pt x="233" y="444" on="1"/>
        <pt x="190" y="30" on="1"/>
        <pt x="187" y="-2" on="0"/>
        <pt x="127" y="-2" on="1"/>
        <pt x="98" y="-2" on="1"/>
        <pt x="41" y="-2" on="0"/>
        <pt x="41" y="30" on="1"/>
        <pt x="108" y="670" on="1"/>
        <pt x="111" y="702" on="0"/>
      </contour>
    </TTGlyph>
    <TTGlyph name="N" xMin="35" yMin="-2" xMax="683" yMax="702">
      <contour>
        <pt x="165" y="702" on="1"/>
        <pt x="208" y="702" on="1"/>
        <pt x="257" y="702" on="0"/>
        <pt x="272" y="675" on="1"/>
        <pt x="492" y="270" on="1"/>
        <pt x="534" y="670" on="1"/>
        <pt x="537" y="702" on="0"/>
        <pt x="597" y="702" on="1"/>
        <pt x="626" y="702" on="1"/>
        <pt x="683" y="702" on="0"/>
        <pt x="683" y="670" on="1"/>
        <pt x="616" y="30" on="1"/>
        <pt x="613" y="-2" on="0"/>
        <pt x="553" y="-2" on="1"/>
        <pt x="515" y="-2" on="1"/>
        <pt x="466" y="-2" on="0"/>
        <pt x="451" y="25" on="1"/>
        <pt x="226" y="435" on="1"/>
        <pt x="184" y="30" on="1"/>
        <pt x="181" y="-2" on="0"/>
        <pt x="121" y="-2" on="1"/>
        <pt x="92" y="-2" on="1"/>
        <pt x="35" y="-2" on="0"/>
        <pt x="35" y="30" on="1"/>
        <pt x="102" y="670" on="1"/>
        <pt x="105" y="702" on="0"/>
      </contour>
    </TTGlyph>
    <TTGlyph name="Ntilde" xMin="35" yMin="-2" xMax="683" yMax="887">
      <contour>
        <pt x="165" y="702" on="1"/>
        <pt x="208" y="702" on="1"/>
        <pt x="257" y="702" on="0"/>
        <pt x="272" y="675" on="1"/>
        <pt x="492" y="270" on="1"/>
        <pt x="534" y="670" on="1"/>
        <pt x="537" y="702" on="0"/>
        <pt x="597" y="702" on="1"/>
        <pt x="626" y="702" on="1"/>
        <pt x="683" y="702" on="0"/>
        <pt x="683" y="670" on="1"/>
        <pt x="616" y="30" on="1"/>
        <pt x="613" y="-2" on="0"/>
        <pt x="553" y="-2" on="1"/>
        <pt x="515" y="-2" on="1"/>
        <pt x="466" y="-2" on="0"/>
        <pt x="451" y="25" on="1"/>
        <pt x="226" y="435" on="1"/>
        <pt x="184" y="30" on="1"/>
        <pt x="181" y="-2" on="0"/>
        <pt x="121" y="-2" on="1"/>
        <pt x="92" y="-2" on="1"/>
        <pt x="35" y="-2" on="0"/>
        <pt x="35" y="30" on="1"/>
        <pt x="102" y="670" on="1"/>
        <pt x="105" y="702" on="0"/>
      </contour>
      <contour>
        <pt x="339" y="794" on="0"/>
        <pt x="307" y="783" on="0"/>
        <pt x="287" y="783" on="0"/>
        <pt x="260" y="811" on="0"/>
        <pt x="260" y="849" on="0"/>
        <pt x="328" y="887" on="0"/>
        <pt x="396" y="887" on="0"/>
        <pt x="472" y="870" on="0"/>
        <pt x="499" y="870" on="0"/>
        <pt x="533" y="881" on="0"/>
        <pt x="554" y="881" on="0"/>
        <pt x="580" y="852" on="0"/>
        <pt x="580" y="814" on="0"/>
        <pt x="512" y="775" on="0"/>
        <pt x="443" y="775" on="0"/>
        <pt x="366" y="794" on="0"/>
      </contour>
    </TTGlyph>
    <TTGlyph name="O" xMin="41" yMin="-8" xMax="689" yMax="708">
      <contour>
        <pt x="41" y="284" on="1"/>
        <pt x="41" y="455" on="0"/>
        <pt x="122" y="575" on="1"/>
        <pt x="164" y="636" on="0"/>
        <pt x="308" y="708" on="0"/>
        <pt x="403" y="708" on="1"/>
        <pt x="542" y="708" on="0"/>
        <pt x="689" y="557" on="0"/>
        <pt x="689" y="414" on="1"/>
        <pt x="689" y="210" on="0"/>
        <pt x="503" y="-8" on="0"/>
        <pt x="328" y="-8" on="1"/>
        <pt x="189" y="-8" on="0"/>
        <pt x="41" y="142" on="0"/>
      </contour>
      <contour>
        <pt x="342" y="123" on="1"/>
        <pt x="429" y="123" on="0"/>
        <pt x="531" y="268" on="0"/>
        <pt x="531" y="400" on="1"/>
        <pt x="531" y="576" on="0"/>
        <pt x="389" y="576" on="1"/>
        <pt x="301" y="576" on="0"/>
        <pt x="200" y="431" on="0"/>
        <pt x="200" y="298" on="1"/>
        <pt x="200" y="123" on="0"/>
      </contour>
    </TTGlyph>
    <TTGlyph name="OE" xMin="41" yMin="-8" xMax="997" yMax="708">
      <contour>
        <pt x="605" y="700" on="1"/>
        <pt x="971" y="700" on="1"/>
        <pt x="997" y="700" on="0"/>
        <pt x="997" y="660" on="1"/>
        <pt x="997" y="569" on="0"/>
        <pt x="959" y="569" on="1"/>
        <pt x="707" y="569" on="1"/>
        <pt x="691" y="424" on="1"/>
        <pt x="915" y="424" on="1"/>
        <pt x="941" y="424" on="0"/>
        <pt x="941" y="384" on="1"/>
        <pt x="941" y="293" on="0"/>
        <pt x="903" y="293" on="1"/>
        <pt x="678" y="293" on="1"/>
        <pt x="660" y="131" on="1"/>
        <pt x="912" y="131" on="1"/>
        <pt x="938" y="131" on="0"/>
        <pt x="938" y="91" on="1"/>
        <pt x="938" y="0" on="0"/>
        <pt x="900" y="0" on="1"/>
        <pt x="532" y="0" on="1"/>
        <pt x="512" y="0" on="0"/>
        <pt x="496" y="14" on="0"/>
        <pt x="496" y="32" on="1"/>
        <pt x="496" y="36" on="1"/>
        <pt x="418" y="-8" on="0"/>
        <pt x="318" y="-8" on="1"/>
        <pt x="183" y="-8" on="0"/>
        <pt x="41" y="141" on="0"/>
        <pt x="41" y="282" on="1"/>
        <pt x="41" y="485" on="0"/>
        <pt x="230" y="708" on="0"/>
        <pt x="393" y="708" on="1"/>
        <pt x="494" y="708" on="0"/>
        <pt x="561" y="662" on="1"/>
        <pt x="565" y="700" on="0"/>
      </contour>
      <contour>
        <pt x="342" y="123" on="1"/>
        <pt x="429" y="123" on="0"/>
        <pt x="531" y="268" on="0"/>
        <pt x="531" y="400" on="1"/>
        <pt x="531" y="576" on="0"/>
        <pt x="389" y="576" on="1"/>
        <pt x="301" y="576" on="0"/>
        <pt x="200" y="431" on="0"/>
        <pt x="200" y="298" on="1"/>
        <pt x="200" y="123" on="0"/>
      </contour>
    </TTGlyph>
    <TTGlyph name="Oacute" xMin="41" yMin="-8" xMax="689" yMax="934">
      <contour>
        <pt x="41" y="284" on="1"/>
        <pt x="41" y="455" on="0"/>
        <pt x="122" y="575" on="1"/>
        <pt x="164" y="636" on="0"/>
        <pt x="308" y="708" on="0"/>
        <pt x="403" y="708" on="1"/>
        <pt x="542" y="708" on="0"/>
        <pt x="689" y="557" on="0"/>
        <pt x="689" y="414" on="1"/>
        <pt x="689" y="210" on="0"/>
        <pt x="503" y="-8" on="0"/>
        <pt x="328" y="-8" on="1"/>
        <pt x="189" y="-8" on="0"/>
        <pt x="41" y="142" on="0"/>
      </contour>
      <contour>
        <pt x="342" y="123" on="1"/>
        <pt x="429" y="123" on="0"/>
        <pt x="531" y="268" on="0"/>
        <pt x="531" y="400" on="1"/>
        <pt x="531" y="576" on="0"/>
        <pt x="389" y="576" on="1"/>
        <pt x="301" y="576" on="0"/>
        <pt x="200" y="431" on="0"/>
        <pt x="200" y="298" on="1"/>
        <pt x="200" y="123" on="0"/>
      </contour>
      <contour>
        <pt x="371" y="775" on="1"/>
        <pt x="342" y="775" on="0"/>
        <pt x="342" y="788" on="1"/>
        <pt x="342" y="794" on="0"/>
        <pt x="359" y="819" on="0"/>
        <pt x="374" y="841" on="0"/>
        <pt x="404" y="884" on="0"/>
        <pt x="437" y="934" on="0"/>
        <pt x="565" y="934" on="0"/>
        <pt x="565" y="921" on="1"/>
        <pt x="565" y="914" on="0"/>
        <pt x="556" y="903" on="0"/>
        <pt x="484" y="834" on="0"/>
        <pt x="424" y="775" on="0"/>
      </contour>
    </TTGlyph>
    <TTGlyph name="Ocircumflex" xMin="41" yMin="-8" xMax="689" yMax="908">
      <contour>
        <pt x="41" y="284" on="1"/>
        <pt x="41" y="455" on="0"/>
        <pt x="122" y="575" on="1"/>
        <pt x="164" y="636" on="0"/>
        <pt x="308" y="708" on="0"/>
        <pt x="403" y="708" on="1"/>
        <pt x="542" y="708" on="0"/>
        <pt x="689" y="557" on="0"/>
        <pt x="689" y="414" on="1"/>
        <pt x="689" y="210" on="0"/>
        <pt x="503" y="-8" on="0"/>
        <pt x="328" y="-8" on="1"/>
        <pt x="189" y="-8" on="0"/>
        <pt x="41" y="142" on="0"/>
      </contour>
      <contour>
        <pt x="342" y="123" on="1"/>
        <pt x="429" y="123" on="0"/>
        <pt x="531" y="268" on="0"/>
        <pt x="531" y="400" on="1"/>
        <pt x="531" y="576" on="0"/>
        <pt x="389" y="576" on="1"/>
        <pt x="301" y="576" on="0"/>
        <pt x="200" y="431" on="0"/>
        <pt x="200" y="298" on="1"/>
        <pt x="200" y="123" on="0"/>
      </contour>
      <contour>
        <pt x="426" y="908" on="1"/>
        <pt x="437" y="908" on="1"/>
        <pt x="485" y="908" on="0"/>
        <pt x="496" y="889" on="1"/>
        <pt x="550" y="787" on="1"/>
        <pt x="553" y="779" on="0"/>
        <pt x="553" y="775" on="1"/>
        <pt x="553" y="762" on="0"/>
        <pt x="534" y="762" on="1"/>
        <pt x="512" y="762" on="1"/>
        <pt x="463" y="762" on="0"/>
        <pt x="448" y="786" on="1"/>
        <pt x="423" y="826" on="1"/>
        <pt x="392" y="787" on="1"/>
        <pt x="373" y="762" on="0"/>
        <pt x="323" y="762" on="1"/>
        <pt x="299" y="762" on="1"/>
        <pt x="280" y="762" on="0"/>
        <pt x="280" y="772" on="1"/>
        <pt x="280" y="779" on="0"/>
        <pt x="287" y="787" on="1"/>
        <pt x="363" y="889" on="1"/>
        <pt x="377" y="908" on="0"/>
      </contour>
    </TTGlyph>
    <TTGlyph name="Odieresis" xMin="41" yMin="-8" xMax="689" yMax="882">
      <contour>
        <pt x="41" y="284" on="1"/>
        <pt x="41" y="455" on="0"/>
        <pt x="122" y="575" on="1"/>
        <pt x="164" y="636" on="0"/>
        <pt x="308" y="708" on="0"/>
        <pt x="403" y="708" on="1"/>
        <pt x="542" y="708" on="0"/>
        <pt x="689" y="557" on="0"/>
        <pt x="689" y="414" on="1"/>
        <pt x="689" y="210" on="0"/>
        <pt x="503" y="-8" on="0"/>
        <pt x="328" y="-8" on="1"/>
        <pt x="189" y="-8" on="0"/>
        <pt x="41" y="142" on="0"/>
      </contour>
      <contour>
        <pt x="342" y="123" on="1"/>
        <pt x="429" y="123" on="0"/>
        <pt x="531" y="268" on="0"/>
        <pt x="531" y="400" on="1"/>
        <pt x="531" y="576" on="0"/>
        <pt x="389" y="576" on="1"/>
        <pt x="301" y="576" on="0"/>
        <pt x="200" y="431" on="0"/>
        <pt x="200" y="298" on="1"/>
        <pt x="200" y="123" on="0"/>
      </contour>
      <contour>
        <pt x="458" y="850" on="1"/>
        <pt x="461" y="882" on="0"/>
        <pt x="578" y="882" on="0"/>
        <pt x="578" y="850" on="1"/>
        <pt x="571" y="790" on="1"/>
        <pt x="566" y="758" on="0"/>
        <pt x="451" y="758" on="0"/>
        <pt x="451" y="790" on="1"/>
      </contour>
      <contour>
        <pt x="278" y="850" on="1"/>
        <pt x="281" y="882" on="0"/>
        <pt x="398" y="882" on="0"/>
        <pt x="398" y="850" on="1"/>
        <pt x="391" y="790" on="1"/>
        <pt x="386" y="758" on="0"/>
        <pt x="271" y="758" on="0"/>
        <pt x="271" y="790" on="1"/>
      </contour>
    </TTGlyph>
    <TTGlyph name="Ograve" xMin="41" yMin="-8" xMax="689" yMax="934">
      <contour>
        <pt x="41" y="284" on="1"/>
        <pt x="41" y="455" on="0"/>
        <pt x="122" y="575" on="1"/>
        <pt x="164" y="636" on="0"/>
        <pt x="308" y="708" on="0"/>
        <pt x="403" y="708" on="1"/>
        <pt x="542" y="708" on="0"/>
        <pt x="689" y="557" on="0"/>
        <pt x="689" y="414" on="1"/>
        <pt x="689" y="210" on="0"/>
        <pt x="503" y="-8" on="0"/>
        <pt x="328" y="-8" on="1"/>
        <pt x="189" y="-8" on="0"/>
        <pt x="41" y="142" on="0"/>
      </contour>
      <contour>
        <pt x="342" y="123" on="1"/>
        <pt x="429" y="123" on="0"/>
        <pt x="531" y="268" on="0"/>
        <pt x="531" y="400" on="1"/>
        <pt x="531" y="576" on="0"/>
        <pt x="389" y="576" on="1"/>
        <pt x="301" y="576" on="0"/>
        <pt x="200" y="431" on="0"/>
        <pt x="200" y="298" on="1"/>
        <pt x="200" y="123" on="0"/>
      </contour>
      <contour>
        <pt x="510" y="791" on="1"/>
        <pt x="510" y="775" on="0"/>
        <pt x="426" y="775" on="0"/>
        <pt x="382" y="829" on="0"/>
        <pt x="325" y="896" on="0"/>
        <pt x="313" y="913" on="0"/>
        <pt x="313" y="918" on="1"/>
        <pt x="313" y="934" on="0"/>
        <pt x="444" y="934" on="0"/>
        <pt x="457" y="907" on="1"/>
        <pt x="467" y="886" on="0"/>
        <pt x="486" y="846" on="0"/>
        <pt x="497" y="824" on="0"/>
        <pt x="502" y="814" on="1"/>
        <pt x="510" y="795" on="0"/>
      </contour>
    </TTGlyph>
    <TTGlyph name="Omega" xMin="-6" yMin="0" xMax="690" yMax="708">
      <contour>
        <pt x="389" y="576" on="1"/>
        <pt x="299" y="576" on="0"/>
        <pt x="198" y="427" on="0"/>
        <pt x="198" y="140" on="0"/>
        <pt x="293" y="110" on="1"/>
        <pt x="304" y="106" on="0"/>
        <pt x="304" y="90" on="1"/>
        <pt x="304" y="0" on="0"/>
        <pt x="265" y="0" on="1"/>
        <pt x="18" y="0" on="1"/>
        <pt x="-6" y="0" on="0"/>
        <pt x="-6" y="67" on="0"/>
        <pt x="12" y="131" on="0"/>
        <pt x="32" y="131" on="1"/>
        <pt x="62" y="131" on="0"/>
        <pt x="100" y="118" on="1"/>
        <pt x="112" y="113" on="1"/>
        <pt x="42" y="192" on="0"/>
        <pt x="42" y="314" on="1"/>
        <pt x="42" y="500" on="0"/>
        <pt x="240" y="708" on="0"/>
        <pt x="403" y="708" on="1"/>
        <pt x="542" y="708" on="0"/>
        <pt x="690" y="561" on="0"/>
        <pt x="690" y="422" on="1"/>
        <pt x="690" y="222" on="0"/>
        <pt x="568" y="113" on="1"/>
        <pt x="619" y="131" on="0"/>
        <pt x="652" y="131" on="1"/>
        <pt x="678" y="131" on="0"/>
        <pt x="678" y="95" on="1"/>
        <pt x="678" y="0" on="0"/>
        <pt x="638" y="0" on="1"/>
        <pt x="391" y="0" on="1"/>
        <pt x="366" y="0" on="0"/>
        <pt x="366" y="33" on="1"/>
        <pt x="366" y="104" on="0"/>
        <pt x="387" y="110" on="1"/>
        <pt x="450" y="128" on="0"/>
        <pt x="531" y="278" on="0"/>
        <pt x="531" y="402" on="1"/>
        <pt x="531" y="576" on="0"/>
      </contour>
    </TTGlyph>
    <TTGlyph name="Oslash" xMin="19" yMin="-12" xMax="689" yMax="724">
      <contour>
        <pt x="80" y="112" on="1"/>
        <pt x="41" y="180" on="0"/>
        <pt x="41" y="367" on="0"/>
        <pt x="81" y="514" on="0"/>
        <pt x="164" y="636" on="0"/>
        <pt x="308" y="708" on="0"/>
        <pt x="506" y="708" on="0"/>
        <pt x="572" y="666" on="1"/>
        <pt x="612" y="712" on="1"/>
        <pt x="622" y="724" on="0"/>
        <pt x="644" y="724" on="0"/>
        <pt x="654" y="714" on="1"/>
        <pt x="670" y="700" on="1"/>
        <pt x="682" y="690" on="0"/>
        <pt x="682" y="668" on="0"/>
        <pt x="672" y="658" on="1"/>
        <pt x="632" y="613" on="1"/>
        <pt x="689" y="539" on="0"/>
        <pt x="689" y="414" on="1"/>
        <pt x="689" y="210" on="0"/>
        <pt x="503" y="-8" on="0"/>
        <pt x="328" y="-8" on="1"/>
        <pt x="205" y="-8" on="0"/>
        <pt x="133" y="50" on="1"/>
        <pt x="89" y="0" on="1"/>
        <pt x="78" y="-12" on="0"/>
        <pt x="57" y="-12" on="0"/>
        <pt x="47" y="-2" on="1"/>
        <pt x="31" y="12" on="1"/>
        <pt x="19" y="23" on="0"/>
        <pt x="19" y="44" on="0"/>
        <pt x="29" y="54" on="1"/>
      </contour>
      <contour>
        <pt x="200" y="298" on="1"/>
        <pt x="200" y="272" on="0"/>
        <pt x="203" y="250" on="1"/>
        <pt x="471" y="553" on="1"/>
        <pt x="439" y="576" on="0"/>
        <pt x="389" y="576" on="1"/>
        <pt x="301" y="576" on="0"/>
        <pt x="200" y="431" on="0"/>
      </contour>
      <contour>
        <pt x="342" y="123" on="1"/>
        <pt x="429" y="123" on="0"/>
        <pt x="531" y="268" on="0"/>
        <pt x="531" y="400" on="1"/>
        <pt x="531" y="449" on="0"/>
        <pt x="519" y="485" on="1"/>
        <pt x="236" y="167" on="1"/>
        <pt x="272" y="123" on="0"/>
      </contour>
    </TTGlyph>
    <TTGlyph name="Otilde" xMin="41" yMin="-8" xMax="689" yMax="887">
      <contour>
        <pt x="41" y="284" on="1"/>
        <pt x="41" y="455" on="0"/>
        <pt x="122" y="575" on="1"/>
        <pt x="164" y="636" on="0"/>
        <pt x="308" y="708" on="0"/>
        <pt x="403" y="708" on="1"/>
        <pt x="542" y="708" on="0"/>
        <pt x="689" y="557" on="0"/>
        <pt x="689" y="414" on="1"/>
        <pt x="689" y="210" on="0"/>
        <pt x="503" y="-8" on="0"/>
        <pt x="328" y="-8" on="1"/>
        <pt x="189" y="-8" on="0"/>
        <pt x="41" y="142" on="0"/>
      </contour>
      <contour>
        <pt x="342" y="123" on="1"/>
        <pt x="429" y="123" on="0"/>
        <pt x="531" y="268" on="0"/>
        <pt x="531" y="400" on="1"/>
        <pt x="531" y="576" on="0"/>
        <pt x="389" y="576" on="1"/>
        <pt x="301" y="576" on="0"/>
        <pt x="200" y="431" on="0"/>
        <pt x="200" y="298" on="1"/>
        <pt x="200" y="123" on="0"/>
      </contour>
      <contour>
        <pt x="344" y="794" on="0"/>
        <pt x="312" y="783" on="0"/>
        <pt x="292" y="783" on="0"/>
        <pt x="265" y="811" on="0"/>
        <pt x="265" y="849" on="0"/>
        <pt x="333" y="887" on="0"/>
        <pt x="401" y="887" on="0"/>
        <pt x="477" y="870" on="0"/>
        <pt x="504" y="870" on="0"/>
        <pt x="538" y="881" on="0"/>
        <pt x="559" y="881" on="0"/>
        <pt x="585" y="852" on="0"/>
        <pt x="585" y="814" on="0"/>
        <pt x="517" y="775" on="0"/>
        <pt x="448" y="775" on="0"/>
        <pt x="371" y="794" on="0"/>
      </contour>
    </TTGlyph>
    <TTGlyph name="P" xMin="34" yMin="-2" xMax="578" yMax="700">
      <contour>
        <pt x="144" y="700" on="1"/>
        <pt x="361" y="700" on="1"/>
        <pt x="469" y="700" on="0"/>
        <pt x="526" y="651" on="1"/>
        <pt x="548" y="632" on="0"/>
        <pt x="578" y="563" on="0"/>
        <pt x="578" y="453" on="0"/>
        <pt x="537" y="355" on="0"/>
        <pt x="481" y="303" on="0"/>
        <pt x="443" y="287" on="1"/>
        <pt x="384" y="262" on="0"/>
        <pt x="325" y="262" on="1"/>
        <pt x="212" y="262" on="1"/>
        <pt x="188" y="30" on="1"/>
        <pt x="185" y="-2" on="0"/>
        <pt x="125" y="-2" on="1"/>
        <pt x="91" y="-2" on="1"/>
        <pt x="34" y="-2" on="0"/>
        <pt x="34" y="30" on="1"/>
        <pt x="100" y="660" on="1"/>
        <pt x="104" y="700" on="0"/>
      </contour>
      <contour>
        <pt x="322" y="394" on="1"/>
        <pt x="361" y="394" on="0"/>
        <pt x="419" y="439" on="0"/>
        <pt x="419" y="536" on="0"/>
        <pt x="373" y="569" on="0"/>
        <pt x="341" y="569" on="1"/>
        <pt x="245" y="569" on="1"/>
        <pt x="226" y="394" on="1"/>
      </contour>
    </TTGlyph>
    <TTGlyph name="Q" xMin="41" yMin="-162" xMax="689" yMax="708">
      <contour>
        <pt x="404" y="708" on="1"/>
        <pt x="543" y="708" on="0"/>
        <pt x="689" y="557" on="0"/>
        <pt x="689" y="273" on="0"/>
        <pt x="586" y="75" on="0"/>
        <pt x="496" y="31" on="1"/>
        <pt x="495" y="27" on="1"/>
        <pt x="637" y="-27" on="1"/>
        <pt x="654" y="-34" on="0"/>
        <pt x="654" y="-54" on="1"/>
        <pt x="654" y="-162" on="0"/>
        <pt x="625" y="-162" on="1"/>
        <pt x="619" y="-162" on="0"/>
        <pt x="265" y="-14" on="0"/>
        <pt x="192" y="16" on="1"/>
        <pt x="43" y="78" on="0"/>
        <pt x="41" y="286" on="1"/>
        <pt x="41" y="457" on="0"/>
        <pt x="124" y="576" on="1"/>
        <pt x="166" y="637" on="0"/>
        <pt x="310" y="708" on="0"/>
      </contour>
      <contour>
        <pt x="342" y="119" on="1"/>
        <pt x="430" y="119" on="0"/>
        <pt x="531" y="267" on="0"/>
        <pt x="531" y="403" on="1"/>
        <pt x="531" y="576" on="0"/>
        <pt x="390" y="576" on="1"/>
        <pt x="302" y="576" on="0"/>
        <pt x="200" y="430" on="0"/>
        <pt x="200" y="297" on="1"/>
        <pt x="200" y="119" on="0"/>
      </contour>
    </TTGlyph>
    <TTGlyph name="R" xMin="35" yMin="-2" xMax="571" yMax="700">
      <contour>
        <pt x="145" y="700" on="1"/>
        <pt x="340" y="700" on="1"/>
        <pt x="571" y="700" on="0"/>
        <pt x="571" y="537" on="1"/>
        <pt x="571" y="471" on="0"/>
        <pt x="498" y="375" on="0"/>
        <pt x="436" y="353" on="1"/>
        <pt x="436" y="349" on="1"/>
        <pt x="453" y="342" on="0"/>
        <pt x="488" y="289" on="0"/>
        <pt x="498" y="257" on="1"/>
        <pt x="563" y="37" on="1"/>
        <pt x="566" y="25" on="0"/>
        <pt x="566" y="18" on="1"/>
        <pt x="563" y="-2" on="0"/>
        <pt x="504" y="-2" on="1"/>
        <pt x="463" y="-2" on="1"/>
        <pt x="414" y="-2" on="0"/>
        <pt x="407" y="19" on="1"/>
        <pt x="348" y="214" on="1"/>
        <pt x="336" y="247" on="0"/>
        <pt x="300" y="274" on="0"/>
        <pt x="254" y="274" on="1"/>
        <pt x="215" y="274" on="1"/>
        <pt x="189" y="30" on="1"/>
        <pt x="186" y="-2" on="0"/>
        <pt x="126" y="-2" on="1"/>
        <pt x="92" y="-2" on="1"/>
        <pt x="35" y="-2" on="0"/>
        <pt x="35" y="30" on="1"/>
        <pt x="101" y="660" on="1"/>
        <pt x="105" y="700" on="0"/>
      </contour>
      <contour>
        <pt x="324" y="407" on="1"/>
        <pt x="357" y="407" on="0"/>
        <pt x="410" y="463" on="0"/>
        <pt x="410" y="533" on="0"/>
        <pt x="370" y="569" on="0"/>
        <pt x="334" y="569" on="1"/>
        <pt x="246" y="569" on="1"/>
        <pt x="229" y="407" on="1"/>
      </contour>
    </TTGlyph>
    <TTGlyph name="S" xMin="26" yMin="-8" xMax="482" yMax="708">
      <contour>
        <pt x="172" y="685" on="0"/>
        <pt x="260" y="708" on="0"/>
        <pt x="383" y="708" on="0"/>
        <pt x="482" y="666" on="0"/>
        <pt x="482" y="640" on="1"/>
        <pt x="482" y="619" on="0"/>
        <pt x="435" y="551" on="0"/>
        <pt x="418" y="551" on="1"/>
        <pt x="414" y="551" on="0"/>
        <pt x="400" y="558" on="1"/>
        <pt x="362" y="576" on="0"/>
        <pt x="278" y="576" on="0"/>
        <pt x="236" y="562" on="0"/>
        <pt x="226" y="551" on="1"/>
        <pt x="210" y="532" on="0"/>
        <pt x="210" y="483" on="0"/>
        <pt x="263" y="444" on="0"/>
        <pt x="339" y="413" on="0"/>
        <pt x="415" y="374" on="0"/>
        <pt x="468" y="296" on="0"/>
        <pt x="468" y="183" on="0"/>
        <pt x="437" y="94" on="0"/>
        <pt x="388" y="40" on="0"/>
        <pt x="354" y="22" on="1"/>
        <pt x="295" y="-8" on="0"/>
        <pt x="218" y="-8" on="1"/>
        <pt x="125" y="-8" on="0"/>
        <pt x="62" y="24" on="1"/>
        <pt x="26" y="43" on="0"/>
        <pt x="26" y="70" on="1"/>
        <pt x="26" y="181" on="0"/>
        <pt x="52" y="181" on="1"/>
        <pt x="57" y="181" on="0"/>
        <pt x="78" y="166" on="1"/>
        <pt x="139" y="123" on="0"/>
        <pt x="206" y="123" on="1"/>
        <pt x="247" y="123" on="0"/>
        <pt x="307" y="159" on="0"/>
        <pt x="307" y="203" on="1"/>
        <pt x="307" y="227" on="0"/>
        <pt x="269" y="265" on="0"/>
        <pt x="211" y="287" on="0"/>
        <pt x="145" y="321" on="0"/>
        <pt x="87" y="358" on="0"/>
        <pt x="49" y="428" on="0"/>
        <pt x="49" y="539" on="0"/>
        <pt x="95" y="634" on="0"/>
      </contour>
    </TTGlyph>
    <TTGlyph name="Scaron" xMin="26" yMin="-8" xMax="482" yMax="931">
      <contour>
        <pt x="172" y="685" on="0"/>
        <pt x="260" y="708" on="0"/>
        <pt x="383" y="708" on="0"/>
        <pt x="482" y="666" on="0"/>
        <pt x="482" y="640" on="1"/>
        <pt x="482" y="619" on="0"/>
        <pt x="435" y="551" on="0"/>
        <pt x="418" y="551" on="1"/>
        <pt x="414" y="551" on="0"/>
        <pt x="400" y="558" on="1"/>
        <pt x="362" y="576" on="0"/>
        <pt x="278" y="576" on="0"/>
        <pt x="236" y="562" on="0"/>
        <pt x="226" y="551" on="1"/>
        <pt x="210" y="532" on="0"/>
        <pt x="210" y="483" on="0"/>
        <pt x="263" y="444" on="0"/>
        <pt x="339" y="413" on="0"/>
        <pt x="415" y="374" on="0"/>
        <pt x="468" y="296" on="0"/>
        <pt x="468" y="183" on="0"/>
        <pt x="437" y="94" on="0"/>
        <pt x="388" y="40" on="0"/>
        <pt x="354" y="22" on="1"/>
        <pt x="295" y="-8" on="0"/>
        <pt x="218" y="-8" on="1"/>
        <pt x="125" y="-8" on="0"/>
        <pt x="62" y="24" on="1"/>
        <pt x="26" y="43" on="0"/>
        <pt x="26" y="70" on="1"/>
        <pt x="26" y="181" on="0"/>
        <pt x="52" y="181" on="1"/>
        <pt x="57" y="181" on="0"/>
        <pt x="78" y="166" on="1"/>
        <pt x="139" y="123" on="0"/>
        <pt x="206" y="123" on="1"/>
        <pt x="247" y="123" on="0"/>
        <pt x="307" y="159" on="0"/>
        <pt x="307" y="203" on="1"/>
        <pt x="307" y="227" on="0"/>
        <pt x="269" y="265" on="0"/>
        <pt x="211" y="287" on="0"/>
        <pt x="145" y="321" on="0"/>
        <pt x="87" y="358" on="0"/>
        <pt x="49" y="428" on="0"/>
        <pt x="49" y="539" on="0"/>
        <pt x="95" y="634" on="0"/>
      </contour>
      <contour>
        <pt x="313" y="785" on="1"/>
        <pt x="302" y="785" on="1"/>
        <pt x="254" y="785" on="0"/>
        <pt x="243" y="804" on="1"/>
        <pt x="189" y="906" on="1"/>
        <pt x="186" y="914" on="0"/>
        <pt x="186" y="918" on="1"/>
        <pt x="186" y="931" on="0"/>
        <pt x="205" y="931" on="1"/>
        <pt x="227" y="931" on="1"/>
        <pt x="275" y="931" on="0"/>
        <pt x="291" y="907" on="1"/>
        <pt x="316" y="867" on="1"/>
        <pt x="347" y="906" on="1"/>
        <pt x="365" y="929" on="0"/>
        <pt x="416" y="931" on="1"/>
        <pt x="440" y="931" on="1"/>
        <pt x="459" y="931" on="0"/>
        <pt x="459" y="921" on="1"/>
        <pt x="459" y="914" on="0"/>
        <pt x="452" y="906" on="1"/>
        <pt x="376" y="804" on="1"/>
        <pt x="362" y="785" on="0"/>
      </contour>
    </TTGlyph>
    <TTGlyph name="T" xMin="34" yMin="-2" xMax="572" yMax="700">
      <contour>
        <pt x="72" y="700" on="1"/>
        <pt x="546" y="700" on="1"/>
        <pt x="572" y="700" on="0"/>
        <pt x="572" y="660" on="1"/>
        <pt x="572" y="569" on="0"/>
        <pt x="534" y="569" on="1"/>
        <pt x="374" y="569" on="1"/>
        <pt x="317" y="30" on="1"/>
        <pt x="314" y="-2" on="0"/>
        <pt x="254" y="-2" on="1"/>
        <pt x="219" y="-2" on="1"/>
        <pt x="162" y="-2" on="0"/>
        <pt x="162" y="29" on="1"/>
        <pt x="219" y="569" on="1"/>
        <pt x="60" y="569" on="1"/>
        <pt x="34" y="569" on="0"/>
        <pt x="34" y="609" on="1"/>
        <pt x="34" y="700" on="0"/>
      </contour>
    </TTGlyph>
    <TTGlyph name="Thorn" xMin="34" yMin="-2" xMax="567" yMax="702">
      <contour>
        <pt x="164" y="702" on="1"/>
        <pt x="198" y="702" on="1"/>
        <pt x="255" y="702" on="0"/>
        <pt x="255" y="670" on="1"/>
        <pt x="247" y="593" on="1"/>
        <pt x="350" y="593" on="1"/>
        <pt x="459" y="593" on="0"/>
        <pt x="515" y="544" on="1"/>
        <pt x="537" y="524" on="0"/>
        <pt x="567" y="454" on="0"/>
        <pt x="567" y="345" on="0"/>
        <pt x="524" y="248" on="0"/>
        <pt x="465" y="196" on="0"/>
        <pt x="427" y="180" on="1"/>
        <pt x="368" y="155" on="0"/>
        <pt x="314" y="155" on="1"/>
        <pt x="201" y="155" on="1"/>
        <pt x="188" y="30" on="1"/>
        <pt x="185" y="-2" on="0"/>
        <pt x="125" y="-2" on="1"/>
        <pt x="91" y="-2" on="1"/>
        <pt x="34" y="-2" on="0"/>
        <pt x="34" y="30" on="1"/>
        <pt x="101" y="670" on="1"/>
        <pt x="104" y="702" on="0"/>
      </contour>
      <contour>
        <pt x="311" y="287" on="1"/>
        <pt x="349" y="287" on="0"/>
        <pt x="408" y="332" on="0"/>
        <pt x="408" y="429" on="0"/>
        <pt x="361" y="462" on="0"/>
        <pt x="329" y="462" on="1"/>
        <pt x="233" y="462" on="1"/>
        <pt x="215" y="287" on="1"/>
      </contour>
    </TTGlyph>
    <TTGlyph name="U" xMin="51" yMin="-8" xMax="678" yMax="702">
      <contour>
        <pt x="162" y="702" on="1"/>
        <pt x="196" y="702" on="1"/>
        <pt x="252" y="702" on="0"/>
        <pt x="252" y="670" on="1"/>
        <pt x="207" y="239" on="0"/>
        <pt x="207" y="229" on="1"/>
        <pt x="207" y="182" on="0"/>
        <pt x="275" y="123" on="0"/>
        <pt x="391" y="123" on="0"/>
        <pt x="476" y="191" on="0"/>
        <pt x="481" y="244" on="1"/>
        <pt x="525" y="670" on="1"/>
        <pt x="528" y="702" on="0"/>
        <pt x="589" y="702" on="1"/>
        <pt x="622" y="702" on="1"/>
        <pt x="678" y="702" on="0"/>
        <pt x="678" y="670" on="1"/>
        <pt x="633" y="234" on="1"/>
        <pt x="621" y="119" on="0"/>
        <pt x="454" y="-8" on="0"/>
        <pt x="190" y="-8" on="0"/>
        <pt x="51" y="101" on="0"/>
        <pt x="51" y="201" on="1"/>
        <pt x="51" y="212" on="0"/>
        <pt x="98" y="670" on="1"/>
        <pt x="101" y="702" on="0"/>
      </contour>
    </TTGlyph>
    <TTGlyph name="Uacute" xMin="51" yMin="-8" xMax="678" yMax="934">
      <contour>
        <pt x="162" y="702" on="1"/>
        <pt x="196" y="702" on="1"/>
        <pt x="252" y="702" on="0"/>
        <pt x="252" y="670" on="1"/>
        <pt x="207" y="239" on="0"/>
        <pt x="207" y="229" on="1"/>
        <pt x="207" y="182" on="0"/>
        <pt x="275" y="123" on="0"/>
        <pt x="391" y="123" on="0"/>
        <pt x="476" y="191" on="0"/>
        <pt x="481" y="244" on="1"/>
        <pt x="525" y="670" on="1"/>
        <pt x="528" y="702" on="0"/>
        <pt x="589" y="702" on="1"/>
        <pt x="622" y="702" on="1"/>
        <pt x="678" y="702" on="0"/>
        <pt x="678" y="670" on="1"/>
        <pt x="633" y="234" on="1"/>
        <pt x="621" y="119" on="0"/>
        <pt x="454" y="-8" on="0"/>
        <pt x="190" y="-8" on="0"/>
        <pt x="51" y="101" on="0"/>
        <pt x="51" y="201" on="1"/>
        <pt x="51" y="212" on="0"/>
        <pt x="98" y="670" on="1"/>
        <pt x="101" y="702" on="0"/>
      </contour>
      <contour>
        <pt x="351" y="775" on="1"/>
        <pt x="322" y="775" on="0"/>
        <pt x="322" y="788" on="1"/>
        <pt x="322" y="794" on="0"/>
        <pt x="339" y="819" on="0"/>
        <pt x="354" y="841" on="0"/>
        <pt x="384" y="884" on="0"/>
        <pt x="417" y="934" on="0"/>
        <pt x="545" y="934" on="0"/>
        <pt x="545" y="921" on="1"/>
        <pt x="545" y="914" on="0"/>
        <pt x="536" y="903" on="0"/>
        <pt x="464" y="834" on="0"/>
        <pt x="404" y="775" on="0"/>
      </contour>
    </TTGlyph>
    <TTGlyph name="Ucircumflex" xMin="51" yMin="-8" xMax="678" yMax="908">
      <contour>
        <pt x="162" y="702" on="1"/>
        <pt x="196" y="702" on="1"/>
        <pt x="252" y="702" on="0"/>
        <pt x="252" y="670" on="1"/>
        <pt x="207" y="239" on="0"/>
        <pt x="207" y="229" on="1"/>
        <pt x="207" y="182" on="0"/>
        <pt x="275" y="123" on="0"/>
        <pt x="391" y="123" on="0"/>
        <pt x="476" y="191" on="0"/>
        <pt x="481" y="244" on="1"/>
        <pt x="525" y="670" on="1"/>
        <pt x="528" y="702" on="0"/>
        <pt x="589" y="702" on="1"/>
        <pt x="622" y="702" on="1"/>
        <pt x="678" y="702" on="0"/>
        <pt x="678" y="670" on="1"/>
        <pt x="633" y="234" on="1"/>
        <pt x="621" y="119" on="0"/>
        <pt x="454" y="-8" on="0"/>
        <pt x="190" y="-8" on="0"/>
        <pt x="51" y="101" on="0"/>
        <pt x="51" y="201" on="1"/>
        <pt x="51" y="212" on="0"/>
        <pt x="98" y="670" on="1"/>
        <pt x="101" y="702" on="0"/>
      </contour>
      <contour>
        <pt x="406" y="908" on="1"/>
        <pt x="417" y="908" on="1"/>
        <pt x="465" y="908" on="0"/>
        <pt x="476" y="889" on="1"/>
        <pt x="530" y="787" on="1"/>
        <pt x="533" y="779" on="0"/>
        <pt x="533" y="775" on="1"/>
        <pt x="533" y="762" on="0"/>
        <pt x="514" y="762" on="1"/>
        <pt x="492" y="762" on="1"/>
        <pt x="443" y="762" on="0"/>
        <pt x="428" y="786" on="1"/>
        <pt x="403" y="826" on="1"/>
        <pt x="372" y="787" on="1"/>
        <pt x="353" y="762" on="0"/>
        <pt x="303" y="762" on="1"/>
        <pt x="279" y="762" on="1"/>
        <pt x="260" y="762" on="0"/>
        <pt x="260" y="772" on="1"/>
        <pt x="260" y="779" on="0"/>
        <pt x="267" y="787" on="1"/>
        <pt x="343" y="889" on="1"/>
        <pt x="357" y="908" on="0"/>
      </contour>
    </TTGlyph>
    <TTGlyph name="Udieresis" xMin="51" yMin="-8" xMax="678" yMax="882">
      <contour>
        <pt x="162" y="702" on="1"/>
        <pt x="196" y="702" on="1"/>
        <pt x="252" y="702" on="0"/>
        <pt x="252" y="670" on="1"/>
        <pt x="207" y="239" on="0"/>
        <pt x="207" y="229" on="1"/>
        <pt x="207" y="182" on="0"/>
        <pt x="275" y="123" on="0"/>
        <pt x="391" y="123" on="0"/>
        <pt x="476" y="191" on="0"/>
        <pt x="481" y="244" on="1"/>
        <pt x="525" y="670" on="1"/>
        <pt x="528" y="702" on="0"/>
        <pt x="589" y="702" on="1"/>
        <pt x="622" y="702" on="1"/>
        <pt x="678" y="702" on="0"/>
        <pt x="678" y="670" on="1"/>
        <pt x="633" y="234" on="1"/>
        <pt x="621" y="119" on="0"/>
        <pt x="454" y="-8" on="0"/>
        <pt x="190" y="-8" on="0"/>
        <pt x="51" y="101" on="0"/>
        <pt x="51" y="201" on="1"/>
        <pt x="51" y="212" on="0"/>
        <pt x="98" y="670" on="1"/>
        <pt x="101" y="702" on="0"/>
      </contour>
      <contour>
        <pt x="438" y="850" on="1"/>
        <pt x="441" y="882" on="0"/>
        <pt x="558" y="882" on="0"/>
        <pt x="558" y="850" on="1"/>
        <pt x="551" y="790" on="1"/>
        <pt x="546" y="758" on="0"/>
        <pt x="431" y="758" on="0"/>
        <pt x="431" y="790" on="1"/>
      </contour>
      <contour>
        <pt x="258" y="850" on="1"/>
        <pt x="261" y="882" on="0"/>
        <pt x="378" y="882" on="0"/>
        <pt x="378" y="850" on="1"/>
        <pt x="371" y="790" on="1"/>
        <pt x="366" y="758" on="0"/>
        <pt x="251" y="758" on="0"/>
        <pt x="251" y="790" on="1"/>
      </contour>
    </TTGlyph>
    <TTGlyph name="Ugrave" xMin="51" yMin="-8" xMax="678" yMax="934">
      <contour>
        <pt x="162" y="702" on="1"/>
        <pt x="196" y="702" on="1"/>
        <pt x="252" y="702" on="0"/>
        <pt x="252" y="670" on="1"/>
        <pt x="207" y="239" on="0"/>
        <pt x="207" y="229" on="1"/>
        <pt x="207" y="182" on="0"/>
        <pt x="275" y="123" on="0"/>
        <pt x="391" y="123" on="0"/>
        <pt x="476" y="191" on="0"/>
        <pt x="481" y="244" on="1"/>
        <pt x="525" y="670" on="1"/>
        <pt x="528" y="702" on="0"/>
        <pt x="589" y="702" on="1"/>
        <pt x="622" y="702" on="1"/>
        <pt x="678" y="702" on="0"/>
        <pt x="678" y="670" on="1"/>
        <pt x="633" y="234" on="1"/>
        <pt x="621" y="119" on="0"/>
        <pt x="454" y="-8" on="0"/>
        <pt x="190" y="-8" on="0"/>
        <pt x="51" y="101" on="0"/>
        <pt x="51" y="201" on="1"/>
        <pt x="51" y="212" on="0"/>
        <pt x="98" y="670" on="1"/>
        <pt x="101" y="702" on="0"/>
      </contour>
      <contour>
        <pt x="490" y="791" on="1"/>
        <pt x="490" y="775" on="0"/>
        <pt x="406" y="775" on="0"/>
        <pt x="362" y="829" on="0"/>
        <pt x="305" y="896" on="0"/>
        <pt x="293" y="913" on="0"/>
        <pt x="293" y="918" on="1"/>
        <pt x="293" y="934" on="0"/>
        <pt x="424" y="934" on="0"/>
        <pt x="437" y="907" on="1"/>
        <pt x="447" y="886" on="0"/>
        <pt x="466" y="846" on="0"/>
        <pt x="477" y="824" on="0"/>
        <pt x="482" y="814" on="1"/>
        <pt x="490" y="795" on="0"/>
      </contour>
    </TTGlyph>
    <TTGlyph name="V" xMin="39" yMin="-2" xMax="641" yMax="702">
      <contour>
        <pt x="39" y="673" on="1"/>
        <pt x="39" y="702" on="0"/>
        <pt x="102" y="702" on="1"/>
        <pt x="135" y="702" on="1"/>
        <pt x="184" y="702" on="0"/>
        <pt x="191" y="673" on="1"/>
        <pt x="288" y="205" on="1"/>
        <pt x="292" y="205" on="1"/>
        <pt x="491" y="673" on="1"/>
        <pt x="503" y="702" on="0"/>
        <pt x="553" y="702" on="1"/>
        <pt x="584" y="702" on="1"/>
        <pt x="641" y="702" on="0"/>
        <pt x="641" y="678" on="1"/>
        <pt x="641" y="670" on="0"/>
        <pt x="637" y="662" on="1"/>
        <pt x="354" y="19" on="1"/>
        <pt x="345" y="-2" on="0"/>
        <pt x="296" y="-2" on="1"/>
        <pt x="244" y="-2" on="1"/>
        <pt x="195" y="-2" on="0"/>
        <pt x="190" y="19" on="1"/>
        <pt x="41" y="662" on="1"/>
        <pt x="39" y="670" on="0"/>
      </contour>
    </TTGlyph>
    <TTGlyph name="W" xMin="29" yMin="-2" xMax="920" yMax="702">
      <contour>
        <pt x="29" y="669" on="1"/>
        <pt x="29" y="702" on="0"/>
        <pt x="94" y="702" on="1"/>
        <pt x="120" y="702" on="1"/>
        <pt x="180" y="702" on="0"/>
        <pt x="184" y="671" on="1"/>
        <pt x="225" y="349" on="1"/>
        <pt x="241" y="205" on="1"/>
        <pt x="290" y="349" on="1"/>
        <pt x="407" y="681" on="1"/>
        <pt x="415" y="702" on="0"/>
        <pt x="464" y="702" on="1"/>
        <pt x="502" y="702" on="1"/>
        <pt x="552" y="702" on="0"/>
        <pt x="555" y="681" on="1"/>
        <pt x="618" y="198" on="1"/>
        <pt x="624" y="217" on="0"/>
        <pt x="660" y="327" on="0"/>
        <pt x="667" y="349" on="1"/>
        <pt x="779" y="671" on="1"/>
        <pt x="789" y="702" on="0"/>
        <pt x="849" y="702" on="1"/>
        <pt x="860" y="702" on="1"/>
        <pt x="920" y="702" on="0"/>
        <pt x="920" y="677" on="1"/>
        <pt x="920" y="673" on="0"/>
        <pt x="916" y="661" on="1"/>
        <pt x="686" y="19" on="1"/>
        <pt x="678" y="-2" on="0"/>
        <pt x="629" y="-2" on="1"/>
        <pt x="556" y="-2" on="1"/>
        <pt x="506" y="-2" on="0"/>
        <pt x="503" y="19" on="1"/>
        <pt x="448" y="433" on="1"/>
        <pt x="303" y="19" on="1"/>
        <pt x="294" y="-2" on="0"/>
        <pt x="246" y="-2" on="1"/>
        <pt x="174" y="-2" on="1"/>
        <pt x="122" y="-2" on="0"/>
        <pt x="121" y="19" on="1"/>
        <pt x="29" y="664" on="0"/>
      </contour>
    </TTGlyph>
    <TTGlyph name="X" xMin="-31" yMin="-2" xMax="619" yMax="702">
      <contour>
        <pt x="67" y="658" on="1"/>
        <pt x="61" y="670" on="0"/>
        <pt x="61" y="689" on="0"/>
        <pt x="72" y="694" on="1"/>
        <pt x="86" y="702" on="0"/>
        <pt x="125" y="702" on="1"/>
        <pt x="166" y="702" on="1"/>
        <pt x="214" y="702" on="0"/>
        <pt x="224" y="683" on="1"/>
        <pt x="319" y="497" on="1"/>
        <pt x="458" y="683" on="1"/>
        <pt x="473" y="702" on="0"/>
        <pt x="521" y="702" on="1"/>
        <pt x="560" y="702" on="1"/>
        <pt x="619" y="702" on="0"/>
        <pt x="619" y="682" on="1"/>
        <pt x="619" y="672" on="0"/>
        <pt x="609" y="658" on="1"/>
        <pt x="389" y="363" on="1"/>
        <pt x="555" y="42" on="1"/>
        <pt x="560" y="30" on="0"/>
        <pt x="560" y="23" on="1"/>
        <pt x="560" y="-2" on="0"/>
        <pt x="497" y="-2" on="1"/>
        <pt x="458" y="-2" on="1"/>
        <pt x="409" y="-2" on="0"/>
        <pt x="400" y="17" on="1"/>
        <pt x="289" y="232" on="1"/>
        <pt x="129" y="17" on="1"/>
        <pt x="114" y="-2" on="0"/>
        <pt x="66" y="-2" on="1"/>
        <pt x="28" y="-2" on="1"/>
        <pt x="-31" y="-2" on="0"/>
        <pt x="-31" y="18" on="1"/>
        <pt x="-31" y="28" on="0"/>
        <pt x="-20" y="42" on="1"/>
        <pt x="219" y="365" on="1"/>
      </contour>
    </TTGlyph>
    <TTGlyph name="Y" xMin="32" yMin="-2" xMax="601" yMax="702">
      <contour>
        <pt x="38" y="657" on="1"/>
        <pt x="32" y="669" on="0"/>
        <pt x="32" y="689" on="0"/>
        <pt x="42" y="694" on="1"/>
        <pt x="57" y="702" on="0"/>
        <pt x="96" y="702" on="1"/>
        <pt x="139" y="702" on="1"/>
        <pt x="188" y="702" on="0"/>
        <pt x="197" y="683" on="1"/>
        <pt x="297" y="469" on="1"/>
        <pt x="442" y="683" on="1"/>
        <pt x="455" y="702" on="0"/>
        <pt x="504" y="702" on="1"/>
        <pt x="540" y="702" on="1"/>
        <pt x="601" y="702" on="0"/>
        <pt x="601" y="682" on="1"/>
        <pt x="601" y="673" on="0"/>
        <pt x="590" y="657" on="1"/>
        <pt x="357" y="333" on="1"/>
        <pt x="325" y="30" on="1"/>
        <pt x="322" y="-2" on="0"/>
        <pt x="262" y="-2" on="1"/>
        <pt x="228" y="-2" on="1"/>
        <pt x="171" y="-2" on="0"/>
        <pt x="171" y="30" on="1"/>
        <pt x="203" y="336" on="1"/>
      </contour>
    </TTGlyph>
    <TTGlyph name="Yacute" xMin="32" yMin="-2" xMax="601" yMax="934">
      <contour>
        <pt x="38" y="657" on="1"/>
        <pt x="32" y="669" on="0"/>
        <pt x="32" y="689" on="0"/>
        <pt x="42" y="694" on="1"/>
        <pt x="57" y="702" on="0"/>
        <pt x="96" y="702" on="1"/>
        <pt x="139" y="702" on="1"/>
        <pt x="188" y="702" on="0"/>
        <pt x="197" y="683" on="1"/>
        <pt x="297" y="469" on="1"/>
        <pt x="442" y="683" on="1"/>
        <pt x="455" y="702" on="0"/>
        <pt x="504" y="702" on="1"/>
        <pt x="540" y="702" on="1"/>
        <pt x="601" y="702" on="0"/>
        <pt x="601" y="682" on="1"/>
        <pt x="601" y="673" on="0"/>
        <pt x="590" y="657" on="1"/>
        <pt x="357" y="333" on="1"/>
        <pt x="325" y="30" on="1"/>
        <pt x="322" y="-2" on="0"/>
        <pt x="262" y="-2" on="1"/>
        <pt x="228" y="-2" on="1"/>
        <pt x="171" y="-2" on="0"/>
        <pt x="171" y="30" on="1"/>
        <pt x="203" y="336" on="1"/>
      </contour>
      <contour>
        <pt x="285" y="775" on="1"/>
        <pt x="256" y="775" on="0"/>
        <pt x="256" y="788" on="1"/>
        <pt x="256" y="794" on="0"/>
        <pt x="273" y="819" on="0"/>
        <pt x="288" y="841" on="0"/>
        <pt x="318" y="884" on="0"/>
        <pt x="351" y="934" on="0"/>
        <pt x="479" y="934" on="0"/>
        <pt x="479" y="921" on="1"/>
        <pt x="479" y="914" on="0"/>
        <pt x="470" y="903" on="0"/>
        <pt x="398" y="834" on="0"/>
        <pt x="338" y="775" on="0"/>
      </contour>
    </TTGlyph>
    <TTGlyph name="Ydieresis" xMin="32" yMin="-2" xMax="601" yMax="882">
      <contour>
        <pt x="38" y="657" on="1"/>
        <pt x="32" y="669" on="0"/>
        <pt x="32" y="689" on="0"/>
        <pt x="42" y="694" on="1"/>
        <pt x="57" y="702" on="0"/>
        <pt x="96" y="702" on="1"/>
        <pt x="139" y="702" on="1"/>
        <pt x="188" y="702" on="0"/>
        <pt x="197" y="683" on="1"/>
        <pt x="297" y="469" on="1"/>
        <pt x="442" y="683" on="1"/>
        <pt x="455" y="702" on="0"/>
        <pt x="504" y="702" on="1"/>
        <pt x="540" y="702" on="1"/>
        <pt x="601" y="702" on="0"/>
        <pt x="601" y="682" on="1"/>
        <pt x="601" y="673" on="0"/>
        <pt x="590" y="657" on="1"/>
        <pt x="357" y="333" on="1"/>
        <pt x="325" y="30" on="1"/>
        <pt x="322" y="-2" on="0"/>
        <pt x="262" y="-2" on="1"/>
        <pt x="228" y="-2" on="1"/>
        <pt x="171" y="-2" on="0"/>
        <pt x="171" y="30" on="1"/>
        <pt x="203" y="336" on="1"/>
      </contour>
      <contour>
        <pt x="372" y="850" on="1"/>
        <pt x="375" y="882" on="0"/>
        <pt x="492" y="882" on="0"/>
        <pt x="492" y="850" on="1"/>
        <pt x="485" y="790" on="1"/>
        <pt x="480" y="758" on="0"/>
        <pt x="365" y="758" on="0"/>
        <pt x="365" y="790" on="1"/>
      </contour>
      <contour>
        <pt x="192" y="850" on="1"/>
        <pt x="195" y="882" on="0"/>
        <pt x="312" y="882" on="0"/>
        <pt x="312" y="850" on="1"/>
        <pt x="305" y="790" on="1"/>
        <pt x="300" y="758" on="0"/>
        <pt x="185" y="758" on="0"/>
        <pt x="185" y="790" on="1"/>
      </contour>
    </TTGlyph>
    <TTGlyph name="Z" xMin="1" yMin="0" xMax="604" yMax="700">
      <contour>
        <pt x="524" y="131" on="1"/>
        <pt x="550" y="131" on="0"/>
        <pt x="550" y="91" on="1"/>
        <pt x="550" y="0" on="0"/>
        <pt x="512" y="0" on="1"/>
        <pt x="33" y="0" on="1"/>
        <pt x="20" y="0" on="0"/>
        <pt x="1" y="62" on="0"/>
        <pt x="1" y="99" on="0"/>
        <pt x="4" y="102" on="1"/>
        <pt x="385" y="569" on="1"/>
        <pt x="107" y="569" on="1"/>
        <pt x="81" y="569" on="0"/>
        <pt x="81" y="609" on="1"/>
        <pt x="81" y="700" on="0"/>
        <pt x="119" y="700" on="1"/>
        <pt x="572" y="700" on="1"/>
        <pt x="585" y="700" on="0"/>
        <pt x="604" y="638" on="0"/>
        <pt x="604" y="601" on="0"/>
        <pt x="601" y="598" on="1"/>
        <pt x="219" y="131" on="1"/>
      </contour>
    </TTGlyph>
    <TTGlyph name="Zcaron" xMin="1" yMin="0" xMax="604" yMax="908">
      <contour>
        <pt x="524" y="131" on="1"/>
        <pt x="550" y="131" on="0"/>
        <pt x="550" y="91" on="1"/>
        <pt x="550" y="0" on="0"/>
        <pt x="512" y="0" on="1"/>
        <pt x="33" y="0" on="1"/>
        <pt x="20" y="0" on="0"/>
        <pt x="1" y="62" on="0"/>
        <pt x="1" y="99" on="0"/>
        <pt x="4" y="102" on="1"/>
        <pt x="385" y="569" on="1"/>
        <pt x="107" y="569" on="1"/>
        <pt x="81" y="569" on="0"/>
        <pt x="81" y="609" on="1"/>
        <pt x="81" y="700" on="0"/>
        <pt x="119" y="700" on="1"/>
        <pt x="572" y="700" on="1"/>
        <pt x="585" y="700" on="0"/>
        <pt x="604" y="638" on="0"/>
        <pt x="604" y="601" on="0"/>
        <pt x="601" y="598" on="1"/>
        <pt x="219" y="131" on="1"/>
      </contour>
      <contour>
        <pt x="368" y="762" on="1"/>
        <pt x="357" y="762" on="1"/>
        <pt x="309" y="762" on="0"/>
        <pt x="298" y="781" on="1"/>
        <pt x="244" y="883" on="1"/>
        <pt x="241" y="891" on="0"/>
        <pt x="241" y="895" on="1"/>
        <pt x="241" y="908" on="0"/>
        <pt x="260" y="908" on="1"/>
        <pt x="282" y="908" on="1"/>
        <pt x="330" y="908" on="0"/>
        <pt x="346" y="884" on="1"/>
        <pt x="371" y="844" on="1"/>
        <pt x="402" y="883" on="1"/>
        <pt x="420" y="906" on="0"/>
        <pt x="471" y="908" on="1"/>
        <pt x="495" y="908" on="1"/>
        <pt x="514" y="908" on="0"/>
        <pt x="514" y="898" on="1"/>
        <pt x="514" y="891" on="0"/>
        <pt x="507" y="883" on="1"/>
        <pt x="431" y="781" on="1"/>
        <pt x="417" y="762" on="0"/>
      </contour>
    </TTGlyph>
    <TTGlyph name="a" xMin="24" yMin="-9" xMax="532" yMax="530">
      <contour>
        <pt x="437" y="-8" on="1"/>
        <pt x="342" y="-8" on="0"/>
        <pt x="322" y="67" on="1"/>
        <pt x="299" y="33" on="0"/>
        <pt x="228" y="-9" on="0"/>
        <pt x="186" y="-9" on="1"/>
        <pt x="112" y="-9" on="0"/>
        <pt x="24" y="104" on="0"/>
        <pt x="24" y="208" on="1"/>
        <pt x="24" y="352" on="0"/>
        <pt x="148" y="530" on="0"/>
        <pt x="246" y="530" on="1"/>
        <pt x="311" y="530" on="0"/>
        <pt x="367" y="477" on="1"/>
        <pt x="376" y="507" on="0"/>
        <pt x="396" y="523" on="0"/>
        <pt x="432" y="524" on="1"/>
        <pt x="444" y="524" on="1"/>
        <pt x="502" y="524" on="0"/>
        <pt x="502" y="499" on="1"/>
        <pt x="484" y="325" on="1"/>
        <pt x="465" y="151" on="0"/>
        <pt x="465" y="141" on="1"/>
        <pt x="465" y="109" on="0"/>
        <pt x="495" y="109" on="1"/>
        <pt x="503" y="109" on="0"/>
        <pt x="523" y="115" on="0"/>
        <pt x="524" y="115" on="1"/>
        <pt x="532" y="115" on="0"/>
        <pt x="532" y="85" on="0"/>
        <pt x="525" y="44" on="1"/>
        <pt x="521" y="19" on="0"/>
        <pt x="467" y="-8" on="0"/>
      </contour>
      <contour>
        <pt x="242" y="112" on="1"/>
        <pt x="283" y="112" on="0"/>
        <pt x="320" y="170" on="1"/>
        <pt x="332" y="306" on="0"/>
        <pt x="336" y="335" on="0"/>
        <pt x="346" y="386" on="1"/>
        <pt x="315" y="413" on="0"/>
        <pt x="280" y="413" on="1"/>
        <pt x="229" y="413" on="0"/>
        <pt x="174" y="312" on="0"/>
        <pt x="174" y="112" on="0"/>
      </contour>
    </TTGlyph>
    <TTGlyph name="aacute" xMin="24" yMin="-9" xMax="532" yMax="754">
      <contour>
        <pt x="437" y="-8" on="1"/>
        <pt x="342" y="-8" on="0"/>
        <pt x="322" y="67" on="1"/>
        <pt x="299" y="33" on="0"/>
        <pt x="228" y="-9" on="0"/>
        <pt x="186" y="-9" on="1"/>
        <pt x="112" y="-9" on="0"/>
        <pt x="24" y="104" on="0"/>
        <pt x="24" y="208" on="1"/>
        <pt x="24" y="352" on="0"/>
        <pt x="148" y="530" on="0"/>
        <pt x="246" y="530" on="1"/>
        <pt x="311" y="530" on="0"/>
        <pt x="367" y="477" on="1"/>
        <pt x="376" y="507" on="0"/>
        <pt x="396" y="523" on="0"/>
        <pt x="432" y="524" on="1"/>
        <pt x="444" y="524" on="1"/>
        <pt x="502" y="524" on="0"/>
        <pt x="502" y="499" on="1"/>
        <pt x="484" y="325" on="1"/>
        <pt x="465" y="151" on="0"/>
        <pt x="465" y="141" on="1"/>
        <pt x="465" y="109" on="0"/>
        <pt x="495" y="109" on="1"/>
        <pt x="503" y="109" on="0"/>
        <pt x="523" y="115" on="0"/>
        <pt x="524" y="115" on="1"/>
        <pt x="532" y="115" on="0"/>
        <pt x="532" y="85" on="0"/>
        <pt x="525" y="44" on="1"/>
        <pt x="521" y="19" on="0"/>
        <pt x="467" y="-8" on="0"/>
      </contour>
      <contour>
        <pt x="242" y="112" on="1"/>
        <pt x="283" y="112" on="0"/>
        <pt x="320" y="170" on="1"/>
        <pt x="332" y="306" on="0"/>
        <pt x="336" y="335" on="0"/>
        <pt x="346" y="386" on="1"/>
        <pt x="315" y="413" on="0"/>
        <pt x="280" y="413" on="1"/>
        <pt x="229" y="413" on="0"/>
        <pt x="174" y="312" on="0"/>
        <pt x="174" y="112" on="0"/>
      </contour>
      <contour>
        <pt x="253" y="595" on="1"/>
        <pt x="224" y="595" on="0"/>
        <pt x="224" y="608" on="1"/>
        <pt x="224" y="614" on="0"/>
        <pt x="241" y="639" on="0"/>
        <pt x="256" y="661" on="0"/>
        <pt x="286" y="704" on="0"/>
        <pt x="319" y="754" on="0"/>
        <pt x="447" y="754" on="0"/>
        <pt x="447" y="741" on="1"/>
        <pt x="447" y="734" on="0"/>
        <pt x="438" y="723" on="0"/>
        <pt x="366" y="654" on="0"/>
        <pt x="306" y="595" on="0"/>
      </contour>
    </TTGlyph>
    <TTGlyph name="acircumflex" xMin="24" yMin="-9" xMax="532" yMax="728">
      <contour>
        <pt x="437" y="-8" on="1"/>
        <pt x="342" y="-8" on="0"/>
        <pt x="322" y="67" on="1"/>
        <pt x="299" y="33" on="0"/>
        <pt x="228" y="-9" on="0"/>
        <pt x="186" y="-9" on="1"/>
        <pt x="112" y="-9" on="0"/>
        <pt x="24" y="104" on="0"/>
        <pt x="24" y="208" on="1"/>
        <pt x="24" y="352" on="0"/>
        <pt x="148" y="530" on="0"/>
        <pt x="246" y="530" on="1"/>
        <pt x="311" y="530" on="0"/>
        <pt x="367" y="477" on="1"/>
        <pt x="376" y="507" on="0"/>
        <pt x="396" y="523" on="0"/>
        <pt x="432" y="524" on="1"/>
        <pt x="444" y="524" on="1"/>
        <pt x="502" y="524" on="0"/>
        <pt x="502" y="499" on="1"/>
        <pt x="484" y="325" on="1"/>
        <pt x="465" y="151" on="0"/>
        <pt x="465" y="141" on="1"/>
        <pt x="465" y="109" on="0"/>
        <pt x="495" y="109" on="1"/>
        <pt x="503" y="109" on="0"/>
        <pt x="523" y="115" on="0"/>
        <pt x="524" y="115" on="1"/>
        <pt x="532" y="115" on="0"/>
        <pt x="532" y="85" on="0"/>
        <pt x="525" y="44" on="1"/>
        <pt x="521" y="19" on="0"/>
        <pt x="467" y="-8" on="0"/>
      </contour>
      <contour>
        <pt x="242" y="112" on="1"/>
        <pt x="283" y="112" on="0"/>
        <pt x="320" y="170" on="1"/>
        <pt x="332" y="306" on="0"/>
        <pt x="336" y="335" on="0"/>
        <pt x="346" y="386" on="1"/>
        <pt x="315" y="413" on="0"/>
        <pt x="280" y="413" on="1"/>
        <pt x="229" y="413" on="0"/>
        <pt x="174" y="312" on="0"/>
        <pt x="174" y="112" on="0"/>
      </contour>
      <contour>
        <pt x="308" y="728" on="1"/>
        <pt x="319" y="728" on="1"/>
        <pt x="367" y="728" on="0"/>
        <pt x="378" y="709" on="1"/>
        <pt x="432" y="607" on="1"/>
        <pt x="435" y="599" on="0"/>
        <pt x="435" y="595" on="1"/>
        <pt x="435" y="582" on="0"/>
        <pt x="416" y="582" on="1"/>
        <pt x="394" y="582" on="1"/>
        <pt x="345" y="582" on="0"/>
        <pt x="330" y="606" on="1"/>
        <pt x="305" y="646" on="1"/>
        <pt x="274" y="607" on="1"/>
        <pt x="255" y="582" on="0"/>
        <pt x="205" y="582" on="1"/>
        <pt x="181" y="582" on="1"/>
        <pt x="162" y="582" on="0"/>
        <pt x="162" y="592" on="1"/>
        <pt x="162" y="599" on="0"/>
        <pt x="169" y="607" on="1"/>
        <pt x="245" y="709" on="1"/>
        <pt x="259" y="728" on="0"/>
      </contour>
    </TTGlyph>
    <TTGlyph name="acute" xMin="47" yMin="595" xMax="270" yMax="754">
      <contour>
        <pt x="76" y="595" on="1"/>
        <pt x="47" y="595" on="0"/>
        <pt x="47" y="608" on="1"/>
        <pt x="47" y="614" on="0"/>
        <pt x="64" y="639" on="0"/>
        <pt x="79" y="661" on="0"/>
        <pt x="109" y="704" on="0"/>
        <pt x="142" y="754" on="0"/>
        <pt x="270" y="754" on="0"/>
        <pt x="270" y="741" on="1"/>
        <pt x="270" y="734" on="0"/>
        <pt x="261" y="723" on="0"/>
        <pt x="189" y="654" on="0"/>
        <pt x="129" y="595" on="0"/>
      </contour>
    </TTGlyph>
    <TTGlyph name="adieresis" xMin="24" yMin="-9" xMax="532" yMax="702">
      <contour>
        <pt x="437" y="-8" on="1"/>
        <pt x="342" y="-8" on="0"/>
        <pt x="322" y="67" on="1"/>
        <pt x="299" y="33" on="0"/>
        <pt x="228" y="-9" on="0"/>
        <pt x="186" y="-9" on="1"/>
        <pt x="112" y="-9" on="0"/>
        <pt x="24" y="104" on="0"/>
        <pt x="24" y="208" on="1"/>
        <pt x="24" y="352" on="0"/>
        <pt x="148" y="530" on="0"/>
        <pt x="246" y="530" on="1"/>
        <pt x="311" y="530" on="0"/>
        <pt x="367" y="477" on="1"/>
        <pt x="376" y="507" on="0"/>
        <pt x="396" y="523" on="0"/>
        <pt x="432" y="524" on="1"/>
        <pt x="444" y="524" on="1"/>
        <pt x="502" y="524" on="0"/>
        <pt x="502" y="499" on="1"/>
        <pt x="484" y="325" on="1"/>
        <pt x="465" y="151" on="0"/>
        <pt x="465" y="141" on="1"/>
        <pt x="465" y="109" on="0"/>
        <pt x="495" y="109" on="1"/>
        <pt x="503" y="109" on="0"/>
        <pt x="523" y="115" on="0"/>
        <pt x="524" y="115" on="1"/>
        <pt x="532" y="115" on="0"/>
        <pt x="532" y="85" on="0"/>
        <pt x="525" y="44" on="1"/>
        <pt x="521" y="19" on="0"/>
        <pt x="467" y="-8" on="0"/>
      </contour>
      <contour>
        <pt x="242" y="112" on="1"/>
        <pt x="283" y="112" on="0"/>
        <pt x="320" y="170" on="1"/>
        <pt x="332" y="306" on="0"/>
        <pt x="336" y="335" on="0"/>
        <pt x="346" y="386" on="1"/>
        <pt x="315" y="413" on="0"/>
        <pt x="280" y="413" on="1"/>
        <pt x="229" y="413" on="0"/>
        <pt x="174" y="312" on="0"/>
        <pt x="174" y="112" on="0"/>
      </contour>
      <contour>
        <pt x="340" y="670" on="1"/>
        <pt x="343" y="702" on="0"/>
        <pt x="460" y="702" on="0"/>
        <pt x="460" y="670" on="1"/>
        <pt x="453" y="610" on="1"/>
        <pt x="448" y="578" on="0"/>
        <pt x="333" y="578" on="0"/>
        <pt x="333" y="610" on="1"/>
      </contour>
      <contour>
        <pt x="160" y="670" on="1"/>
        <pt x="163" y="702" on="0"/>
        <pt x="280" y="702" on="0"/>
        <pt x="280" y="670" on="1"/>
        <pt x="273" y="610" on="1"/>
        <pt x="268" y="578" on="0"/>
        <pt x="153" y="578" on="0"/>
        <pt x="153" y="610" on="1"/>
      </contour>
    </TTGlyph>
    <TTGlyph name="ae" xMin="25" yMin="-8" xMax="787" yMax="531">
      <contour>
        <pt x="471" y="152" on="0"/>
        <pt x="524" y="109" on="0"/>
        <pt x="608" y="109" on="0"/>
        <pt x="680" y="131" on="0"/>
        <pt x="725" y="153" on="0"/>
        <pt x="728" y="153" on="1"/>
        <pt x="736" y="153" on="0"/>
        <pt x="736" y="139" on="1"/>
        <pt x="736" y="124" on="0"/>
        <pt x="730" y="69" on="0"/>
        <pt x="728" y="62" on="1"/>
        <pt x="717" y="25" on="0"/>
        <pt x="609" y="-8" on="0"/>
        <pt x="554" y="-8" on="1"/>
        <pt x="428" y="-8" on="0"/>
        <pt x="368" y="58" on="1"/>
        <pt x="337" y="33" on="0"/>
        <pt x="236" y="-8" on="0"/>
        <pt x="104" y="-8" on="0"/>
        <pt x="25" y="61" on="0"/>
        <pt x="25" y="122" on="1"/>
        <pt x="25" y="225" on="0"/>
        <pt x="107" y="272" on="1"/>
        <pt x="179" y="314" on="0"/>
        <pt x="328" y="316" on="1"/>
        <pt x="337" y="358" on="0"/>
        <pt x="352" y="389" on="1"/>
        <pt x="332" y="414" on="0"/>
        <pt x="265" y="414" on="1"/>
        <pt x="219" y="414" on="0"/>
        <pt x="158" y="390" on="1"/>
        <pt x="137" y="382" on="0"/>
        <pt x="133" y="382" on="1"/>
        <pt x="119" y="382" on="0"/>
        <pt x="90" y="439" on="0"/>
        <pt x="90" y="458" on="1"/>
        <pt x="90" y="485" on="0"/>
        <pt x="213" y="531" on="0"/>
        <pt x="288" y="531" on="1"/>
        <pt x="394" y="531" on="0"/>
        <pt x="446" y="494" on="1"/>
        <pt x="507" y="531" on="0"/>
        <pt x="593" y="531" on="1"/>
        <pt x="650" y="531" on="0"/>
        <pt x="732" y="501" on="0"/>
        <pt x="752" y="477" on="1"/>
        <pt x="787" y="433" on="0"/>
        <pt x="787" y="386" on="1"/>
        <pt x="787" y="294" on="0"/>
        <pt x="657" y="203" on="0"/>
        <pt x="572" y="203" on="1"/>
        <pt x="517" y="203" on="0"/>
        <pt x="468" y="210" on="1"/>
      </contour>
      <contour>
        <pt x="583" y="414" on="1"/>
        <pt x="500" y="414" on="0"/>
        <pt x="475" y="302" on="1"/>
        <pt x="523" y="302" on="1"/>
        <pt x="587" y="302" on="0"/>
        <pt x="643" y="341" on="0"/>
        <pt x="643" y="367" on="1"/>
        <pt x="643" y="414" on="0"/>
      </contour>
      <contour>
        <pt x="174" y="130" on="0"/>
        <pt x="198" y="109" on="0"/>
        <pt x="247" y="109" on="0"/>
        <pt x="306" y="132" on="0"/>
        <pt x="323" y="152" on="1"/>
        <pt x="318" y="184" on="0"/>
        <pt x="318" y="212" on="1"/>
        <pt x="318" y="224" on="1"/>
        <pt x="174" y="222" on="0"/>
        <pt x="174" y="147" on="1"/>
      </contour>
    </TTGlyph>
    <TTGlyph name="agrave" xMin="24" yMin="-9" xMax="532" yMax="754">
      <contour>
        <pt x="437" y="-8" on="1"/>
        <pt x="342" y="-8" on="0"/>
        <pt x="322" y="67" on="1"/>
        <pt x="299" y="33" on="0"/>
        <pt x="228" y="-9" on="0"/>
        <pt x="186" y="-9" on="1"/>
        <pt x="112" y="-9" on="0"/>
        <pt x="24" y="104" on="0"/>
        <pt x="24" y="208" on="1"/>
        <pt x="24" y="352" on="0"/>
        <pt x="148" y="530" on="0"/>
        <pt x="246" y="530" on="1"/>
        <pt x="311" y="530" on="0"/>
        <pt x="367" y="477" on="1"/>
        <pt x="376" y="507" on="0"/>
        <pt x="396" y="523" on="0"/>
        <pt x="432" y="524" on="1"/>
        <pt x="444" y="524" on="1"/>
        <pt x="502" y="524" on="0"/>
        <pt x="502" y="499" on="1"/>
        <pt x="484" y="325" on="1"/>
        <pt x="465" y="151" on="0"/>
        <pt x="465" y="141" on="1"/>
        <pt x="465" y="109" on="0"/>
        <pt x="495" y="109" on="1"/>
        <pt x="503" y="109" on="0"/>
        <pt x="523" y="115" on="0"/>
        <pt x="524" y="115" on="1"/>
        <pt x="532" y="115" on="0"/>
        <pt x="532" y="85" on="0"/>
        <pt x="525" y="44" on="1"/>
        <pt x="521" y="19" on="0"/>
        <pt x="467" y="-8" on="0"/>
      </contour>
      <contour>
        <pt x="242" y="112" on="1"/>
        <pt x="283" y="112" on="0"/>
        <pt x="320" y="170" on="1"/>
        <pt x="332" y="306" on="0"/>
        <pt x="336" y="335" on="0"/>
        <pt x="346" y="386" on="1"/>
        <pt x="315" y="413" on="0"/>
        <pt x="280" y="413" on="1"/>
        <pt x="229" y="413" on="0"/>
        <pt x="174" y="312" on="0"/>
        <pt x="174" y="112" on="0"/>
      </contour>
      <contour>
        <pt x="392" y="611" on="1"/>
        <pt x="392" y="595" on="0"/>
        <pt x="308" y="595" on="0"/>
        <pt x="264" y="649" on="0"/>
        <pt x="195" y="731" on="0"/>
        <pt x="195" y="738" on="1"/>
        <pt x="195" y="754" on="0"/>
        <pt x="326" y="754" on="0"/>
        <pt x="339" y="727" on="1"/>
        <pt x="349" y="706" on="0"/>
        <pt x="368" y="666" on="0"/>
        <pt x="379" y="644" on="0"/>
        <pt x="384" y="634" on="1"/>
        <pt x="392" y="615" on="0"/>
      </contour>
    </TTGlyph>
    <TTGlyph name="ampersand" xMin="6" yMin="-8" xMax="623" yMax="708">
      <contour>
        <pt x="260" y="591" on="0"/>
        <pt x="211" y="541" on="0"/>
        <pt x="211" y="465" on="0"/>
        <pt x="261" y="426" on="0"/>
        <pt x="306" y="426" on="1"/>
        <pt x="400" y="426" on="1"/>
        <pt x="409" y="501" on="1"/>
        <pt x="412" y="533" on="0"/>
        <pt x="472" y="533" on="1"/>
        <pt x="499" y="533" on="1"/>
        <pt x="527" y="533" on="0"/>
        <pt x="556" y="515" on="0"/>
        <pt x="556" y="502" on="1"/>
        <pt x="548" y="426" on="1"/>
        <pt x="607" y="426" on="1"/>
        <pt x="617" y="426" on="0"/>
        <pt x="623" y="417" on="0"/>
        <pt x="623" y="373" on="0"/>
        <pt x="592" y="309" on="0"/>
        <pt x="565" y="309" on="1"/>
        <pt x="536" y="309" on="1"/>
        <pt x="519" y="145" on="0"/>
        <pt x="519" y="142" on="1"/>
        <pt x="519" y="109" on="0"/>
        <pt x="549" y="109" on="1"/>
        <pt x="560" y="109" on="0"/>
        <pt x="586" y="115" on="0"/>
        <pt x="587" y="115" on="1"/>
        <pt x="595" y="115" on="0"/>
        <pt x="595" y="85" on="0"/>
        <pt x="588" y="44" on="1"/>
        <pt x="584" y="19" on="0"/>
        <pt x="530" y="-8" on="0"/>
        <pt x="500" y="-8" on="1"/>
        <pt x="430" y="-8" on="0"/>
        <pt x="397" y="32" on="1"/>
        <pt x="311" y="-8" on="0"/>
        <pt x="117" y="-8" on="0"/>
        <pt x="6" y="90" on="0"/>
        <pt x="6" y="249" on="0"/>
        <pt x="76" y="359" on="0"/>
        <pt x="142" y="383" on="1"/>
        <pt x="142" y="387" on="1"/>
        <pt x="106" y="403" on="0"/>
        <pt x="64" y="468" on="0"/>
        <pt x="64" y="512" on="1"/>
        <pt x="64" y="601" on="0"/>
        <pt x="188" y="708" on="0"/>
        <pt x="394" y="708" on="0"/>
        <pt x="394" y="669" on="1"/>
        <pt x="394" y="636" on="0"/>
        <pt x="362" y="584" on="0"/>
        <pt x="350" y="584" on="1"/>
        <pt x="333" y="588" on="1"/>
        <pt x="316" y="591" on="0"/>
        <pt x="302" y="591" on="1"/>
      </contour>
      <contour>
        <pt x="156" y="193" on="1"/>
        <pt x="156" y="109" on="0"/>
        <pt x="255" y="109" on="1"/>
        <pt x="306" y="109" on="0"/>
        <pt x="370" y="135" on="1"/>
        <pt x="388" y="309" on="1"/>
        <pt x="285" y="309" on="1"/>
        <pt x="156" y="309" on="0"/>
      </contour>
    </TTGlyph>
    <TTGlyph name="approxequal" xMin="49" yMin="52" xMax="490" yMax="411">
      <contour>
        <pt x="156" y="290" on="0"/>
        <pt x="117" y="279" on="0"/>
        <pt x="96" y="279" on="0"/>
        <pt x="70" y="313" on="0"/>
        <pt x="70" y="330" on="1"/>
        <pt x="70" y="356" on="0"/>
        <pt x="172" y="411" on="0"/>
        <pt x="252" y="411" on="0"/>
        <pt x="360" y="369" on="0"/>
        <pt x="398" y="369" on="0"/>
        <pt x="440" y="384" on="0"/>
        <pt x="465" y="384" on="0"/>
        <pt x="490" y="344" on="0"/>
        <pt x="490" y="326" on="1"/>
        <pt x="490" y="298" on="0"/>
        <pt x="384" y="248" on="0"/>
        <pt x="306" y="248" on="0"/>
        <pt x="199" y="290" on="0"/>
      </contour>
      <contour>
        <pt x="135" y="94" on="0"/>
        <pt x="96" y="83" on="0"/>
        <pt x="75" y="83" on="0"/>
        <pt x="49" y="117" on="0"/>
        <pt x="49" y="134" on="1"/>
        <pt x="49" y="160" on="0"/>
        <pt x="151" y="215" on="0"/>
        <pt x="231" y="215" on="0"/>
        <pt x="339" y="173" on="0"/>
        <pt x="377" y="173" on="0"/>
        <pt x="419" y="188" on="0"/>
        <pt x="444" y="188" on="0"/>
        <pt x="469" y="148" on="0"/>
        <pt x="469" y="130" on="1"/>
        <pt x="469" y="102" on="0"/>
        <pt x="363" y="52" on="0"/>
        <pt x="285" y="52" on="0"/>
        <pt x="178" y="94" on="0"/>
      </contour>
    </TTGlyph>
    <TTGlyph name="aring" xMin="24" yMin="-9" xMax="532" yMax="749">
      <contour>
        <pt x="437" y="-8" on="1"/>
        <pt x="342" y="-8" on="0"/>
        <pt x="322" y="67" on="1"/>
        <pt x="299" y="33" on="0"/>
        <pt x="228" y="-9" on="0"/>
        <pt x="186" y="-9" on="1"/>
        <pt x="112" y="-9" on="0"/>
        <pt x="24" y="104" on="0"/>
        <pt x="24" y="208" on="1"/>
        <pt x="24" y="352" on="0"/>
        <pt x="148" y="530" on="0"/>
        <pt x="246" y="530" on="1"/>
        <pt x="311" y="530" on="0"/>
        <pt x="367" y="477" on="1"/>
        <pt x="376" y="507" on="0"/>
        <pt x="396" y="523" on="0"/>
        <pt x="432" y="524" on="1"/>
        <pt x="444" y="524" on="1"/>
        <pt x="502" y="524" on="0"/>
        <pt x="502" y="499" on="1"/>
        <pt x="484" y="325" on="1"/>
        <pt x="465" y="151" on="0"/>
        <pt x="465" y="141" on="1"/>
        <pt x="465" y="109" on="0"/>
        <pt x="495" y="109" on="1"/>
        <pt x="503" y="109" on="0"/>
        <pt x="523" y="115" on="0"/>
        <pt x="524" y="115" on="1"/>
        <pt x="532" y="115" on="0"/>
        <pt x="532" y="85" on="0"/>
        <pt x="525" y="44" on="1"/>
        <pt x="521" y="19" on="0"/>
        <pt x="467" y="-8" on="0"/>
      </contour>
      <contour>
        <pt x="242" y="112" on="1"/>
        <pt x="283" y="112" on="0"/>
        <pt x="320" y="170" on="1"/>
        <pt x="332" y="306" on="0"/>
        <pt x="336" y="335" on="0"/>
        <pt x="346" y="386" on="1"/>
        <pt x="315" y="413" on="0"/>
        <pt x="280" y="413" on="1"/>
        <pt x="229" y="413" on="0"/>
        <pt x="174" y="312" on="0"/>
        <pt x="174" y="112" on="0"/>
      </contour>
      <contour>
        <pt x="406" y="613" on="0"/>
        <pt x="347" y="550" on="0"/>
        <pt x="256" y="550" on="0"/>
        <pt x="206" y="600" on="0"/>
        <pt x="206" y="686" on="0"/>
        <pt x="267" y="749" on="0"/>
        <pt x="356" y="749" on="0"/>
        <pt x="406" y="698" on="0"/>
      </contour>
      <contour>
        <pt x="270" y="630" on="0"/>
        <pt x="289" y="612" on="0"/>
        <pt x="319" y="612" on="0"/>
        <pt x="343" y="635" on="0"/>
        <pt x="343" y="665" on="0"/>
        <pt x="324" y="685" on="0"/>
        <pt x="294" y="685" on="0"/>
        <pt x="270" y="660" on="0"/>
      </contour>
    </TTGlyph>
    <TTGlyph name="arrowdown" xMin="-3" yMin="-2" xMax="535" yMax="711">
      <contour>
        <pt x="290" y="711" on="0"/>
        <pt x="312" y="711" on="0"/>
        <pt x="318" y="704" on="1"/>
        <pt x="519" y="478" on="1"/>
        <pt x="535" y="461" on="0"/>
        <pt x="535" y="437" on="1"/>
        <pt x="526" y="341" on="1"/>
        <pt x="524" y="322" on="0"/>
        <pt x="517" y="322" on="1"/>
        <pt x="514" y="322" on="0"/>
        <pt x="504" y="332" on="1"/>
        <pt x="335" y="524" on="1"/>
        <pt x="283" y="30" on="1"/>
        <pt x="280" y="-2" on="0"/>
        <pt x="236" y="-2" on="1"/>
        <pt x="217" y="-2" on="1"/>
        <pt x="176" y="-2" on="0"/>
        <pt x="176" y="30" on="1"/>
        <pt x="228" y="525" on="1"/>
        <pt x="17" y="331" on="1"/>
        <pt x="5" y="321" on="0"/>
        <pt x="-3" y="321" on="0"/>
        <pt x="-3" y="337" on="0"/>
        <pt x="6" y="426" on="1"/>
        <pt x="9" y="455" on="0"/>
        <pt x="32" y="477" on="1"/>
        <pt x="282" y="704" on="1"/>
      </contour>
    </TTGlyph>
    <TTGlyph name="arrowleft" xMin="0" yMin="0" xMax="752" yMax="529">
      <contour>
        <pt x="343" y="0" on="1"/>
        <pt x="257" y="0" on="1"/>
        <pt x="226" y="0" on="0"/>
        <pt x="208" y="21" on="1"/>
        <pt x="5" y="247" on="1"/>
        <pt x="0" y="252" on="0"/>
        <pt x="0" y="275" on="0"/>
        <pt x="8" y="283" on="1"/>
        <pt x="258" y="508" on="1"/>
        <pt x="282" y="529" on="0"/>
        <pt x="311" y="529" on="1"/>
        <pt x="397" y="529" on="1"/>
        <pt x="416" y="529" on="0"/>
        <pt x="416" y="522" on="1"/>
        <pt x="414" y="517" on="0"/>
        <pt x="404" y="508" on="1"/>
        <pt x="192" y="319" on="1"/>
        <pt x="724" y="319" on="1"/>
        <pt x="740" y="319" on="0"/>
        <pt x="752" y="299" on="0"/>
        <pt x="752" y="275" on="1"/>
        <pt x="752" y="212" on="0"/>
        <pt x="713" y="212" on="1"/>
        <pt x="180" y="212" on="1"/>
        <pt x="354" y="21" on="1"/>
        <pt x="362" y="11" on="0"/>
        <pt x="362" y="8" on="1"/>
        <pt x="362" y="0" on="0"/>
      </contour>
    </TTGlyph>
    <TTGlyph name="arrowright" xMin="0" yMin="0" xMax="752" yMax="529">
      <contour>
        <pt x="409" y="529" on="1"/>
        <pt x="495" y="529" on="1"/>
        <pt x="526" y="529" on="0"/>
        <pt x="544" y="508" on="1"/>
        <pt x="747" y="282" on="1"/>
        <pt x="752" y="277" on="0"/>
        <pt x="752" y="254" on="0"/>
        <pt x="744" y="246" on="1"/>
        <pt x="494" y="21" on="1"/>
        <pt x="470" y="0" on="0"/>
        <pt x="441" y="0" on="1"/>
        <pt x="355" y="0" on="1"/>
        <pt x="336" y="0" on="0"/>
        <pt x="336" y="7" on="1"/>
        <pt x="338" y="12" on="0"/>
        <pt x="348" y="21" on="1"/>
        <pt x="560" y="210" on="1"/>
        <pt x="28" y="210" on="1"/>
        <pt x="12" y="210" on="0"/>
        <pt x="0" y="230" on="0"/>
        <pt x="0" y="254" on="1"/>
        <pt x="0" y="317" on="0"/>
        <pt x="39" y="317" on="1"/>
        <pt x="572" y="317" on="1"/>
        <pt x="398" y="508" on="1"/>
        <pt x="390" y="518" on="0"/>
        <pt x="390" y="521" on="1"/>
        <pt x="390" y="529" on="0"/>
      </contour>
    </TTGlyph>
    <TTGlyph name="arrowup" xMin="-7" yMin="-2" xMax="531" yMax="711">
      <contour>
        <pt x="238" y="-2" on="0"/>
        <pt x="216" y="-2" on="0"/>
        <pt x="210" y="5" on="1"/>
        <pt x="9" y="231" on="1"/>
        <pt x="-7" y="248" on="0"/>
        <pt x="-7" y="272" on="1"/>
        <pt x="2" y="368" on="1"/>
        <pt x="4" y="387" on="0"/>
        <pt x="11" y="387" on="1"/>
        <pt x="14" y="387" on="0"/>
        <pt x="24" y="377" on="1"/>
        <pt x="193" y="185" on="1"/>
        <pt x="245" y="679" on="1"/>
        <pt x="248" y="711" on="0"/>
        <pt x="292" y="711" on="1"/>
        <pt x="311" y="711" on="1"/>
        <pt x="352" y="711" on="0"/>
        <pt x="352" y="679" on="1"/>
        <pt x="300" y="184" on="1"/>
        <pt x="511" y="378" on="1"/>
        <pt x="523" y="388" on="0"/>
        <pt x="531" y="388" on="0"/>
        <pt x="531" y="372" on="0"/>
        <pt x="522" y="283" on="1"/>
        <pt x="519" y="254" on="0"/>
        <pt x="496" y="232" on="1"/>
        <pt x="246" y="5" on="1"/>
      </contour>
    </TTGlyph>
    <TTGlyph name="asciicircum" xMin="17" yMin="318" xMax="398" yMax="686">
      <contour>
        <pt x="229" y="686" on="1"/>
        <pt x="260" y="686" on="1"/>
        <pt x="290" y="686" on="0"/>
        <pt x="299" y="656" on="1"/>
        <pt x="395" y="348" on="1"/>
        <pt x="398" y="342" on="0"/>
        <pt x="398" y="333" on="1"/>
        <pt x="396" y="318" on="0"/>
        <pt x="364" y="318" on="1"/>
        <pt x="343" y="318" on="1"/>
        <pt x="303" y="318" on="0"/>
        <pt x="294" y="348" on="1"/>
        <pt x="230" y="555" on="1"/>
        <pt x="122" y="348" on="1"/>
        <pt x="106" y="318" on="0"/>
        <pt x="68" y="318" on="1"/>
        <pt x="47" y="318" on="1"/>
        <pt x="17" y="318" on="0"/>
        <pt x="17" y="332" on="1"/>
        <pt x="17" y="339" on="0"/>
        <pt x="22" y="348" on="1"/>
        <pt x="184" y="656" on="1"/>
        <pt x="199" y="686" on="0"/>
      </contour>
    </TTGlyph>
    <TTGlyph name="asciitilde" xMin="64" yMin="183" xMax="484" yMax="346">
      <contour>
        <pt x="150" y="225" on="0"/>
        <pt x="111" y="214" on="0"/>
        <pt x="90" y="214" on="0"/>
        <pt x="64" y="248" on="0"/>
        <pt x="64" y="265" on="1"/>
        <pt x="64" y="291" on="0"/>
        <pt x="166" y="346" on="0"/>
        <pt x="246" y="346" on="0"/>
        <pt x="354" y="304" on="0"/>
        <pt x="392" y="304" on="0"/>
        <pt x="434" y="319" on="0"/>
        <pt x="459" y="319" on="0"/>
        <pt x="484" y="279" on="0"/>
        <pt x="484" y="261" on="1"/>
        <pt x="484" y="233" on="0"/>
        <pt x="378" y="183" on="0"/>
        <pt x="300" y="183" on="0"/>
        <pt x="193" y="225" on="0"/>
      </contour>
    </TTGlyph>
    <TTGlyph name="asterisk" xMin="36" yMin="411" xMax="331" yMax="708">
      <contour>
        <pt x="67" y="623" on="1"/>
        <pt x="71" y="623" on="0"/>
        <pt x="81" y="621" on="1"/>
        <pt x="155" y="596" on="1"/>
        <pt x="164" y="678" on="1"/>
        <pt x="167" y="708" on="0"/>
        <pt x="197" y="708" on="1"/>
        <pt x="213" y="708" on="0"/>
        <pt x="224" y="694" on="0"/>
        <pt x="224" y="678" on="1"/>
        <pt x="215" y="596" on="1"/>
        <pt x="293" y="621" on="1"/>
        <pt x="303" y="623" on="0"/>
        <pt x="316" y="623" on="0"/>
        <pt x="331" y="606" on="0"/>
        <pt x="331" y="570" on="0"/>
        <pt x="307" y="563" on="1"/>
        <pt x="228" y="539" on="1"/>
        <pt x="277" y="460" on="1"/>
        <pt x="283" y="451" on="0"/>
        <pt x="283" y="434" on="0"/>
        <pt x="259" y="411" on="0"/>
        <pt x="234" y="411" on="0"/>
        <pt x="225" y="426" on="1"/>
        <pt x="175" y="509" on="1"/>
        <pt x="107" y="426" on="1"/>
        <pt x="95" y="411" on="0"/>
        <pt x="73" y="411" on="0"/>
        <pt x="52" y="430" on="0"/>
        <pt x="52" y="449" on="0"/>
        <pt x="63" y="460" on="1"/>
        <pt x="127" y="539" on="1"/>
        <pt x="55" y="563" on="1"/>
        <pt x="36" y="569" on="0"/>
        <pt x="36" y="585" on="1"/>
        <pt x="36" y="594" on="0"/>
        <pt x="40" y="602" on="1"/>
        <pt x="50" y="623" on="0"/>
      </contour>
    </TTGlyph>
    <TTGlyph name="at" xMin="84" yMin="-123" xMax="867" yMax="708">
      <contour>
        <pt x="670" y="477" on="1"/>
        <pt x="639" y="177" on="1"/>
        <pt x="639" y="141" on="0"/>
        <pt x="674" y="141" on="1"/>
        <pt x="726" y="141" on="0"/>
        <pt x="803" y="285" on="0"/>
        <pt x="803" y="383" on="1"/>
        <pt x="803" y="505" on="0"/>
        <pt x="655" y="654" on="0"/>
        <pt x="534" y="654" on="1"/>
        <pt x="372" y="654" on="0"/>
        <pt x="148" y="414" on="0"/>
        <pt x="148" y="240" on="1"/>
        <pt x="148" y="102" on="0"/>
        <pt x="293" y="-69" on="0"/>
        <pt x="410" y="-69" on="1"/>
        <pt x="488" y="-69" on="0"/>
        <pt x="538" y="-46" on="1"/>
        <pt x="556" y="-38" on="0"/>
        <pt x="565" y="-38" on="0"/>
        <pt x="565" y="-61" on="0"/>
        <pt x="562" y="-76" on="1"/>
        <pt x="557" y="-102" on="0"/>
        <pt x="455" y="-123" on="0"/>
        <pt x="410" y="-123" on="1"/>
        <pt x="265" y="-123" on="0"/>
        <pt x="84" y="78" on="0"/>
        <pt x="84" y="240" on="1"/>
        <pt x="84" y="437" on="0"/>
        <pt x="344" y="708" on="0"/>
        <pt x="534" y="708" on="1"/>
        <pt x="685" y="708" on="0"/>
        <pt x="867" y="530" on="0"/>
        <pt x="867" y="247" on="0"/>
        <pt x="732" y="58" on="0"/>
        <pt x="545" y="58" on="0"/>
        <pt x="520" y="122" on="1"/>
        <pt x="482" y="58" on="0"/>
        <pt x="407" y="58" on="1"/>
        <pt x="345" y="58" on="0"/>
        <pt x="272" y="152" on="0"/>
        <pt x="272" y="239" on="1"/>
        <pt x="272" y="359" on="0"/>
        <pt x="375" y="508" on="0"/>
        <pt x="457" y="508" on="1"/>
        <pt x="514" y="508" on="0"/>
        <pt x="559" y="463" on="1"/>
        <pt x="565" y="486" on="0"/>
        <pt x="585" y="503" on="0"/>
        <pt x="611" y="503" on="1"/>
        <pt x="623" y="503" on="1"/>
        <pt x="670" y="503" on="0"/>
      </contour>
      <contour>
        <pt x="454" y="159" on="1"/>
        <pt x="488" y="159" on="0"/>
        <pt x="519" y="207" on="1"/>
        <pt x="532" y="338" on="1"/>
        <pt x="540" y="387" on="1"/>
        <pt x="515" y="410" on="0"/>
        <pt x="486" y="410" on="1"/>
        <pt x="444" y="410" on="0"/>
        <pt x="397" y="326" on="0"/>
        <pt x="397" y="159" on="0"/>
      </contour>
    </TTGlyph>
    <TTGlyph name="atilde" xMin="24" yMin="-9" xMax="532" yMax="707">
      <contour>
        <pt x="437" y="-8" on="1"/>
        <pt x="342" y="-8" on="0"/>
        <pt x="322" y="67" on="1"/>
        <pt x="299" y="33" on="0"/>
        <pt x="228" y="-9" on="0"/>
        <pt x="186" y="-9" on="1"/>
        <pt x="112" y="-9" on="0"/>
        <pt x="24" y="104" on="0"/>
        <pt x="24" y="208" on="1"/>
        <pt x="24" y="352" on="0"/>
        <pt x="148" y="530" on="0"/>
        <pt x="246" y="530" on="1"/>
        <pt x="311" y="530" on="0"/>
        <pt x="367" y="477" on="1"/>
        <pt x="376" y="507" on="0"/>
        <pt x="396" y="523" on="0"/>
        <pt x="432" y="524" on="1"/>
        <pt x="444" y="524" on="1"/>
        <pt x="502" y="524" on="0"/>
        <pt x="502" y="499" on="1"/>
        <pt x="484" y="325" on="1"/>
        <pt x="465" y="151" on="0"/>
        <pt x="465" y="141" on="1"/>
        <pt x="465" y="109" on="0"/>
        <pt x="495" y="109" on="1"/>
        <pt x="503" y="109" on="0"/>
        <pt x="523" y="115" on="0"/>
        <pt x="524" y="115" on="1"/>
        <pt x="532" y="115" on="0"/>
        <pt x="532" y="85" on="0"/>
        <pt x="525" y="44" on="1"/>
        <pt x="521" y="19" on="0"/>
        <pt x="467" y="-8" on="0"/>
      </contour>
      <contour>
        <pt x="242" y="112" on="1"/>
        <pt x="283" y="112" on="0"/>
        <pt x="320" y="170" on="1"/>
        <pt x="332" y="306" on="0"/>
        <pt x="336" y="335" on="0"/>
        <pt x="346" y="386" on="1"/>
        <pt x="315" y="413" on="0"/>
        <pt x="280" y="413" on="1"/>
        <pt x="229" y="413" on="0"/>
        <pt x="174" y="312" on="0"/>
        <pt x="174" y="112" on="0"/>
      </contour>
      <contour>
        <pt x="226" y="614" on="0"/>
        <pt x="194" y="603" on="0"/>
        <pt x="174" y="603" on="0"/>
        <pt x="147" y="631" on="0"/>
        <pt x="147" y="669" on="0"/>
        <pt x="215" y="707" on="0"/>
        <pt x="283" y="707" on="0"/>
        <pt x="359" y="690" on="0"/>
        <pt x="386" y="690" on="0"/>
        <pt x="420" y="701" on="0"/>
        <pt x="441" y="701" on="0"/>
        <pt x="467" y="672" on="0"/>
        <pt x="467" y="634" on="0"/>
        <pt x="399" y="595" on="0"/>
        <pt x="330" y="595" on="0"/>
        <pt x="253" y="614" on="0"/>
      </contour>
    </TTGlyph>
    <TTGlyph name="b" xMin="26" yMin="-8" xMax="524" yMax="754">
      <contour>
        <pt x="84" y="-2" on="1"/>
        <pt x="26" y="-2" on="0"/>
        <pt x="26" y="23" on="1"/>
        <pt x="100" y="722" on="1"/>
        <pt x="103" y="754" on="0"/>
        <pt x="163" y="754" on="1"/>
        <pt x="191" y="754" on="1"/>
        <pt x="219" y="754" on="0"/>
        <pt x="248" y="736" on="0"/>
        <pt x="248" y="723" on="1"/>
        <pt x="221" y="474" on="1"/>
        <pt x="270" y="531" on="0"/>
        <pt x="425" y="531" on="0"/>
        <pt x="524" y="418" on="0"/>
        <pt x="524" y="314" on="1"/>
        <pt x="524" y="170" on="0"/>
        <pt x="389" y="-8" on="0"/>
        <pt x="282" y="-8" on="1"/>
        <pt x="215" y="-8" on="0"/>
        <pt x="161" y="44" on="1"/>
        <pt x="152" y="15" on="0"/>
        <pt x="131" y="-1" on="0"/>
        <pt x="96" y="-2" on="1"/>
      </contour>
      <contour>
        <pt x="248" y="109" on="1"/>
        <pt x="308" y="109" on="0"/>
        <pt x="374" y="210" on="0"/>
        <pt x="374" y="305" on="1"/>
        <pt x="374" y="359" on="0"/>
        <pt x="332" y="410" on="0"/>
        <pt x="246" y="410" on="0"/>
        <pt x="209" y="354" on="1"/>
        <pt x="195" y="223" on="1"/>
        <pt x="183" y="135" on="1"/>
        <pt x="213" y="109" on="0"/>
      </contour>
    </TTGlyph>
    <TTGlyph name="backslash" xMin="37" yMin="-22" xMax="325" yMax="702">
      <contour>
        <pt x="37" y="681" on="1"/>
        <pt x="37" y="702" on="0"/>
        <pt x="83" y="702" on="1"/>
        <pt x="106" y="702" on="1"/>
        <pt x="157" y="702" on="0"/>
        <pt x="162" y="672" on="1"/>
        <pt x="324" y="8" on="1"/>
        <pt x="325" y="5" on="0"/>
        <pt x="325" y="0" on="1"/>
        <pt x="325" y="-22" on="0"/>
        <pt x="280" y="-22" on="1"/>
        <pt x="256" y="-22" on="1"/>
        <pt x="206" y="-22" on="0"/>
        <pt x="200" y="8" on="1"/>
        <pt x="39" y="672" on="1"/>
        <pt x="37" y="678" on="0"/>
      </contour>
    </TTGlyph>
    <TTGlyph name="bar" xMin="68" yMin="-138" xMax="183" yMax="768">
      <contour>
        <pt x="68" y="-108" on="1"/>
        <pt x="68" y="738" on="1"/>
        <pt x="68" y="768" on="0"/>
        <pt x="118" y="768" on="1"/>
        <pt x="133" y="768" on="1"/>
        <pt x="183" y="768" on="0"/>
        <pt x="183" y="738" on="1"/>
        <pt x="183" y="-108" on="1"/>
        <pt x="183" y="-138" on="0"/>
        <pt x="133" y="-138" on="1"/>
        <pt x="118" y="-138" on="1"/>
        <pt x="68" y="-138" on="0"/>
      </contour>
    </TTGlyph>
    <TTGlyph name="braceleft" xMin="16" yMin="-138" xMax="306" yMax="768">
      <contour>
        <pt x="194" y="-44" on="1"/>
        <pt x="220" y="-44" on="0"/>
        <pt x="220" y="-73" on="1"/>
        <pt x="220" y="-138" on="0"/>
        <pt x="184" y="-138" on="1"/>
        <pt x="145" y="-138" on="1"/>
        <pt x="105" y="-138" on="0"/>
        <pt x="57" y="-83" on="0"/>
        <pt x="57" y="-39" on="1"/>
        <pt x="57" y="-22" on="0"/>
        <pt x="78" y="146" on="0"/>
        <pt x="78" y="213" on="0"/>
        <pt x="59" y="252" on="0"/>
        <pt x="47" y="258" on="1"/>
        <pt x="16" y="275" on="0"/>
        <pt x="16" y="331" on="0"/>
        <pt x="31" y="360" on="0"/>
        <pt x="79" y="385" on="0"/>
        <pt x="106" y="434" on="0"/>
        <pt x="111" y="484" on="1"/>
        <pt x="129" y="652" on="1"/>
        <pt x="134" y="704" on="0"/>
        <pt x="194" y="768" on="0"/>
        <pt x="240" y="768" on="1"/>
        <pt x="279" y="768" on="1"/>
        <pt x="306" y="768" on="0"/>
        <pt x="306" y="739" on="1"/>
        <pt x="306" y="674" on="0"/>
        <pt x="269" y="674" on="1"/>
        <pt x="245" y="674" on="0"/>
        <pt x="242" y="638" on="1"/>
        <pt x="225" y="468" on="1"/>
        <pt x="213" y="358" on="0"/>
        <pt x="141" y="315" on="1"/>
        <pt x="194" y="283" on="0"/>
        <pt x="194" y="195" on="1"/>
        <pt x="194" y="173" on="0"/>
        <pt x="174" y="-1" on="0"/>
        <pt x="174" y="-44" on="0"/>
      </contour>
    </TTGlyph>
    <TTGlyph name="braceright" xMin="-27" yMin="-138" xMax="263" yMax="768">
      <contour>
        <pt x="85" y="674" on="1"/>
        <pt x="59" y="674" on="0"/>
        <pt x="59" y="703" on="1"/>
        <pt x="59" y="768" on="0"/>
        <pt x="95" y="768" on="1"/>
        <pt x="134" y="768" on="1"/>
        <pt x="174" y="768" on="0"/>
        <pt x="222" y="713" on="0"/>
        <pt x="222" y="669" on="1"/>
        <pt x="222" y="652" on="0"/>
        <pt x="201" y="484" on="0"/>
        <pt x="201" y="417" on="0"/>
        <pt x="220" y="378" on="0"/>
        <pt x="232" y="372" on="1"/>
        <pt x="263" y="355" on="0"/>
        <pt x="263" y="298" on="0"/>
        <pt x="248" y="269" on="0"/>
        <pt x="200" y="245" on="0"/>
        <pt x="173" y="194" on="0"/>
        <pt x="168" y="146" on="1"/>
        <pt x="150" y="-22" on="1"/>
        <pt x="145" y="-74" on="0"/>
        <pt x="85" y="-138" on="0"/>
        <pt x="39" y="-138" on="1"/>
        <pt x="0" y="-138" on="1"/>
        <pt x="-27" y="-138" on="0"/>
        <pt x="-27" y="-109" on="1"/>
        <pt x="-27" y="-44" on="0"/>
        <pt x="10" y="-44" on="1"/>
        <pt x="33" y="-44" on="0"/>
        <pt x="37" y="-8" on="1"/>
        <pt x="54" y="162" on="1"/>
        <pt x="65" y="273" on="0"/>
        <pt x="138" y="315" on="1"/>
        <pt x="85" y="347" on="0"/>
        <pt x="85" y="435" on="1"/>
        <pt x="85" y="457" on="0"/>
        <pt x="105" y="631" on="0"/>
        <pt x="105" y="674" on="0"/>
      </contour>
    </TTGlyph>
    <TTGlyph name="bracketleft" xMin="22" yMin="-138" xMax="306" yMax="768">
      <contour>
        <pt x="269" y="673" on="1"/>
        <pt x="218" y="673" on="1"/>
        <pt x="143" y="-43" on="1"/>
        <pt x="195" y="-43" on="1"/>
        <pt x="221" y="-43" on="0"/>
        <pt x="221" y="-73" on="1"/>
        <pt x="221" y="-138" on="0"/>
        <pt x="184" y="-138" on="1"/>
        <pt x="58" y="-138" on="1"/>
        <pt x="38" y="-138" on="0"/>
        <pt x="22" y="-124" on="0"/>
        <pt x="22" y="-106" on="1"/>
        <pt x="109" y="728" on="1"/>
        <pt x="113" y="768" on="0"/>
        <pt x="153" y="768" on="1"/>
        <pt x="280" y="768" on="1"/>
        <pt x="306" y="768" on="0"/>
        <pt x="306" y="738" on="1"/>
        <pt x="306" y="673" on="0"/>
      </contour>
    </TTGlyph>
    <TTGlyph name="bracketright" xMin="-14" yMin="-138" xMax="270" yMax="768">
      <contour>
        <pt x="23" y="-43" on="1"/>
        <pt x="74" y="-43" on="1"/>
        <pt x="149" y="673" on="1"/>
        <pt x="97" y="673" on="1"/>
        <pt x="71" y="673" on="0"/>
        <pt x="71" y="703" on="1"/>
        <pt x="71" y="768" on="0"/>
        <pt x="108" y="768" on="1"/>
        <pt x="234" y="768" on="1"/>
        <pt x="254" y="768" on="0"/>
        <pt x="270" y="754" on="0"/>
        <pt x="270" y="736" on="1"/>
        <pt x="183" y="-98" on="1"/>
        <pt x="179" y="-138" on="0"/>
        <pt x="139" y="-138" on="1"/>
        <pt x="12" y="-138" on="1"/>
        <pt x="-14" y="-138" on="0"/>
        <pt x="-14" y="-108" on="1"/>
        <pt x="-14" y="-43" on="0"/>
      </contour>
    </TTGlyph>
    <TTGlyph name="breve" xMin="14" yMin="575" xMax="309" yMax="715">
      <contour>
        <pt x="131" y="666" on="0"/>
        <pt x="189" y="666" on="0"/>
        <pt x="229" y="681" on="0"/>
        <pt x="236" y="690" on="1"/>
        <pt x="254" y="715" on="0"/>
        <pt x="309" y="715" on="0"/>
        <pt x="309" y="691" on="1"/>
        <pt x="309" y="646" on="0"/>
        <pt x="214" y="575" on="0"/>
        <pt x="90" y="575" on="0"/>
        <pt x="14" y="636" on="0"/>
        <pt x="14" y="715" on="0"/>
        <pt x="53" y="715" on="1"/>
        <pt x="76" y="715" on="0"/>
        <pt x="89" y="690" on="1"/>
        <pt x="94" y="681" on="0"/>
      </contour>
    </TTGlyph>
    <TTGlyph name="brokenbar" xMin="23" yMin="-140" xMax="227" yMax="770">
      <contour>
        <pt x="77" y="407" on="1"/>
        <pt x="78" y="411" on="0"/>
        <pt x="78" y="412" on="1"/>
        <pt x="112" y="738" on="1"/>
        <pt x="115" y="770" on="0"/>
        <pt x="165" y="770" on="1"/>
        <pt x="180" y="770" on="1"/>
        <pt x="227" y="770" on="0"/>
        <pt x="227" y="738" on="1"/>
        <pt x="193" y="412" on="1"/>
        <pt x="190" y="380" on="0"/>
        <pt x="139" y="380" on="1"/>
        <pt x="124" y="380" on="1"/>
        <pt x="77" y="380" on="0"/>
      </contour>
      <contour>
        <pt x="111" y="250" on="1"/>
        <pt x="126" y="250" on="1"/>
        <pt x="152" y="250" on="0"/>
        <pt x="172" y="235" on="0"/>
        <pt x="172" y="218" on="1"/>
        <pt x="138" y="-108" on="1"/>
        <pt x="135" y="-140" on="0"/>
        <pt x="85" y="-140" on="1"/>
        <pt x="70" y="-140" on="1"/>
        <pt x="43" y="-140" on="0"/>
        <pt x="23" y="-125" on="0"/>
        <pt x="23" y="-108" on="1"/>
        <pt x="57" y="218" on="1"/>
        <pt x="60" y="250" on="0"/>
      </contour>
    </TTGlyph>
    <TTGlyph name="bullet" xMin="34" yMin="194" xMax="301" yMax="459">
      <contour>
        <pt x="102" y="194" on="0"/>
        <pt x="34" y="262" on="0"/>
        <pt x="34" y="370" on="0"/>
        <pt x="118" y="459" on="0"/>
        <pt x="232" y="459" on="0"/>
        <pt x="301" y="390" on="0"/>
        <pt x="301" y="280" on="0"/>
        <pt x="217" y="194" on="0"/>
      </contour>
    </TTGlyph>
    <TTGlyph name="c" xMin="33" yMin="-8" xMax="471" yMax="531">
      <contour>
        <pt x="431" y="135" on="1"/>
        <pt x="431" y="85" on="0"/>
        <pt x="423" y="58" on="1"/>
        <pt x="411" y="24" on="0"/>
        <pt x="310" y="-8" on="0"/>
        <pt x="260" y="-8" on="1"/>
        <pt x="33" y="-8" on="0"/>
        <pt x="33" y="204" on="1"/>
        <pt x="33" y="343" on="0"/>
        <pt x="94" y="432" on="1"/>
        <pt x="125" y="479" on="0"/>
        <pt x="237" y="531" on="0"/>
        <pt x="367" y="531" on="0"/>
        <pt x="470" y="500" on="0"/>
        <pt x="471" y="462" on="1"/>
        <pt x="471" y="446" on="0"/>
        <pt x="431" y="386" on="0"/>
        <pt x="416" y="386" on="1"/>
        <pt x="412" y="386" on="0"/>
        <pt x="400" y="393" on="1"/>
        <pt x="361" y="414" on="0"/>
        <pt x="318" y="414" on="1"/>
        <pt x="186" y="414" on="0"/>
        <pt x="186" y="219" on="1"/>
        <pt x="186" y="163" on="0"/>
        <pt x="231" y="109" on="0"/>
        <pt x="339" y="109" on="0"/>
        <pt x="403" y="141" on="1"/>
        <pt x="419" y="149" on="0"/>
        <pt x="431" y="149" on="0"/>
      </contour>
    </TTGlyph>
    <TTGlyph name="caron" xMin="27" yMin="582" xMax="300" yMax="728">
      <contour>
        <pt x="154" y="582" on="1"/>
        <pt x="143" y="582" on="1"/>
        <pt x="95" y="582" on="0"/>
        <pt x="84" y="601" on="1"/>
        <pt x="30" y="703" on="1"/>
        <pt x="27" y="710" on="0"/>
        <pt x="27" y="715" on="1"/>
        <pt x="27" y="728" on="0"/>
        <pt x="46" y="728" on="1"/>
        <pt x="68" y="728" on="1"/>
        <pt x="116" y="728" on="0"/>
        <pt x="132" y="704" on="1"/>
        <pt x="157" y="664" on="1"/>
        <pt x="188" y="703" on="1"/>
        <pt x="206" y="726" on="0"/>
        <pt x="257" y="728" on="1"/>
        <pt x="281" y="728" on="1"/>
        <pt x="300" y="728" on="0"/>
        <pt x="300" y="718" on="1"/>
        <pt x="300" y="711" on="0"/>
        <pt x="293" y="703" on="1"/>
        <pt x="217" y="601" on="1"/>
        <pt x="203" y="582" on="0"/>
      </contour>
    </TTGlyph>
    <TTGlyph name="ccedilla" xMin="33" yMin="-207" xMax="471" yMax="531">
      <contour>
        <pt x="150" y="-182" on="1"/>
        <pt x="139" y="-171" on="0"/>
        <pt x="139" y="-155" on="1"/>
        <pt x="139" y="-107" on="0"/>
        <pt x="153" y="-107" on="1"/>
        <pt x="155" y="-107" on="0"/>
        <pt x="215" y="-134" on="0"/>
        <pt x="265" y="-134" on="0"/>
        <pt x="267" y="-117" on="1"/>
        <pt x="267" y="-105" on="0"/>
        <pt x="219" y="-81" on="0"/>
        <pt x="219" y="-69" on="1"/>
        <pt x="219" y="-60" on="0"/>
        <pt x="242" y="-7" on="1"/>
        <pt x="33" y="0" on="0"/>
        <pt x="33" y="204" on="1"/>
        <pt x="33" y="343" on="0"/>
        <pt x="94" y="432" on="1"/>
        <pt x="125" y="479" on="0"/>
        <pt x="237" y="531" on="0"/>
        <pt x="367" y="531" on="0"/>
        <pt x="470" y="500" on="0"/>
        <pt x="471" y="462" on="1"/>
        <pt x="471" y="446" on="0"/>
        <pt x="431" y="386" on="0"/>
        <pt x="416" y="386" on="1"/>
        <pt x="412" y="386" on="0"/>
        <pt x="400" y="393" on="1"/>
        <pt x="361" y="414" on="0"/>
        <pt x="318" y="414" on="1"/>
        <pt x="186" y="414" on="0"/>
        <pt x="186" y="219" on="1"/>
        <pt x="186" y="163" on="0"/>
        <pt x="231" y="109" on="0"/>
        <pt x="339" y="109" on="0"/>
        <pt x="403" y="141" on="1"/>
        <pt x="419" y="149" on="0"/>
        <pt x="431" y="149" on="0"/>
        <pt x="431" y="135" on="1"/>
        <pt x="431" y="85" on="0"/>
        <pt x="423" y="58" on="1"/>
        <pt x="406" y="11" on="0"/>
        <pt x="311" y="-3" on="1"/>
        <pt x="301" y="-31" on="1"/>
        <pt x="371" y="-48" on="0"/>
        <pt x="371" y="-155" on="0"/>
        <pt x="303" y="-207" on="0"/>
        <pt x="175" y="-207" on="0"/>
      </contour>
    </TTGlyph>
    <TTGlyph name="cedilla" xMin="45" yMin="-212" xMax="277" yMax="10">
      <contour>
        <pt x="56" y="-188" on="1"/>
        <pt x="45" y="-176" on="0"/>
        <pt x="45" y="-160" on="1"/>
        <pt x="45" y="-112" on="0"/>
        <pt x="59" y="-112" on="1"/>
        <pt x="61" y="-112" on="0"/>
        <pt x="121" y="-139" on="0"/>
        <pt x="171" y="-139" on="0"/>
        <pt x="173" y="-122" on="1"/>
        <pt x="173" y="-110" on="0"/>
        <pt x="125" y="-86" on="0"/>
        <pt x="125" y="-74" on="1"/>
        <pt x="125" y="-66" on="0"/>
        <pt x="159" y="10" on="1"/>
        <pt x="225" y="10" on="1"/>
        <pt x="207" y="-36" on="1"/>
        <pt x="277" y="-53" on="0"/>
        <pt x="277" y="-160" on="0"/>
        <pt x="209" y="-212" on="0"/>
        <pt x="81" y="-212" on="0"/>
      </contour>
    </TTGlyph>
    <TTGlyph name="cent" xMin="38" yMin="-75" xMax="468" yMax="591">
      <contour>
        <pt x="468" y="462" on="1"/>
        <pt x="468" y="446" on="0"/>
        <pt x="428" y="386" on="0"/>
        <pt x="413" y="386" on="1"/>
        <pt x="410" y="386" on="0"/>
        <pt x="364" y="410" on="0"/>
        <pt x="336" y="413" on="1"/>
        <pt x="304" y="110" on="1"/>
        <pt x="350" y="115" on="0"/>
        <pt x="400" y="141" on="1"/>
        <pt x="416" y="149" on="0"/>
        <pt x="420" y="149" on="1"/>
        <pt x="428" y="149" on="0"/>
        <pt x="428" y="135" on="1"/>
        <pt x="428" y="84" on="0"/>
        <pt x="420" y="58" on="1"/>
        <pt x="404" y="5" on="0"/>
        <pt x="292" y="-6" on="1"/>
        <pt x="287" y="-55" on="1"/>
        <pt x="284" y="-75" on="0"/>
        <pt x="265" y="-75" on="1"/>
        <pt x="248" y="-75" on="1"/>
        <pt x="237" y="-75" on="0"/>
        <pt x="230" y="-66" on="0"/>
        <pt x="230" y="-55" on="1"/>
        <pt x="235" y="-7" on="1"/>
        <pt x="38" y="3" on="0"/>
        <pt x="38" y="204" on="1"/>
        <pt x="38" y="343" on="0"/>
        <pt x="158" y="523" on="0"/>
        <pt x="291" y="530" on="1"/>
        <pt x="296" y="571" on="1"/>
        <pt x="299" y="591" on="0"/>
        <pt x="318" y="591" on="1"/>
        <pt x="335" y="591" on="1"/>
        <pt x="353" y="591" on="0"/>
        <pt x="353" y="571" on="1"/>
        <pt x="348" y="529" on="1"/>
        <pt x="468" y="517" on="0"/>
      </contour>
      <contour>
        <pt x="189" y="219" on="1"/>
        <pt x="189" y="129" on="0"/>
        <pt x="247" y="113" on="1"/>
        <pt x="279" y="408" on="1"/>
        <pt x="189" y="381" on="0"/>
      </contour>
    </TTGlyph>
    <TTGlyph name="circumflex" xMin="12" yMin="582" xMax="285" yMax="728">
      <contour>
        <pt x="158" y="728" on="1"/>
        <pt x="169" y="728" on="1"/>
        <pt x="217" y="728" on="0"/>
        <pt x="228" y="709" on="1"/>
        <pt x="282" y="607" on="1"/>
        <pt x="285" y="599" on="0"/>
        <pt x="285" y="595" on="1"/>
        <pt x="285" y="582" on="0"/>
        <pt x="266" y="582" on="1"/>
        <pt x="244" y="582" on="1"/>
        <pt x="195" y="582" on="0"/>
        <pt x="180" y="606" on="1"/>
        <pt x="155" y="646" on="1"/>
        <pt x="124" y="607" on="1"/>
        <pt x="105" y="582" on="0"/>
        <pt x="55" y="582" on="1"/>
        <pt x="31" y="582" on="1"/>
        <pt x="12" y="582" on="0"/>
        <pt x="12" y="592" on="1"/>
        <pt x="12" y="599" on="0"/>
        <pt x="19" y="607" on="1"/>
        <pt x="95" y="709" on="1"/>
        <pt x="109" y="728" on="0"/>
      </contour>
    </TTGlyph>
    <TTGlyph name="colon" xMin="-2" yMin="-2" xMax="198" yMax="525">
      <contour>
        <pt x="109" y="525" on="1"/>
        <pt x="141" y="525" on="1"/>
        <pt x="198" y="525" on="0"/>
        <pt x="198" y="493" on="1"/>
        <pt x="188" y="401" on="1"/>
        <pt x="185" y="369" on="0"/>
        <pt x="125" y="369" on="1"/>
        <pt x="93" y="369" on="1"/>
        <pt x="36" y="369" on="0"/>
        <pt x="36" y="401" on="1"/>
        <pt x="46" y="493" on="1"/>
        <pt x="49" y="525" on="0"/>
      </contour>
      <contour>
        <pt x="70" y="154" on="1"/>
        <pt x="102" y="154" on="1"/>
        <pt x="159" y="154" on="0"/>
        <pt x="159" y="122" on="1"/>
        <pt x="149" y="30" on="1"/>
        <pt x="146" y="-2" on="0"/>
        <pt x="86" y="-2" on="1"/>
        <pt x="54" y="-2" on="1"/>
        <pt x="-2" y="-2" on="0"/>
        <pt x="-2" y="30" on="1"/>
        <pt x="7" y="122" on="1"/>
        <pt x="10" y="154" on="0"/>
      </contour>
    </TTGlyph>
    <TTGlyph name="comma" xMin="-21" yMin="-125" xMax="184" yMax="154">
      <contour>
        <pt x="109" y="154" on="1"/>
        <pt x="128" y="154" on="1"/>
        <pt x="184" y="154" on="0"/>
        <pt x="184" y="74" on="0"/>
        <pt x="122" y="-42" on="0"/>
        <pt x="44" y="-125" on="0"/>
        <pt x="21" y="-125" on="1"/>
        <pt x="-21" y="-125" on="0"/>
        <pt x="-21" y="-105" on="1"/>
        <pt x="-21" y="-94" on="0"/>
        <pt x="-8" y="-70" on="1"/>
        <pt x="33" y="8" on="0"/>
        <pt x="45" y="110" on="1"/>
        <pt x="48" y="154" on="0"/>
      </contour>
    </TTGlyph>
    <TTGlyph name="copyright" xMin="10" yMin="-8" xMax="726" yMax="708">
      <contour>
        <pt x="10" y="202" on="0"/>
        <pt x="10" y="498" on="0"/>
        <pt x="220" y="708" on="0"/>
        <pt x="516" y="708" on="0"/>
        <pt x="726" y="498" on="0"/>
        <pt x="726" y="202" on="0"/>
        <pt x="516" y="-8" on="0"/>
        <pt x="220" y="-8" on="0"/>
      </contour>
      <contour>
        <pt x="74" y="472" on="0"/>
        <pt x="74" y="228" on="0"/>
        <pt x="246" y="56" on="0"/>
        <pt x="490" y="56" on="0"/>
        <pt x="662" y="228" on="0"/>
        <pt x="662" y="472" on="0"/>
        <pt x="490" y="644" on="0"/>
        <pt x="246" y="644" on="0"/>
      </contour>
      <contour>
        <pt x="197" y="353" on="1"/>
        <pt x="197" y="552" on="0"/>
        <pt x="383" y="552" on="1"/>
        <pt x="424" y="552" on="0"/>
        <pt x="500" y="529" on="0"/>
        <pt x="500" y="513" on="1"/>
        <pt x="500" y="500" on="0"/>
        <pt x="474" y="460" on="0"/>
        <pt x="464" y="460" on="1"/>
        <pt x="462" y="460" on="0"/>
        <pt x="452" y="464" on="1"/>
        <pt x="424" y="478" on="0"/>
        <pt x="382" y="478" on="1"/>
        <pt x="285" y="478" on="0"/>
        <pt x="285" y="225" on="0"/>
        <pt x="381" y="225" on="1"/>
        <pt x="424" y="225" on="0"/>
        <pt x="458" y="242" on="1"/>
        <pt x="470" y="248" on="0"/>
        <pt x="472" y="248" on="1"/>
        <pt x="484" y="248" on="0"/>
        <pt x="505" y="209" on="0"/>
        <pt x="505" y="199" on="1"/>
        <pt x="505" y="176" on="0"/>
        <pt x="423" y="152" on="0"/>
        <pt x="381" y="152" on="1"/>
        <pt x="287" y="152" on="0"/>
        <pt x="197" y="250" on="0"/>
      </contour>
    </TTGlyph>
    <TTGlyph name="currency" xMin="25" yMin="72" xMax="500" yMax="514">
      <contour>
        <pt x="35" y="114" on="1"/>
        <pt x="25" y="126" on="0"/>
        <pt x="25" y="150" on="0"/>
        <pt x="40" y="164" on="1"/>
        <pt x="64" y="186" on="1"/>
        <pt x="47" y="223" on="0"/>
        <pt x="47" y="266" on="1"/>
        <pt x="47" y="339" on="0"/>
        <pt x="88" y="395" on="1"/>
        <pt x="64" y="422" on="1"/>
        <pt x="55" y="433" on="0"/>
        <pt x="55" y="459" on="0"/>
        <pt x="69" y="472" on="1"/>
        <pt x="102" y="502" on="1"/>
        <pt x="115" y="514" on="0"/>
        <pt x="142" y="514" on="0"/>
        <pt x="152" y="502" on="1"/>
        <pt x="178" y="474" on="1"/>
        <pt x="228" y="500" on="0"/>
        <pt x="335" y="500" on="0"/>
        <pt x="381" y="473" on="1"/>
        <pt x="413" y="502" on="1"/>
        <pt x="426" y="514" on="0"/>
        <pt x="452" y="514" on="0"/>
        <pt x="463" y="502" on="1"/>
        <pt x="490" y="472" on="1"/>
        <pt x="500" y="460" on="0"/>
        <pt x="500" y="436" on="0"/>
        <pt x="485" y="422" on="1"/>
        <pt x="453" y="393" on="1"/>
        <pt x="471" y="356" on="0"/>
        <pt x="471" y="312" on="1"/>
        <pt x="471" y="245" on="0"/>
        <pt x="433" y="188" on="1"/>
        <pt x="455" y="164" on="1"/>
        <pt x="464" y="154" on="0"/>
        <pt x="464" y="127" on="0"/>
        <pt x="450" y="114" on="1"/>
        <pt x="417" y="84" on="1"/>
        <pt x="404" y="72" on="0"/>
        <pt x="378" y="72" on="0"/>
        <pt x="367" y="84" on="1"/>
        <pt x="346" y="107" on="1"/>
        <pt x="296" y="78" on="0"/>
        <pt x="181" y="78" on="0"/>
        <pt x="135" y="105" on="1"/>
        <pt x="112" y="84" on="1"/>
        <pt x="98" y="72" on="0"/>
        <pt x="72" y="72" on="0"/>
        <pt x="62" y="84" on="1"/>
      </contour>
      <contour>
        <pt x="161" y="241" on="0"/>
        <pt x="211" y="192" on="0"/>
        <pt x="292" y="192" on="0"/>
        <pt x="356" y="256" on="0"/>
        <pt x="356" y="337" on="0"/>
        <pt x="306" y="386" on="0"/>
        <pt x="225" y="386" on="0"/>
        <pt x="161" y="322" on="0"/>
      </contour>
    </TTGlyph>
    <TTGlyph name="d" xMin="26" yMin="-8" xMax="544" yMax="754">
      <contour>
        <pt x="449" y="-8" on="1"/>
        <pt x="354" y="-8" on="0"/>
        <pt x="334" y="69" on="1"/>
        <pt x="286" y="-8" on="0"/>
        <pt x="119" y="-8" on="0"/>
        <pt x="26" y="105" on="0"/>
        <pt x="26" y="209" on="1"/>
        <pt x="26" y="353" on="0"/>
        <pt x="155" y="531" on="0"/>
        <pt x="258" y="531" on="1"/>
        <pt x="315" y="531" on="0"/>
        <pt x="365" y="490" on="1"/>
        <pt x="390" y="722" on="1"/>
        <pt x="393" y="754" on="0"/>
        <pt x="453" y="754" on="1"/>
        <pt x="481" y="754" on="1"/>
        <pt x="509" y="754" on="0"/>
        <pt x="538" y="736" on="0"/>
        <pt x="538" y="723" on="1"/>
        <pt x="477" y="152" on="0"/>
        <pt x="477" y="142" on="1"/>
        <pt x="477" y="109" on="0"/>
        <pt x="507" y="109" on="1"/>
        <pt x="515" y="109" on="0"/>
        <pt x="535" y="115" on="0"/>
        <pt x="536" y="115" on="1"/>
        <pt x="544" y="115" on="0"/>
        <pt x="544" y="85" on="0"/>
        <pt x="537" y="44" on="1"/>
        <pt x="533" y="19" on="0"/>
        <pt x="479" y="-8" on="0"/>
      </contour>
      <contour>
        <pt x="292" y="414" on="1"/>
        <pt x="237" y="414" on="0"/>
        <pt x="176" y="313" on="0"/>
        <pt x="176" y="113" on="0"/>
        <pt x="254" y="113" on="1"/>
        <pt x="296" y="113" on="0"/>
        <pt x="333" y="172" on="1"/>
        <pt x="334" y="182" on="0"/>
        <pt x="350" y="339" on="0"/>
        <pt x="355" y="390" on="1"/>
        <pt x="325" y="414" on="0"/>
      </contour>
    </TTGlyph>
    <TTGlyph name="dagger" xMin="62" yMin="-140" xMax="510" yMax="702">
      <contour>
        <pt x="88" y="410" on="1"/>
        <pt x="62" y="410" on="0"/>
        <pt x="62" y="444" on="1"/>
        <pt x="62" y="517" on="0"/>
        <pt x="99" y="517" on="1"/>
        <pt x="234" y="517" on="1"/>
        <pt x="250" y="670" on="1"/>
        <pt x="253" y="702" on="0"/>
        <pt x="304" y="702" on="1"/>
        <pt x="319" y="702" on="1"/>
        <pt x="345" y="702" on="0"/>
        <pt x="365" y="687" on="0"/>
        <pt x="365" y="670" on="1"/>
        <pt x="349" y="517" on="1"/>
        <pt x="484" y="517" on="1"/>
        <pt x="510" y="517" on="0"/>
        <pt x="510" y="483" on="1"/>
        <pt x="510" y="410" on="0"/>
        <pt x="473" y="410" on="1"/>
        <pt x="338" y="410" on="1"/>
        <pt x="284" y="-108" on="1"/>
        <pt x="281" y="-140" on="0"/>
        <pt x="230" y="-140" on="1"/>
        <pt x="215" y="-140" on="1"/>
        <pt x="168" y="-140" on="0"/>
        <pt x="168" y="-113" on="1"/>
        <pt x="223" y="410" on="1"/>
      </contour>
    </TTGlyph>
    <TTGlyph name="daggerdbl" xMin="24" yMin="-140" xMax="510" yMax="702">
      <contour>
        <pt x="88" y="410" on="1"/>
        <pt x="62" y="410" on="0"/>
        <pt x="62" y="444" on="1"/>
        <pt x="62" y="517" on="0"/>
        <pt x="99" y="517" on="1"/>
        <pt x="234" y="517" on="1"/>
        <pt x="250" y="670" on="1"/>
        <pt x="253" y="702" on="0"/>
        <pt x="304" y="702" on="1"/>
        <pt x="319" y="702" on="1"/>
        <pt x="345" y="702" on="0"/>
        <pt x="365" y="687" on="0"/>
        <pt x="365" y="670" on="1"/>
        <pt x="349" y="517" on="1"/>
        <pt x="484" y="517" on="1"/>
        <pt x="510" y="517" on="0"/>
        <pt x="510" y="483" on="1"/>
        <pt x="510" y="410" on="0"/>
        <pt x="473" y="410" on="1"/>
        <pt x="338" y="410" on="1"/>
        <pt x="310" y="150" on="1"/>
        <pt x="446" y="150" on="1"/>
        <pt x="472" y="150" on="0"/>
        <pt x="472" y="116" on="1"/>
        <pt x="472" y="43" on="0"/>
        <pt x="435" y="43" on="1"/>
        <pt x="299" y="43" on="1"/>
        <pt x="284" y="-108" on="1"/>
        <pt x="281" y="-140" on="0"/>
        <pt x="230" y="-140" on="1"/>
        <pt x="215" y="-140" on="1"/>
        <pt x="168" y="-140" on="0"/>
        <pt x="168" y="-113" on="1"/>
        <pt x="170" y="-98" on="0"/>
        <pt x="178" y="-19" on="0"/>
        <pt x="185" y="43" on="1"/>
        <pt x="50" y="43" on="1"/>
        <pt x="24" y="43" on="0"/>
        <pt x="24" y="77" on="1"/>
        <pt x="24" y="150" on="0"/>
        <pt x="61" y="150" on="1"/>
        <pt x="196" y="150" on="1"/>
        <pt x="223" y="410" on="1"/>
      </contour>
    </TTGlyph>
    <TTGlyph name="degree" xMin="36" yMin="443" xMax="303" yMax="708">
      <contour>
        <pt x="104" y="443" on="0"/>
        <pt x="36" y="512" on="0"/>
        <pt x="36" y="620" on="0"/>
        <pt x="118" y="708" on="0"/>
        <pt x="234" y="708" on="0"/>
        <pt x="303" y="639" on="0"/>
        <pt x="303" y="528" on="0"/>
        <pt x="221" y="443" on="0"/>
      </contour>
      <contour>
        <pt x="237" y="610" on="0"/>
        <pt x="202" y="646" on="0"/>
        <pt x="142" y="646" on="0"/>
        <pt x="101" y="599" on="0"/>
        <pt x="101" y="541" on="0"/>
        <pt x="136" y="505" on="0"/>
        <pt x="196" y="505" on="0"/>
        <pt x="237" y="551" on="0"/>
      </contour>
    </TTGlyph>
    <TTGlyph name="dieresis" xMin="7" yMin="578" xMax="314" yMax="702">
      <contour>
        <pt x="194" y="670" on="1"/>
        <pt x="197" y="702" on="0"/>
        <pt x="314" y="702" on="0"/>
        <pt x="314" y="670" on="1"/>
        <pt x="307" y="610" on="1"/>
        <pt x="302" y="578" on="0"/>
        <pt x="187" y="578" on="0"/>
        <pt x="187" y="610" on="1"/>
      </contour>
      <contour>
        <pt x="14" y="670" on="1"/>
        <pt x="17" y="702" on="0"/>
        <pt x="134" y="702" on="0"/>
        <pt x="134" y="670" on="1"/>
        <pt x="127" y="610" on="1"/>
        <pt x="122" y="578" on="0"/>
        <pt x="7" y="578" on="0"/>
        <pt x="7" y="610" on="1"/>
      </contour>
    </TTGlyph>
    <TTGlyph name="divide" xMin="29" yMin="-2" xMax="533" yMax="453">
      <contour>
        <pt x="297" y="453" on="1"/>
        <pt x="308" y="453" on="1"/>
        <pt x="365" y="453" on="0"/>
        <pt x="365" y="421" on="1"/>
        <pt x="358" y="350" on="1"/>
        <pt x="355" y="318" on="0"/>
        <pt x="294" y="318" on="1"/>
        <pt x="283" y="318" on="1"/>
        <pt x="250" y="318" on="0"/>
        <pt x="227" y="333" on="0"/>
        <pt x="227" y="350" on="1"/>
        <pt x="234" y="421" on="1"/>
        <pt x="237" y="453" on="0"/>
      </contour>
      <contour>
        <pt x="29" y="206" on="1"/>
        <pt x="29" y="279" on="0"/>
        <pt x="66" y="279" on="1"/>
        <pt x="507" y="279" on="1"/>
        <pt x="533" y="279" on="0"/>
        <pt x="533" y="245" on="1"/>
        <pt x="533" y="172" on="0"/>
        <pt x="496" y="172" on="1"/>
        <pt x="55" y="172" on="1"/>
        <pt x="29" y="172" on="0"/>
      </contour>
      <contour>
        <pt x="264" y="133" on="1"/>
        <pt x="275" y="133" on="1"/>
        <pt x="331" y="133" on="0"/>
        <pt x="331" y="101" on="1"/>
        <pt x="324" y="30" on="1"/>
        <pt x="321" y="-2" on="0"/>
        <pt x="261" y="-2" on="1"/>
        <pt x="250" y="-2" on="1"/>
        <pt x="193" y="-2" on="0"/>
        <pt x="193" y="30" on="1"/>
        <pt x="200" y="101" on="1"/>
        <pt x="203" y="133" on="0"/>
      </contour>
    </TTGlyph>
    <TTGlyph name="dollar" xMin="24" yMin="-75" xMax="480" yMax="765">
      <contour>
        <pt x="480" y="640" on="1"/>
        <pt x="480" y="619" on="0"/>
        <pt x="433" y="551" on="0"/>
        <pt x="416" y="551" on="1"/>
        <pt x="415" y="551" on="0"/>
        <pt x="351" y="575" on="0"/>
        <pt x="314" y="576" on="1"/>
        <pt x="298" y="420" on="1"/>
        <pt x="401" y="373" on="0"/>
        <pt x="430" y="336" on="1"/>
        <pt x="466" y="291" on="0"/>
        <pt x="466" y="233" on="1"/>
        <pt x="466" y="118" on="0"/>
        <pt x="343" y="4" on="0"/>
        <pt x="253" y="-6" on="1"/>
        <pt x="248" y="-55" on="1"/>
        <pt x="245" y="-75" on="0"/>
        <pt x="226" y="-75" on="1"/>
        <pt x="209" y="-75" on="1"/>
        <pt x="198" y="-75" on="0"/>
        <pt x="191" y="-66" on="0"/>
        <pt x="191" y="-55" on="1"/>
        <pt x="196" y="-7" on="1"/>
        <pt x="132" y="-4" on="0"/>
        <pt x="24" y="34" on="0"/>
        <pt x="24" y="70" on="1"/>
        <pt x="24" y="181" on="0"/>
        <pt x="50" y="181" on="1"/>
        <pt x="55" y="181" on="0"/>
        <pt x="76" y="166" on="1"/>
        <pt x="137" y="123" on="0"/>
        <pt x="204" y="123" on="1"/>
        <pt x="209" y="123" on="1"/>
        <pt x="227" y="289" on="1"/>
        <pt x="132" y="328" on="0"/>
        <pt x="106" y="354" on="1"/>
        <pt x="65" y="393" on="0"/>
        <pt x="47" y="454" on="0"/>
        <pt x="47" y="483" on="1"/>
        <pt x="47" y="587" on="0"/>
        <pt x="175" y="697" on="0"/>
        <pt x="271" y="706" on="1"/>
        <pt x="275" y="745" on="1"/>
        <pt x="276" y="765" on="0"/>
        <pt x="297" y="765" on="1"/>
        <pt x="314" y="765" on="1"/>
        <pt x="332" y="765" on="0"/>
        <pt x="332" y="745" on="1"/>
        <pt x="328" y="707" on="1"/>
        <pt x="394" y="704" on="0"/>
        <pt x="480" y="664" on="0"/>
      </contour>
      <contour>
        <pt x="196" y="510" on="1"/>
        <pt x="196" y="474" on="0"/>
        <pt x="243" y="447" on="1"/>
        <pt x="256" y="571" on="1"/>
        <pt x="196" y="557" on="0"/>
      </contour>
      <contour>
        <pt x="317" y="203" on="1"/>
        <pt x="317" y="234" on="0"/>
        <pt x="281" y="260" on="1"/>
        <pt x="267" y="133" on="1"/>
        <pt x="317" y="151" on="0"/>
      </contour>
    </TTGlyph>
    <TTGlyph name="dotaccent" xMin="100" yMin="578" xMax="227" yMax="702">
      <contour>
        <pt x="107" y="670" on="1"/>
        <pt x="110" y="702" on="0"/>
        <pt x="227" y="702" on="0"/>
        <pt x="227" y="670" on="1"/>
        <pt x="220" y="610" on="1"/>
        <pt x="215" y="578" on="0"/>
        <pt x="100" y="578" on="0"/>
        <pt x="100" y="610" on="1"/>
      </contour>
    </TTGlyph>
    <TTGlyph name="dotlessi" xMin="29" yMin="-8" xMax="245" yMax="525">
      <contour>
        <pt x="130" y="525" on="1"/>
        <pt x="158" y="525" on="1"/>
        <pt x="186" y="525" on="0"/>
        <pt x="215" y="507" on="0"/>
        <pt x="215" y="494" on="1"/>
        <pt x="178" y="152" on="0"/>
        <pt x="178" y="142" on="1"/>
        <pt x="178" y="109" on="0"/>
        <pt x="208" y="109" on="1"/>
        <pt x="216" y="109" on="0"/>
        <pt x="236" y="115" on="0"/>
        <pt x="237" y="115" on="1"/>
        <pt x="245" y="115" on="0"/>
        <pt x="245" y="85" on="0"/>
        <pt x="238" y="44" on="1"/>
        <pt x="234" y="19" on="0"/>
        <pt x="180" y="-8" on="0"/>
        <pt x="150" y="-8" on="1"/>
        <pt x="29" y="-8" on="0"/>
        <pt x="29" y="119" on="1"/>
        <pt x="67" y="493" on="1"/>
        <pt x="70" y="525" on="0"/>
      </contour>
    </TTGlyph>
    <TTGlyph name="e" xMin="33" yMin="-8" xMax="502" yMax="531">
      <contour>
        <pt x="186" y="152" on="0"/>
        <pt x="239" y="109" on="0"/>
        <pt x="323" y="109" on="0"/>
        <pt x="395" y="131" on="0"/>
        <pt x="440" y="153" on="0"/>
        <pt x="443" y="153" on="1"/>
        <pt x="451" y="153" on="0"/>
        <pt x="451" y="139" on="1"/>
        <pt x="451" y="124" on="0"/>
        <pt x="445" y="69" on="0"/>
        <pt x="443" y="62" on="1"/>
        <pt x="432" y="25" on="0"/>
        <pt x="324" y="-8" on="0"/>
        <pt x="269" y="-8" on="1"/>
        <pt x="150" y="-8" on="0"/>
        <pt x="33" y="108" on="0"/>
        <pt x="33" y="212" on="1"/>
        <pt x="33" y="375" on="0"/>
        <pt x="187" y="531" on="0"/>
        <pt x="308" y="531" on="1"/>
        <pt x="365" y="531" on="0"/>
        <pt x="447" y="501" on="0"/>
        <pt x="466" y="477" on="1"/>
        <pt x="502" y="433" on="0"/>
        <pt x="502" y="386" on="1"/>
        <pt x="502" y="294" on="0"/>
        <pt x="372" y="203" on="0"/>
        <pt x="287" y="203" on="1"/>
        <pt x="232" y="203" on="0"/>
        <pt x="183" y="210" on="1"/>
      </contour>
      <contour>
        <pt x="298" y="414" on="1"/>
        <pt x="215" y="414" on="0"/>
        <pt x="190" y="302" on="1"/>
        <pt x="238" y="302" on="1"/>
        <pt x="302" y="302" on="0"/>
        <pt x="358" y="341" on="0"/>
        <pt x="358" y="367" on="1"/>
        <pt x="358" y="414" on="0"/>
      </contour>
    </TTGlyph>
    <TTGlyph name="eacute" xMin="33" yMin="-8" xMax="502" yMax="754">
      <contour>
        <pt x="186" y="152" on="0"/>
        <pt x="239" y="109" on="0"/>
        <pt x="323" y="109" on="0"/>
        <pt x="395" y="131" on="0"/>
        <pt x="440" y="153" on="0"/>
        <pt x="443" y="153" on="1"/>
        <pt x="451" y="153" on="0"/>
        <pt x="451" y="139" on="1"/>
        <pt x="451" y="124" on="0"/>
        <pt x="445" y="69" on="0"/>
        <pt x="443" y="62" on="1"/>
        <pt x="432" y="25" on="0"/>
        <pt x="324" y="-8" on="0"/>
        <pt x="269" y="-8" on="1"/>
        <pt x="150" y="-8" on="0"/>
        <pt x="33" y="108" on="0"/>
        <pt x="33" y="212" on="1"/>
        <pt x="33" y="375" on="0"/>
        <pt x="187" y="531" on="0"/>
        <pt x="308" y="531" on="1"/>
        <pt x="365" y="531" on="0"/>
        <pt x="447" y="501" on="0"/>
        <pt x="466" y="477" on="1"/>
        <pt x="502" y="433" on="0"/>
        <pt x="502" y="386" on="1"/>
        <pt x="502" y="294" on="0"/>
        <pt x="372" y="203" on="0"/>
        <pt x="287" y="203" on="1"/>
        <pt x="232" y="203" on="0"/>
        <pt x="183" y="210" on="1"/>
      </contour>
      <contour>
        <pt x="298" y="414" on="1"/>
        <pt x="215" y="414" on="0"/>
        <pt x="190" y="302" on="1"/>
        <pt x="238" y="302" on="1"/>
        <pt x="302" y="302" on="0"/>
        <pt x="358" y="341" on="0"/>
        <pt x="358" y="367" on="1"/>
        <pt x="358" y="414" on="0"/>
      </contour>
      <contour>
        <pt x="273" y="595" on="1"/>
        <pt x="244" y="595" on="0"/>
        <pt x="244" y="608" on="1"/>
        <pt x="244" y="614" on="0"/>
        <pt x="261" y="639" on="0"/>
        <pt x="276" y="661" on="0"/>
        <pt x="306" y="704" on="0"/>
        <pt x="339" y="754" on="0"/>
        <pt x="467" y="754" on="0"/>
        <pt x="467" y="741" on="1"/>
        <pt x="467" y="734" on="0"/>
        <pt x="458" y="723" on="0"/>
        <pt x="386" y="654" on="0"/>
        <pt x="326" y="595" on="0"/>
      </contour>
    </TTGlyph>
    <TTGlyph name="ecircumflex" xMin="33" yMin="-8" xMax="502" yMax="728">
      <contour>
        <pt x="186" y="152" on="0"/>
        <pt x="239" y="109" on="0"/>
        <pt x="323" y="109" on="0"/>
        <pt x="395" y="131" on="0"/>
        <pt x="440" y="153" on="0"/>
        <pt x="443" y="153" on="1"/>
        <pt x="451" y="153" on="0"/>
        <pt x="451" y="139" on="1"/>
        <pt x="451" y="124" on="0"/>
        <pt x="445" y="69" on="0"/>
        <pt x="443" y="62" on="1"/>
        <pt x="432" y="25" on="0"/>
        <pt x="324" y="-8" on="0"/>
        <pt x="269" y="-8" on="1"/>
        <pt x="150" y="-8" on="0"/>
        <pt x="33" y="108" on="0"/>
        <pt x="33" y="212" on="1"/>
        <pt x="33" y="375" on="0"/>
        <pt x="187" y="531" on="0"/>
        <pt x="308" y="531" on="1"/>
        <pt x="365" y="531" on="0"/>
        <pt x="447" y="501" on="0"/>
        <pt x="466" y="477" on="1"/>
        <pt x="502" y="433" on="0"/>
        <pt x="502" y="386" on="1"/>
        <pt x="502" y="294" on="0"/>
        <pt x="372" y="203" on="0"/>
        <pt x="287" y="203" on="1"/>
        <pt x="232" y="203" on="0"/>
        <pt x="183" y="210" on="1"/>
      </contour>
      <contour>
        <pt x="298" y="414" on="1"/>
        <pt x="215" y="414" on="0"/>
        <pt x="190" y="302" on="1"/>
        <pt x="238" y="302" on="1"/>
        <pt x="302" y="302" on="0"/>
        <pt x="358" y="341" on="0"/>
        <pt x="358" y="367" on="1"/>
        <pt x="358" y="414" on="0"/>
      </contour>
      <contour>
        <pt x="328" y="728" on="1"/>
        <pt x="339" y="728" on="1"/>
        <pt x="387" y="728" on="0"/>
        <pt x="398" y="709" on="1"/>
        <pt x="452" y="607" on="1"/>
        <pt x="455" y="599" on="0"/>
        <pt x="455" y="595" on="1"/>
        <pt x="455" y="582" on="0"/>
        <pt x="436" y="582" on="1"/>
        <pt x="414" y="582" on="1"/>
        <pt x="365" y="582" on="0"/>
        <pt x="350" y="606" on="1"/>
        <pt x="325" y="646" on="1"/>
        <pt x="294" y="607" on="1"/>
        <pt x="275" y="582" on="0"/>
        <pt x="225" y="582" on="1"/>
        <pt x="201" y="582" on="1"/>
        <pt x="182" y="582" on="0"/>
        <pt x="182" y="592" on="1"/>
        <pt x="182" y="599" on="0"/>
        <pt x="189" y="607" on="1"/>
        <pt x="265" y="709" on="1"/>
        <pt x="279" y="728" on="0"/>
      </contour>
    </TTGlyph>
    <TTGlyph name="edieresis" xMin="33" yMin="-8" xMax="502" yMax="702">
      <contour>
        <pt x="186" y="152" on="0"/>
        <pt x="239" y="109" on="0"/>
        <pt x="323" y="109" on="0"/>
        <pt x="395" y="131" on="0"/>
        <pt x="440" y="153" on="0"/>
        <pt x="443" y="153" on="1"/>
        <pt x="451" y="153" on="0"/>
        <pt x="451" y="139" on="1"/>
        <pt x="451" y="124" on="0"/>
        <pt x="445" y="69" on="0"/>
        <pt x="443" y="62" on="1"/>
        <pt x="432" y="25" on="0"/>
        <pt x="324" y="-8" on="0"/>
        <pt x="269" y="-8" on="1"/>
        <pt x="150" y="-8" on="0"/>
        <pt x="33" y="108" on="0"/>
        <pt x="33" y="212" on="1"/>
        <pt x="33" y="375" on="0"/>
        <pt x="187" y="531" on="0"/>
        <pt x="308" y="531" on="1"/>
        <pt x="365" y="531" on="0"/>
        <pt x="447" y="501" on="0"/>
        <pt x="466" y="477" on="1"/>
        <pt x="502" y="433" on="0"/>
        <pt x="502" y="386" on="1"/>
        <pt x="502" y="294" on="0"/>
        <pt x="372" y="203" on="0"/>
        <pt x="287" y="203" on="1"/>
        <pt x="232" y="203" on="0"/>
        <pt x="183" y="210" on="1"/>
      </contour>
      <contour>
        <pt x="298" y="414" on="1"/>
        <pt x="215" y="414" on="0"/>
        <pt x="190" y="302" on="1"/>
        <pt x="238" y="302" on="1"/>
        <pt x="302" y="302" on="0"/>
        <pt x="358" y="341" on="0"/>
        <pt x="358" y="367" on="1"/>
        <pt x="358" y="414" on="0"/>
      </contour>
      <contour>
        <pt x="360" y="670" on="1"/>
        <pt x="363" y="702" on="0"/>
        <pt x="480" y="702" on="0"/>
        <pt x="480" y="670" on="1"/>
        <pt x="473" y="610" on="1"/>
        <pt x="468" y="578" on="0"/>
        <pt x="353" y="578" on="0"/>
        <pt x="353" y="610" on="1"/>
      </contour>
      <contour>
        <pt x="180" y="670" on="1"/>
        <pt x="183" y="702" on="0"/>
        <pt x="300" y="702" on="0"/>
        <pt x="300" y="670" on="1"/>
        <pt x="293" y="610" on="1"/>
        <pt x="288" y="578" on="0"/>
        <pt x="173" y="578" on="0"/>
        <pt x="173" y="610" on="1"/>
      </contour>
    </TTGlyph>
    <TTGlyph name="egrave" xMin="33" yMin="-8" xMax="502" yMax="754">
      <contour>
        <pt x="186" y="152" on="0"/>
        <pt x="239" y="109" on="0"/>
        <pt x="323" y="109" on="0"/>
        <pt x="395" y="131" on="0"/>
        <pt x="440" y="153" on="0"/>
        <pt x="443" y="153" on="1"/>
        <pt x="451" y="153" on="0"/>
        <pt x="451" y="139" on="1"/>
        <pt x="451" y="124" on="0"/>
        <pt x="445" y="69" on="0"/>
        <pt x="443" y="62" on="1"/>
        <pt x="432" y="25" on="0"/>
        <pt x="324" y="-8" on="0"/>
        <pt x="269" y="-8" on="1"/>
        <pt x="150" y="-8" on="0"/>
        <pt x="33" y="108" on="0"/>
        <pt x="33" y="212" on="1"/>
        <pt x="33" y="375" on="0"/>
        <pt x="187" y="531" on="0"/>
        <pt x="308" y="531" on="1"/>
        <pt x="365" y="531" on="0"/>
        <pt x="447" y="501" on="0"/>
        <pt x="466" y="477" on="1"/>
        <pt x="502" y="433" on="0"/>
        <pt x="502" y="386" on="1"/>
        <pt x="502" y="294" on="0"/>
        <pt x="372" y="203" on="0"/>
        <pt x="287" y="203" on="1"/>
        <pt x="232" y="203" on="0"/>
        <pt x="183" y="210" on="1"/>
      </contour>
      <contour>
        <pt x="298" y="414" on="1"/>
        <pt x="215" y="414" on="0"/>
        <pt x="190" y="302" on="1"/>
        <pt x="238" y="302" on="1"/>
        <pt x="302" y="302" on="0"/>
        <pt x="358" y="341" on="0"/>
        <pt x="358" y="367" on="1"/>
        <pt x="358" y="414" on="0"/>
      </contour>
      <contour>
        <pt x="412" y="611" on="1"/>
        <pt x="412" y="595" on="0"/>
        <pt x="328" y="595" on="0"/>
        <pt x="284" y="649" on="0"/>
        <pt x="215" y="731" on="0"/>
        <pt x="215" y="738" on="1"/>
        <pt x="215" y="754" on="0"/>
        <pt x="346" y="754" on="0"/>
        <pt x="359" y="727" on="1"/>
        <pt x="369" y="706" on="0"/>
        <pt x="388" y="666" on="0"/>
        <pt x="399" y="644" on="0"/>
        <pt x="404" y="634" on="1"/>
        <pt x="412" y="615" on="0"/>
      </contour>
    </TTGlyph>
    <TTGlyph name="eight" xMin="11" yMin="-8" xMax="503" yMax="708">
      <contour>
        <pt x="121" y="-8" on="0"/>
        <pt x="11" y="94" on="0"/>
        <pt x="11" y="239" on="0"/>
        <pt x="74" y="352" on="0"/>
        <pt x="132" y="375" on="1"/>
        <pt x="72" y="418" on="0"/>
        <pt x="72" y="582" on="0"/>
        <pt x="199" y="708" on="0"/>
        <pt x="313" y="708" on="1"/>
        <pt x="402" y="708" on="0"/>
        <pt x="503" y="619" on="0"/>
        <pt x="503" y="552" on="1"/>
        <pt x="503" y="438" on="0"/>
        <pt x="399" y="385" on="1"/>
        <pt x="491" y="342" on="0"/>
        <pt x="491" y="226" on="1"/>
        <pt x="491" y="144" on="0"/>
        <pt x="436" y="73" on="1"/>
        <pt x="408" y="37" on="0"/>
        <pt x="303" y="-8" on="0"/>
        <pt x="233" y="-8" on="1"/>
      </contour>
      <contour>
        <pt x="357" y="559" on="0"/>
        <pt x="322" y="591" on="0"/>
        <pt x="265" y="591" on="0"/>
        <pt x="219" y="550" on="0"/>
        <pt x="219" y="483" on="0"/>
        <pt x="257" y="447" on="0"/>
        <pt x="293" y="432" on="1"/>
        <pt x="357" y="471" on="0"/>
        <pt x="357" y="532" on="1"/>
      </contour>
      <contour>
        <pt x="162" y="154" on="0"/>
        <pt x="205" y="109" on="0"/>
        <pt x="280" y="109" on="0"/>
        <pt x="340" y="167" on="0"/>
        <pt x="340" y="256" on="0"/>
        <pt x="290" y="302" on="0"/>
        <pt x="230" y="326" on="1"/>
        <pt x="162" y="281" on="0"/>
        <pt x="162" y="193" on="1"/>
      </contour>
    </TTGlyph>
    <TTGlyph name="ellipsis" xMin="19" yMin="-2" xMax="600" yMax="154">
      <contour>
        <pt x="512" y="154" on="1"/>
        <pt x="544" y="154" on="1"/>
        <pt x="600" y="154" on="0"/>
        <pt x="600" y="122" on="1"/>
        <pt x="591" y="30" on="1"/>
        <pt x="588" y="-2" on="0"/>
        <pt x="527" y="-2" on="1"/>
        <pt x="495" y="-2" on="1"/>
        <pt x="462" y="-2" on="0"/>
        <pt x="439" y="13" on="0"/>
        <pt x="439" y="30" on="1"/>
        <pt x="448" y="122" on="1"/>
        <pt x="451" y="154" on="0"/>
      </contour>
      <contour>
        <pt x="302" y="154" on="1"/>
        <pt x="334" y="154" on="1"/>
        <pt x="390" y="154" on="0"/>
        <pt x="390" y="122" on="1"/>
        <pt x="381" y="30" on="1"/>
        <pt x="378" y="-2" on="0"/>
        <pt x="317" y="-2" on="1"/>
        <pt x="285" y="-2" on="1"/>
        <pt x="252" y="-2" on="0"/>
        <pt x="229" y="13" on="0"/>
        <pt x="229" y="30" on="1"/>
        <pt x="238" y="122" on="1"/>
        <pt x="241" y="154" on="0"/>
      </contour>
      <contour>
        <pt x="92" y="154" on="1"/>
        <pt x="124" y="154" on="1"/>
        <pt x="180" y="154" on="0"/>
        <pt x="180" y="122" on="1"/>
        <pt x="171" y="30" on="1"/>
        <pt x="168" y="-2" on="0"/>
        <pt x="107" y="-2" on="1"/>
        <pt x="75" y="-2" on="1"/>
        <pt x="42" y="-2" on="0"/>
        <pt x="19" y="13" on="0"/>
        <pt x="19" y="30" on="1"/>
        <pt x="28" y="122" on="1"/>
        <pt x="31" y="154" on="0"/>
      </contour>
    </TTGlyph>
    <TTGlyph name="emdash" xMin="0" yMin="212" xMax="1000" yMax="319">
      <contour>
        <pt x="0" y="246" on="1"/>
        <pt x="0" y="319" on="0"/>
        <pt x="37" y="319" on="1"/>
        <pt x="974" y="319" on="1"/>
        <pt x="1000" y="319" on="0"/>
        <pt x="1000" y="285" on="1"/>
        <pt x="1000" y="212" on="0"/>
        <pt x="963" y="212" on="1"/>
        <pt x="26" y="212" on="1"/>
        <pt x="0" y="212" on="0"/>
      </contour>
    </TTGlyph>
    <TTGlyph name="endash" xMin="-3" yMin="212" xMax="504" yMax="319">
      <contour>
        <pt x="-3" y="246" on="1"/>
        <pt x="-3" y="319" on="0"/>
        <pt x="34" y="319" on="1"/>
        <pt x="478" y="319" on="1"/>
        <pt x="504" y="319" on="0"/>
        <pt x="504" y="285" on="1"/>
        <pt x="504" y="212" on="0"/>
        <pt x="467" y="212" on="1"/>
        <pt x="23" y="212" on="1"/>
        <pt x="-3" y="212" on="0"/>
      </contour>
    </TTGlyph>
    <TTGlyph name="equal" xMin="28" yMin="86" xMax="530" yMax="374">
      <contour>
        <pt x="47" y="301" on="1"/>
        <pt x="47" y="374" on="0"/>
        <pt x="84" y="374" on="1"/>
        <pt x="504" y="374" on="1"/>
        <pt x="530" y="374" on="0"/>
        <pt x="530" y="340" on="1"/>
        <pt x="530" y="267" on="0"/>
        <pt x="493" y="267" on="1"/>
        <pt x="73" y="267" on="1"/>
        <pt x="47" y="267" on="0"/>
      </contour>
      <contour>
        <pt x="28" y="120" on="1"/>
        <pt x="28" y="193" on="0"/>
        <pt x="65" y="193" on="1"/>
        <pt x="485" y="193" on="1"/>
        <pt x="511" y="193" on="0"/>
        <pt x="511" y="159" on="1"/>
        <pt x="511" y="86" on="0"/>
        <pt x="474" y="86" on="1"/>
        <pt x="54" y="86" on="1"/>
        <pt x="28" y="86" on="0"/>
      </contour>
    </TTGlyph>
    <TTGlyph name="eth" xMin="40" yMin="-8" xMax="533" yMax="715">
      <contour>
        <pt x="339" y="589" on="1"/>
        <pt x="283" y="581" on="0"/>
        <pt x="263" y="581" on="0"/>
        <pt x="243" y="604" on="0"/>
        <pt x="243" y="635" on="0"/>
        <pt x="266" y="639" on="1"/>
        <pt x="309" y="645" on="1"/>
        <pt x="307" y="648" on="0"/>
        <pt x="300" y="659" on="1"/>
        <pt x="282" y="685" on="0"/>
        <pt x="282" y="707" on="0"/>
        <pt x="297" y="708" on="1"/>
        <pt x="359" y="715" on="1"/>
        <pt x="390" y="715" on="0"/>
        <pt x="411" y="691" on="1"/>
        <pt x="420" y="681" on="0"/>
        <pt x="432" y="661" on="1"/>
        <pt x="499" y="670" on="0"/>
        <pt x="513" y="670" on="0"/>
        <pt x="533" y="645" on="0"/>
        <pt x="533" y="615" on="0"/>
        <pt x="511" y="612" on="1"/>
        <pt x="464" y="606" on="1"/>
        <pt x="531" y="483" on="0"/>
        <pt x="531" y="163" on="0"/>
        <pt x="389" y="-8" on="0"/>
        <pt x="258" y="-8" on="1"/>
        <pt x="151" y="-8" on="0"/>
        <pt x="40" y="105" on="0"/>
        <pt x="40" y="213" on="1"/>
        <pt x="40" y="365" on="0"/>
        <pt x="185" y="531" on="0"/>
        <pt x="314" y="531" on="1"/>
        <pt x="333" y="531" on="0"/>
        <pt x="365" y="527" on="1"/>
        <pt x="356" y="554" on="0"/>
      </contour>
      <contour>
        <pt x="270" y="109" on="1"/>
        <pt x="322" y="109" on="0"/>
        <pt x="380" y="210" on="0"/>
        <pt x="380" y="304" on="1"/>
        <pt x="380" y="414" on="0"/>
        <pt x="302" y="414" on="1"/>
        <pt x="249" y="414" on="0"/>
        <pt x="190" y="314" on="0"/>
        <pt x="190" y="219" on="1"/>
        <pt x="190" y="109" on="0"/>
      </contour>
    </TTGlyph>
    <TTGlyph name="exclam" xMin="40" yMin="-2" xMax="291" yMax="702">
      <contour>
        <pt x="142" y="222" on="1"/>
        <pt x="131" y="222" on="1"/>
        <pt x="101" y="222" on="0"/>
        <pt x="83" y="236" on="0"/>
        <pt x="83" y="254" on="1"/>
        <pt x="127" y="670" on="1"/>
        <pt x="130" y="702" on="0"/>
        <pt x="190" y="702" on="1"/>
        <pt x="233" y="702" on="1"/>
        <pt x="291" y="702" on="0"/>
        <pt x="291" y="673" on="1"/>
        <pt x="291" y="653" on="0"/>
        <pt x="196" y="254" on="1"/>
        <pt x="192" y="237" on="0"/>
        <pt x="171" y="222" on="0"/>
      </contour>
      <contour>
        <pt x="113" y="154" on="1"/>
        <pt x="145" y="154" on="1"/>
        <pt x="202" y="154" on="0"/>
        <pt x="202" y="122" on="1"/>
        <pt x="192" y="30" on="1"/>
        <pt x="189" y="-2" on="0"/>
        <pt x="129" y="-2" on="1"/>
        <pt x="97" y="-2" on="1"/>
        <pt x="40" y="-2" on="0"/>
        <pt x="40" y="30" on="1"/>
        <pt x="50" y="122" on="1"/>
        <pt x="53" y="154" on="0"/>
      </contour>
    </TTGlyph>
    <TTGlyph name="exclamdown" xMin="12" yMin="-179" xMax="263" yMax="525">
      <contour>
        <pt x="190" y="369" on="1"/>
        <pt x="158" y="369" on="1"/>
        <pt x="101" y="369" on="0"/>
        <pt x="101" y="401" on="1"/>
        <pt x="111" y="493" on="1"/>
        <pt x="114" y="525" on="0"/>
        <pt x="174" y="525" on="1"/>
        <pt x="206" y="525" on="1"/>
        <pt x="263" y="525" on="0"/>
        <pt x="263" y="493" on="1"/>
        <pt x="253" y="401" on="1"/>
        <pt x="250" y="369" on="0"/>
      </contour>
      <contour>
        <pt x="161" y="301" on="1"/>
        <pt x="172" y="301" on="1"/>
        <pt x="202" y="301" on="0"/>
        <pt x="220" y="287" on="0"/>
        <pt x="220" y="269" on="1"/>
        <pt x="176" y="-147" on="1"/>
        <pt x="173" y="-179" on="0"/>
        <pt x="113" y="-179" on="1"/>
        <pt x="70" y="-179" on="1"/>
        <pt x="12" y="-179" on="0"/>
        <pt x="12" y="-150" on="1"/>
        <pt x="12" y="-131" on="0"/>
        <pt x="107" y="269" on="1"/>
        <pt x="111" y="286" on="0"/>
        <pt x="132" y="301" on="0"/>
      </contour>
    </TTGlyph>
    <TTGlyph name="f" xMin="34" yMin="-2" xMax="359" yMax="760">
      <contour>
        <pt x="300" y="523" on="1"/>
        <pt x="310" y="523" on="0"/>
        <pt x="316" y="514" on="0"/>
        <pt x="316" y="470" on="0"/>
        <pt x="285" y="406" on="0"/>
        <pt x="258" y="406" on="1"/>
        <pt x="228" y="406" on="1"/>
        <pt x="189" y="30" on="1"/>
        <pt x="186" y="-2" on="0"/>
        <pt x="126" y="-2" on="1"/>
        <pt x="98" y="-2" on="1"/>
        <pt x="70" y="-2" on="0"/>
        <pt x="41" y="16" on="0"/>
        <pt x="41" y="29" on="1"/>
        <pt x="80" y="406" on="1"/>
        <pt x="60" y="406" on="1"/>
        <pt x="34" y="406" on="0"/>
        <pt x="34" y="442" on="1"/>
        <pt x="34" y="523" on="0"/>
        <pt x="72" y="523" on="1"/>
        <pt x="93" y="523" on="1"/>
        <pt x="100" y="598" on="1"/>
        <pt x="107" y="675" on="0"/>
        <pt x="192" y="760" on="0"/>
        <pt x="263" y="760" on="1"/>
        <pt x="359" y="760" on="0"/>
        <pt x="359" y="714" on="1"/>
        <pt x="359" y="698" on="0"/>
        <pt x="334" y="638" on="0"/>
        <pt x="322" y="638" on="1"/>
        <pt x="320" y="638" on="0"/>
        <pt x="300" y="643" on="0"/>
        <pt x="289" y="643" on="1"/>
        <pt x="253" y="643" on="0"/>
        <pt x="249" y="600" on="1"/>
        <pt x="240" y="523" on="1"/>
      </contour>
    </TTGlyph>
    <TTGlyph name="fi" xMin="34" yMin="-8" xMax="547" yMax="760">
      <contour>
        <pt x="300" y="523" on="1"/>
        <pt x="310" y="523" on="0"/>
        <pt x="316" y="514" on="0"/>
        <pt x="316" y="470" on="0"/>
        <pt x="285" y="406" on="0"/>
        <pt x="258" y="406" on="1"/>
        <pt x="228" y="406" on="1"/>
        <pt x="189" y="30" on="1"/>
        <pt x="186" y="-2" on="0"/>
        <pt x="126" y="-2" on="1"/>
        <pt x="98" y="-2" on="1"/>
        <pt x="70" y="-2" on="0"/>
        <pt x="41" y="16" on="0"/>
        <pt x="41" y="29" on="1"/>
        <pt x="80" y="406" on="1"/>
        <pt x="60" y="406" on="1"/>
        <pt x="34" y="406" on="0"/>
        <pt x="34" y="442" on="1"/>
        <pt x="34" y="523" on="0"/>
        <pt x="72" y="523" on="1"/>
        <pt x="93" y="523" on="1"/>
        <pt x="100" y="598" on="1"/>
        <pt x="107" y="675" on="0"/>
        <pt x="192" y="760" on="0"/>
        <pt x="263" y="760" on="1"/>
        <pt x="359" y="760" on="0"/>
        <pt x="359" y="714" on="1"/>
        <pt x="359" y="698" on="0"/>
        <pt x="334" y="638" on="0"/>
        <pt x="322" y="638" on="1"/>
        <pt x="320" y="638" on="0"/>
        <pt x="300" y="643" on="0"/>
        <pt x="289" y="643" on="1"/>
        <pt x="253" y="643" on="0"/>
        <pt x="249" y="600" on="1"/>
        <pt x="240" y="523" on="1"/>
      </contour>
      <contour>
        <pt x="469" y="609" on="1"/>
        <pt x="441" y="609" on="1"/>
        <pt x="413" y="609" on="0"/>
        <pt x="384" y="627" on="0"/>
        <pt x="384" y="640" on="1"/>
        <pt x="393" y="722" on="1"/>
        <pt x="396" y="754" on="0"/>
        <pt x="456" y="754" on="1"/>
        <pt x="484" y="754" on="1"/>
        <pt x="512" y="754" on="0"/>
        <pt x="541" y="736" on="0"/>
        <pt x="541" y="723" on="1"/>
        <pt x="532" y="641" on="1"/>
        <pt x="529" y="609" on="0"/>
      </contour>
      <contour>
        <pt x="432" y="525" on="1"/>
        <pt x="460" y="525" on="1"/>
        <pt x="488" y="525" on="0"/>
        <pt x="517" y="507" on="0"/>
        <pt x="517" y="494" on="1"/>
        <pt x="480" y="152" on="0"/>
        <pt x="480" y="142" on="1"/>
        <pt x="480" y="109" on="0"/>
        <pt x="510" y="109" on="1"/>
        <pt x="518" y="109" on="0"/>
        <pt x="538" y="115" on="0"/>
        <pt x="539" y="115" on="1"/>
        <pt x="547" y="115" on="0"/>
        <pt x="547" y="85" on="0"/>
        <pt x="540" y="44" on="1"/>
        <pt x="536" y="19" on="0"/>
        <pt x="482" y="-8" on="0"/>
        <pt x="452" y="-8" on="1"/>
        <pt x="331" y="-8" on="0"/>
        <pt x="331" y="119" on="1"/>
        <pt x="369" y="493" on="1"/>
        <pt x="372" y="525" on="0"/>
      </contour>
    </TTGlyph>
    <TTGlyph name="five" xMin="35" yMin="-8" xMax="488" yMax="700">
      <contour>
        <pt x="98" y="129" on="0"/>
        <pt x="165" y="109" on="0"/>
        <pt x="263" y="109" on="0"/>
        <pt x="326" y="175" on="0"/>
        <pt x="326" y="233" on="1"/>
        <pt x="326" y="323" on="0"/>
        <pt x="212" y="323" on="1"/>
        <pt x="103" y="323" on="1"/>
        <pt x="84" y="323" on="0"/>
        <pt x="69" y="335" on="0"/>
        <pt x="69" y="357" on="0"/>
        <pt x="120" y="660" on="1"/>
        <pt x="124" y="681" on="0"/>
        <pt x="145" y="700" on="0"/>
        <pt x="167" y="700" on="1"/>
        <pt x="462" y="700" on="1"/>
        <pt x="488" y="700" on="0"/>
        <pt x="488" y="664" on="1"/>
        <pt x="488" y="583" on="0"/>
        <pt x="449" y="583" on="1"/>
        <pt x="247" y="583" on="1"/>
        <pt x="222" y="440" on="1"/>
        <pt x="248" y="440" on="1"/>
        <pt x="360" y="440" on="0"/>
        <pt x="478" y="356" on="0"/>
        <pt x="478" y="255" on="1"/>
        <pt x="478" y="183" on="0"/>
        <pt x="428" y="77" on="0"/>
        <pt x="386" y="48" on="1"/>
        <pt x="303" y="-8" on="0"/>
        <pt x="196" y="-8" on="1"/>
        <pt x="35" y="-8" on="0"/>
        <pt x="35" y="55" on="1"/>
        <pt x="35" y="149" on="0"/>
        <pt x="59" y="149" on="1"/>
        <pt x="63" y="149" on="0"/>
      </contour>
    </TTGlyph>
    <TTGlyph name="fl" xMin="34" yMin="-8" xMax="549" yMax="760">
      <contour>
        <pt x="300" y="523" on="1"/>
        <pt x="310" y="523" on="0"/>
        <pt x="316" y="514" on="0"/>
        <pt x="316" y="470" on="0"/>
        <pt x="285" y="406" on="0"/>
        <pt x="258" y="406" on="1"/>
        <pt x="228" y="406" on="1"/>
        <pt x="189" y="30" on="1"/>
        <pt x="186" y="-2" on="0"/>
        <pt x="126" y="-2" on="1"/>
        <pt x="98" y="-2" on="1"/>
        <pt x="70" y="-2" on="0"/>
        <pt x="41" y="16" on="0"/>
        <pt x="41" y="29" on="1"/>
        <pt x="80" y="406" on="1"/>
        <pt x="60" y="406" on="1"/>
        <pt x="34" y="406" on="0"/>
        <pt x="34" y="442" on="1"/>
        <pt x="34" y="523" on="0"/>
        <pt x="72" y="523" on="1"/>
        <pt x="93" y="523" on="1"/>
        <pt x="100" y="598" on="1"/>
        <pt x="107" y="675" on="0"/>
        <pt x="192" y="760" on="0"/>
        <pt x="263" y="760" on="1"/>
        <pt x="359" y="760" on="0"/>
        <pt x="359" y="714" on="1"/>
        <pt x="359" y="698" on="0"/>
        <pt x="334" y="638" on="0"/>
        <pt x="322" y="638" on="1"/>
        <pt x="320" y="638" on="0"/>
        <pt x="300" y="643" on="0"/>
        <pt x="289" y="643" on="1"/>
        <pt x="253" y="643" on="0"/>
        <pt x="249" y="600" on="1"/>
        <pt x="240" y="523" on="1"/>
      </contour>
      <contour>
        <pt x="448" y="755" on="1"/>
        <pt x="496" y="755" on="1"/>
        <pt x="543" y="755" on="0"/>
        <pt x="543" y="728" on="1"/>
        <pt x="482" y="146" on="0"/>
        <pt x="482" y="142" on="1"/>
        <pt x="482" y="109" on="0"/>
        <pt x="512" y="109" on="1"/>
        <pt x="520" y="109" on="0"/>
        <pt x="540" y="115" on="0"/>
        <pt x="541" y="115" on="1"/>
        <pt x="549" y="115" on="0"/>
        <pt x="549" y="85" on="0"/>
        <pt x="542" y="44" on="1"/>
        <pt x="538" y="19" on="0"/>
        <pt x="484" y="-8" on="0"/>
        <pt x="454" y="-8" on="1"/>
        <pt x="333" y="-8" on="0"/>
        <pt x="333" y="119" on="1"/>
        <pt x="396" y="725" on="1"/>
        <pt x="400" y="755" on="0"/>
      </contour>
    </TTGlyph>
    <TTGlyph name="florin" xMin="-13" yMin="-206" xMax="356" yMax="760">
      <contour>
        <pt x="291" y="523" on="1"/>
        <pt x="301" y="523" on="0"/>
        <pt x="307" y="514" on="0"/>
        <pt x="307" y="472" on="0"/>
        <pt x="271" y="406" on="0"/>
        <pt x="245" y="406" on="1"/>
        <pt x="215" y="406" on="1"/>
        <pt x="135" y="-174" on="1"/>
        <pt x="130" y="-206" on="0"/>
        <pt x="72" y="-206" on="1"/>
        <pt x="44" y="-206" on="1"/>
        <pt x="16" y="-206" on="0"/>
        <pt x="-13" y="-188" on="0"/>
        <pt x="-13" y="-175" on="1"/>
        <pt x="67" y="406" on="1"/>
        <pt x="47" y="406" on="1"/>
        <pt x="23" y="406" on="0"/>
        <pt x="23" y="435" on="1"/>
        <pt x="23" y="523" on="0"/>
        <pt x="63" y="523" on="1"/>
        <pt x="84" y="523" on="1"/>
        <pt x="93" y="598" on="1"/>
        <pt x="102" y="674" on="0"/>
        <pt x="191" y="760" on="0"/>
        <pt x="262" y="760" on="1"/>
        <pt x="356" y="760" on="0"/>
        <pt x="356" y="716" on="1"/>
        <pt x="356" y="702" on="0"/>
        <pt x="330" y="638" on="0"/>
        <pt x="317" y="638" on="1"/>
        <pt x="314" y="638" on="0"/>
        <pt x="296" y="643" on="0"/>
        <pt x="284" y="643" on="1"/>
        <pt x="248" y="643" on="0"/>
        <pt x="242" y="600" on="1"/>
        <pt x="231" y="523" on="1"/>
      </contour>
    </TTGlyph>
    <TTGlyph name="four" xMin="-1" yMin="-2" xMax="513" yMax="702">
      <contour>
        <pt x="474" y="142" on="1"/>
        <pt x="436" y="142" on="1"/>
        <pt x="424" y="30" on="1"/>
        <pt x="421" y="-2" on="0"/>
        <pt x="361" y="-2" on="1"/>
        <pt x="333" y="-2" on="1"/>
        <pt x="276" y="-2" on="0"/>
        <pt x="276" y="30" on="1"/>
        <pt x="288" y="142" on="1"/>
        <pt x="26" y="142" on="1"/>
        <pt x="15" y="142" on="0"/>
        <pt x="-1" y="202" on="0"/>
        <pt x="-1" y="243" on="0"/>
        <pt x="2" y="246" on="1"/>
        <pt x="344" y="683" on="1"/>
        <pt x="359" y="702" on="0"/>
        <pt x="407" y="702" on="1"/>
        <pt x="434" y="702" on="1"/>
        <pt x="491" y="702" on="0"/>
        <pt x="491" y="670" on="1"/>
        <pt x="448" y="259" on="1"/>
        <pt x="487" y="259" on="1"/>
        <pt x="513" y="259" on="0"/>
        <pt x="513" y="223" on="1"/>
        <pt x="513" y="142" on="0"/>
      </contour>
      <contour>
        <pt x="150" y="259" on="1"/>
        <pt x="300" y="259" on="1"/>
        <pt x="324" y="488" on="1"/>
        <pt x="320" y="489" on="1"/>
      </contour>
    </TTGlyph>
    <TTGlyph name="fraction" xMin="-124" yMin="0" xMax="394" yMax="700">
      <contour>
        <pt x="357" y="700" on="1"/>
        <pt x="374" y="700" on="1"/>
        <pt x="394" y="700" on="0"/>
        <pt x="394" y="690" on="1"/>
        <pt x="394" y="684" on="0"/>
        <pt x="387" y="674" on="1"/>
        <pt x="-40" y="26" on="1"/>
        <pt x="-58" y="0" on="0"/>
        <pt x="-87" y="0" on="1"/>
        <pt x="-104" y="0" on="1"/>
        <pt x="-124" y="0" on="0"/>
        <pt x="-124" y="16" on="0"/>
        <pt x="-117" y="26" on="1"/>
        <pt x="310" y="674" on="1"/>
        <pt x="327" y="700" on="0"/>
      </contour>
    </TTGlyph>
    <TTGlyph name="g" xMin="32" yMin="-212" xMax="519" yMax="531">
      <contour>
        <pt x="223" y="-212" on="1"/>
        <pt x="145" y="-212" on="0"/>
        <pt x="38" y="-172" on="0"/>
        <pt x="38" y="-141" on="1"/>
        <pt x="38" y="-54" on="0"/>
        <pt x="58" y="-54" on="1"/>
        <pt x="61" y="-54" on="0"/>
        <pt x="79" y="-64" on="1"/>
        <pt x="135" y="-95" on="0"/>
        <pt x="250" y="-95" on="0"/>
        <pt x="317" y="-29" on="0"/>
        <pt x="323" y="33" on="1"/>
        <pt x="326" y="63" on="1"/>
        <pt x="276" y="4" on="0"/>
        <pt x="125" y="4" on="0"/>
        <pt x="32" y="113" on="0"/>
        <pt x="32" y="213" on="1"/>
        <pt x="32" y="355" on="0"/>
        <pt x="161" y="531" on="0"/>
        <pt x="264" y="531" on="1"/>
        <pt x="329" y="531" on="0"/>
        <pt x="384" y="479" on="1"/>
        <pt x="393" y="508" on="0"/>
        <pt x="414" y="524" on="0"/>
        <pt x="449" y="525" on="1"/>
        <pt x="461" y="525" on="1"/>
        <pt x="519" y="525" on="0"/>
        <pt x="519" y="500" on="1"/>
        <pt x="478" y="93" on="1"/>
        <pt x="462" y="-61" on="0"/>
        <pt x="339" y="-212" on="0"/>
      </contour>
      <contour>
        <pt x="260" y="125" on="1"/>
        <pt x="301" y="125" on="0"/>
        <pt x="338" y="183" on="1"/>
        <pt x="351" y="300" on="1"/>
        <pt x="360" y="376" on="0"/>
        <pt x="363" y="388" on="1"/>
        <pt x="331" y="414" on="0"/>
        <pt x="298" y="414" on="1"/>
        <pt x="243" y="414" on="0"/>
        <pt x="182" y="315" on="0"/>
        <pt x="182" y="125" on="0"/>
      </contour>
    </TTGlyph>
    <TTGlyph name="germandbls" xMin="23" yMin="-2" xMax="527" yMax="708">
      <contour>
        <pt x="261" y="0" on="1"/>
        <pt x="238" y="0" on="1"/>
        <pt x="212" y="0" on="0"/>
        <pt x="212" y="36" on="1"/>
        <pt x="212" y="117" on="0"/>
        <pt x="250" y="117" on="1"/>
        <pt x="265" y="117" on="1"/>
        <pt x="311" y="117" on="0"/>
        <pt x="368" y="177" on="0"/>
        <pt x="368" y="221" on="1"/>
        <pt x="368" y="311" on="0"/>
        <pt x="270" y="311" on="1"/>
        <pt x="244" y="311" on="0"/>
        <pt x="244" y="347" on="1"/>
        <pt x="244" y="428" on="0"/>
        <pt x="320" y="428" on="0"/>
        <pt x="374" y="480" on="0"/>
        <pt x="374" y="512" on="1"/>
        <pt x="374" y="583" on="0"/>
        <pt x="309" y="583" on="1"/>
        <pt x="273" y="583" on="0"/>
        <pt x="225" y="538" on="0"/>
        <pt x="221" y="502" on="1"/>
        <pt x="171" y="30" on="1"/>
        <pt x="168" y="-2" on="0"/>
        <pt x="108" y="-2" on="1"/>
        <pt x="80" y="-2" on="1"/>
        <pt x="23" y="-2" on="0"/>
        <pt x="23" y="30" on="1"/>
        <pt x="72" y="490" on="1"/>
        <pt x="82" y="589" on="0"/>
        <pt x="223" y="708" on="0"/>
        <pt x="414" y="708" on="0"/>
        <pt x="527" y="623" on="0"/>
        <pt x="527" y="550" on="1"/>
        <pt x="527" y="494" on="0"/>
        <pt x="470" y="407" on="0"/>
        <pt x="418" y="387" on="1"/>
        <pt x="418" y="383" on="1"/>
        <pt x="518" y="343" on="0"/>
        <pt x="518" y="136" on="0"/>
        <pt x="377" y="0" on="0"/>
      </contour>
    </TTGlyph>
    <TTGlyph name="grave" xMin="60" yMin="595" xMax="257" yMax="754">
      <contour>
        <pt x="257" y="611" on="1"/>
        <pt x="257" y="595" on="0"/>
        <pt x="173" y="595" on="0"/>
        <pt x="129" y="649" on="0"/>
        <pt x="60" y="731" on="0"/>
        <pt x="60" y="738" on="1"/>
        <pt x="60" y="754" on="0"/>
        <pt x="191" y="754" on="0"/>
        <pt x="204" y="727" on="1"/>
        <pt x="214" y="706" on="0"/>
        <pt x="233" y="666" on="0"/>
        <pt x="244" y="644" on="0"/>
        <pt x="248" y="634" on="1"/>
        <pt x="257" y="615" on="0"/>
      </contour>
    </TTGlyph>
    <TTGlyph name="greater" xMin="17" yMin="12" xMax="517" yMax="479">
      <contour>
        <pt x="517" y="263" on="1"/>
        <pt x="517" y="207" on="0"/>
        <pt x="482" y="193" on="1"/>
        <pt x="44" y="14" on="1"/>
        <pt x="36" y="12" on="0"/>
        <pt x="33" y="12" on="1"/>
        <pt x="17" y="12" on="0"/>
        <pt x="17" y="37" on="1"/>
        <pt x="17" y="114" on="0"/>
        <pt x="56" y="129" on="1"/>
        <pt x="360" y="245" on="1"/>
        <pt x="80" y="361" on="1"/>
        <pt x="55" y="371" on="0"/>
        <pt x="55" y="408" on="1"/>
        <pt x="55" y="479" on="0"/>
        <pt x="82" y="479" on="1"/>
        <pt x="86" y="479" on="0"/>
        <pt x="92" y="476" on="1"/>
        <pt x="493" y="296" on="1"/>
        <pt x="517" y="285" on="0"/>
      </contour>
    </TTGlyph>
</ttFont>
